{
.appVersion = "911";
copyright = "Copyright (c) 2010, The Indie Flower Authors (kimberlygeswein.com)";
customParameters = (
{
name = licenseURL;
value = " http://scripts.sil.org/OFL";
},
{
name = description;
value = .;
},
{
name = license;

glyphs = (
{
glyphname = A;
lastChange = "2016-08-24 09:53:51 +0000";
layers = (
{
layerId = UUID0;
paths = (
{
closed = 1;
nodes = (
"458 22 LINE",
"458 39 LINE",
"465 73 LINE",
"473 107 LINE",
"479 142 LINE",
"479 159 LINE",
"479 187 LINE",
"475 250 LINE",
"467 278 LINE",
"438 272 LINE",
"382 275 LINE",
"323 283 LINE",
"265 291 LINE",
"235 291 LINE",
"227 291 LINE",
"189 291 LINE",
"149 288 LINE",
"116 285 LINE",
"112 281 LINE",
"104 272 LINE",
"104 271 LINE",
"103 265 LINE",
"103 255 LINE",
"102 245 LINE",
"102 242 LINE",
"102 214 LINE",
"110 156 LINE",
"121 101 LINE",
"131 46 LINE",
"131 19 LINE",
"131 10 LINE",
"116 -4 LINE",
"93 5 LINE",
"74 39 LINE",
"62 93 LINE",
"54 156 LINE",
"54 223 LINE",
"57 253 LINE",
"54 256 LINE",
"43 269 LINE",
"30 283 LINE",
"21 297 LINE",
"19 300 LINE",
"19 302 LINE",
"19 303 LINE",
"19 305 LINE",
"19 312 LINE",
"25 317 LINE",
"35 320 LINE",
"45 324 LINE",
"48 329 LINE",
"48 329 LINE",
"48 338 LINE",
"48 347 LINE",
"48 354 LINE",
"48 355 LINE",
"51 396 LINE",
"57 489 LINE",
"69 578 LINE",
"95 660 LINE",
"142 723 LINE",
"215 760 LINE",
"270 760 LINE",
"313 760 LINE",
"382 719 LINE",
"436 649 LINE",
"476 558 LINE",
"503 457 LINE",
"521 353 LINE",
"531 259 LINE",
"535 182 LINE",
"535 156 LINE",
"535 139 LINE",
"534 108 LINE",
"532 80 LINE",
"528 48 LINE",
"525 28 LINE",
"517 18 LINE",
"493 -1 LINE",
"479 -1 LINE",
"466 -1 LINE",
"458 12 LINE"
);
},
{
closed = 1;
nodes = (
"436 317 LINE",
"438 317 LINE",
"446 319 LINE",
"453 328 LINE",
"459 347 LINE",
"461 364 LINE",
"461 394 LINE",
"450 467 LINE",
"429 545 LINE",
"395 619 LINE",
"347 678 LINE",
"286 713 LINE",
"248 713 LINE",
"208 713 LINE",
"153 671 LINE",
"118 604 LINE",
"101 520 LINE",
"93 436 LINE",
"92 361 LINE",
"92 338 LINE"
);
}
);
width = 563;
}
);
unicode = 0041;
},
{
glyphname = Aogonek;
lastChange = "2016-08-24 09:53:51 +0000";
layers = (
{
layerId = UUID0;
paths = (
{
closed = 1;
nodes = (
"546 -142 LINE",
"496 -143 LINE",
"417 -135 LINE",
"369 -107 LINE",
"358 -57 LINE",
"376 -13 LINE",
"385 1 LINE",
"405 19 LINE",
"432 31 LINE",
"446 36 LINE",
"452 39 LINE",
"459 42 LINE",
"460 49 LINE",
"461 57 LINE",
"465 73 LINE",
"473 107 LINE",
"479 142 LINE",
"479 159 LINE",
"479 187 LINE",
"475 250 LINE",
"467 278 LINE",
"438 272 LINE",
"382 275 LINE",
"323 283 LINE",
"265 291 LINE",
"235 291 LINE",
"227 291 LINE",
"189 291 LINE",
"149 288 LINE",
"116 285 LINE",
"112 281 LINE",
"104 272 LINE",
"104 271 LINE",
"103 265 LINE",
"103 255 LINE",
"102 245 LINE",
"102 242 LINE",
"102 214 LINE",
"110 156 LINE",
"121 101 LINE",
"131 46 LINE",
"131 19 LINE",
"131 10 LINE",
"116 -4 LINE",
"93 5 LINE",
"74 39 LINE",
"62 93 LINE",
"54 156 LINE",
"54 223 LINE",
"57 253 LINE",
"54 256 LINE",
"43 269 LINE",
"30 283 LINE",
"21 297 LINE",
"19 300 LINE",
"19 302 LINE",
"19 303 LINE",
"19 305 LINE",
"19 312 LINE",
"25 317 LINE",
"35 320 LINE",
"45 324 LINE",
"48 329 LINE",
"48 355 LINE",
"51 396 LINE",
"57 489 LINE",
"69 578 LINE",
"95 660 LINE",
"142 723 LINE",
"215 760 LINE",
"270 760 LINE",
"313 760 LINE",
"382 719 LINE",
"436 649 LINE",
"476 558 LINE",
"503 457 LINE",
"521 353 LINE",
"531 259 LINE",
"535 182 LINE",
"535 156 LINE",
"535 139 LINE",
"534 108 LINE",
"532 80 LINE",
"528 48 LINE",
"525 28 LINE",
"517 18 LINE",
"493 -1 LINE",
"479 -1 LINE",
"473 -1 LINE",
"470 0 LINE",
"438 -15 LINE",
"426 -30 LINE",
"405 -54 LINE",
"426 -91 LINE",
"503 -112 LINE",
"561 -108 LINE"
);
},
{
closed = 1;
nodes = (
"436 317 LINE",
"438 317 LINE",
"446 319 LINE",
"453 328 LINE",
"459 347 LINE",
"461 364 LINE",
"461 394 LINE",
"450 467 LINE",
"429 545 LINE",
"395 619 LINE",
"347 678 LINE",
"286 713 LINE",
"248 713 LINE",
"208 713 LINE",
"153 671 LINE",
"118 604 LINE",
"101 520 LINE",
"93 436 LINE",
"92 361 LINE",
"92 338 LINE"
);
}
);
width = 563;
}
);
unicode = 0104;
},
{
glyphname = Aring;
lastChange = "2016-08-24 09:53:51 +0000";
layers = (
{
layerId = UUID0;
paths = (
{
closed = 1;
nodes = (
"160 827 LINE",
"160 848 LINE",
"180 880 LINE",
"212 902 LINE",
"250 913 LINE",
"271 913 LINE",
"286 913 LINE",
"313 896 LINE",
"332 871 LINE",
"344 843 LINE",
"344 830 LINE",
"344 811 LINE",
"326 779 LINE",
"313 769 LINE",
"306 763 LINE",
"297 758 LINE",
"323 753 LINE",
"347 739 LINE",
"382 719 LINE",
"436 649 LINE",
"476 558 LINE",
"503 457 LINE",
"521 353 LINE",
"531 259 LINE",
"535 182 LINE",
"535 156 LINE",
"535 139 LINE",
"534 108 LINE",
"532 80 LINE",
"528 48 LINE",
"525 28 LINE",
"517 18 LINE",
"493 -1 LINE",
"479 -1 LINE",
"466 -1 LINE",
"458 12 LINE",
"458 22 LINE",
"458 39 LINE",
"465 73 LINE",
"473 107 LINE",
"479 142 LINE",
"479 159 LINE",
"479 187 LINE",
"475 250 LINE",
"467 278 LINE",
"438 272 LINE",
"382 275 LINE",
"323 283 LINE",
"265 291 LINE",
"235 291 LINE",
"227 291 LINE",
"189 291 LINE",
"149 288 LINE",
"116 285 LINE",
"112 281 LINE",
"104 272 LINE",
"104 271 LINE",
"103 265 LINE",
"103 255 LINE",
"102 245 LINE",
"102 242 LINE",
"102 214 LINE",
"110 156 LINE",
"121 101 LINE",
"131 46 LINE",
"131 19 LINE",
"131 10 LINE",
"116 -4 LINE",
"93 5 LINE",
"74 39 LINE",
"62 93 LINE",
"54 156 LINE",
"54 223 LINE",
"57 253 LINE",
"54 256 LINE",
"43 269 LINE",
"30 283 LINE",
"21 297 LINE",
"19 300 LINE",
"19 302 LINE",
"19 303 LINE",
"19 305 LINE",
"19 312 LINE",
"25 317 LINE",
"35 320 LINE",
"45 324 LINE",
"48 329 LINE",
"48 355 LINE",
"51 396 LINE",
"57 489 LINE",
"69 578 LINE",
"95 660 LINE",
"142 723 LINE",
"179 741 LINE",
"191 748 LINE",
"208 753 LINE",
"194 758 LINE",
"185 768 LINE",
"160 789 LINE"
);
},
{
closed = 1;
nodes = (
"436 317 LINE",
"438 317 LINE",
"446 319 LINE",
"453 328 LINE",
"459 347 LINE",
"461 364 LINE",
"461 394 LINE",
"450 467 LINE",
"429 545 LINE",
"395 619 LINE",
"347 678 LINE",
"286 713 LINE",
"248 713 LINE",
"208 713 LINE",
"153 671 LINE",
"118 604 LINE",
"101 520 LINE",
"93 436 LINE",
"92 361 LINE",
"92 338 LINE"
);
},
{
closed = 1;
nodes = (
"191 825 LINE",
"191 801 LINE",
"221 777 LINE",
"247 777 LINE",
"253 776 LINE",
"274 784 LINE",
"295 799 LINE",
"310 820 LINE",
"309 844 LINE",
"288 868 LINE",
"262 879 LINE",
"249 879 LINE",
"224 874 LINE",
"203 861 LINE",
"191 841 LINE"
);
}
);
width = 563;
}
);
unicode = 00C5;
},
{
glyphname = AE;
lastChange = "2016-08-24 09:53:51 +0000";
layers = (
{
layerId = UUID0;
paths = (
{
closed = 1;
nodes = (
"552 559 LINE",
"548 559 LINE",
"546 560 LINE",
"550 551 LINE",
"550 546 LINE",
"550 369 LINE",
"555 361 LINE",
"602 361 LINE",
"666 368 LINE",
"739 381 LINE",
"801 392 LINE",
"843 398 LINE",
"845 396 LINE",
"848 396 LINE",
"865 398 LINE",
"884 399 LINE",
"900 400 LINE",
"903 400 LINE",
"903 377 LINE",
"852 348 LINE",
"773 332 LINE",
"683 323 LINE",
"603 317 LINE",
"548 311 LINE",
"546 303 LINE",
"540 287 LINE",
"535 249 LINE",
"534 229 LINE",
"534 221 LINE",
"534 214 LINE",
"535 180 LINE",
"535 156 LINE",
"535 139 LINE",
"534 123 LINE",
"534 118 LINE",
"535 108 LINE",
"535 100 LINE",
"535 88 LINE",
"540 77 LINE",
"566 68 LINE",
"597 65 LINE",
"625 67 LINE",
"632 67 LINE",
"665 67 LINE",
"731 74 LINE",
"798 81 LINE",
"863 88 LINE",
"896 88 LINE",
"901 88 LINE",
"903 87 LINE",
"912 85 LINE",
"921 81 LINE",
"928 78 LINE",
"930 77 LINE",
"932 77 LINE",
"938 70 LINE",
"938 68 LINE",
"938 51 LINE",
"897 26 LINE",
"836 12 LINE",
"761 4 LINE",
"693 2 LINE",
"669 2 LINE",
"637 2 LINE",
"598 2 LINE",
"567 9 LINE",
"542 15 LINE",
"523 27 LINE",
"517 17 LINE",
"505 8 LINE",
"493 -1 LINE",
"479 -1 LINE",
"466 -1 LINE",
"458 12 LINE",
"458 22 LINE",
"458 39 LINE",
"465 73 LINE",
"473 107 LINE",
"476 124 LINE",
"479 138 LINE",
"479 151 LINE",
"479 159 LINE",
"479 187 LINE",
"475 250 LINE",
"467 278 LINE",
"438 272 LINE",
"382 275 LINE",
"323 283 LINE",
"265 291 LINE",
"235 291 LINE",
"227 291 LINE",
"189 291 LINE",
"149 288 LINE",
"116 285 LINE",
"112 281 LINE",
"104 272 LINE",
"104 271 LINE",
"103 265 LINE",
"103 255 LINE",
"102 245 LINE",
"102 242 LINE",
"102 214 LINE",
"110 156 LINE",
"121 101 LINE",
"131 46 LINE",
"131 19 LINE",
"131 10 LINE",
"116 -4 LINE",
"93 5 LINE",
"74 39 LINE",
"62 93 LINE",
"54 156 LINE",
"54 223 LINE",
"57 253 LINE",
"54 256 LINE",
"43 269 LINE",
"30 283 LINE",
"21 297 LINE",
"19 300 LINE",
"19 302 LINE",
"19 303 LINE",
"19 305 LINE",
"19 312 LINE",
"25 317 LINE",
"35 320 LINE",
"45 324 LINE",
"48 329 LINE",
"48 355 LINE",
"51 396 LINE",
"57 489 LINE",
"69 578 LINE",
"95 660 LINE",
"142 723 LINE",
"215 760 LINE",
"270 760 LINE",
"313 760 LINE",
"382 719 LINE",
"436 649 LINE",
"476 558 LINE",
"489 508 LINE",
"493 491 LINE",
"493 584 LINE",
"493 601 LINE",
"501 616 LINE",
"526 622 LINE",
"575 620 LINE",
"657 616 LINE",
"780 613 LINE",
"866 615 LINE",
"876 610 LINE",
"896 602 LINE",
"912 589 LINE",
"923 571 LINE",
"923 559 LINE",
"923 556 LINE",
"915 548 LINE",
"913 549 LINE",
"866 567 LINE"
);
},
{
closed = 1;
nodes = (
"436 317 LINE",
"438 317 LINE",
"446 319 LINE",
"453 328 LINE",
"459 347 LINE",
"461 364 LINE",
"461 394 LINE",
"450 467 LINE",
"429 545 LINE",
"395 619 LINE",
"347 678 LINE",
"286 713 LINE",
"248 713 LINE",
"208 713 LINE",
"153 671 LINE",
"118 604 LINE",
"101 520 LINE",
"93 436 LINE",
"92 361 LINE",
"92 338 LINE"
);
}
);
width = 962;
}
);
unicode = 00C6;
},
{
glyphname = B;
lastChange = "2016-08-24 09:53:51 +0000";
layers = (
{
layerId = UUID0;
paths = (
{
closed = 1;
nodes = (
"300 28 LINE",
"298 29 LINE",
"272 42 LINE",
"244 63 LINE",
"223 84 LINE",
"225 94 LINE",
"229 104 LINE",
"245 113 LINE",
"262 121 LINE",
"273 135 LINE",
"272 150 LINE",
"256 267 LINE",
"229 445 LINE",
"198 566 LINE",
"162 629 LINE",
"136 629 LINE",
"135 629 LINE",
"134 628 LINE",
"133 628 LINE",
"131 628 LINE",
"124 623 LINE",
"97 613 LINE",
"66 603 LINE",
"37 594 LINE",
"28 591 LINE",
"27 591 LINE",
"21 590 LINE",
"19 590 LINE",
"19 619 LINE",
"19 628 LINE",
"54 646 LINE",
"108 663 LINE",
"173 678 LINE",
"232 688 LINE",
"279 693 LINE",
"287 693 LINE",
"305 693 LINE",
"354 686 LINE",
"407 669 LINE",
"459 646 LINE",
"500 614 LINE",
"525 575 LINE",
"525 552 LINE",
"525 526 LINE",
"505 484 LINE",
"479 450 LINE",
"458 423 LINE",
"458 412 LINE",
"458 411 LINE",
"496 392 LINE",
"556 358 LINE",
"624 310 LINE",
"684 250 LINE",
"722 181 LINE",
"722 142 LINE",
"722 101 LINE",
"687 46 LINE",
"630 13 LINE",
"561 -1 LINE",
"528 -1 LINE",
"496 -1 LINE",
"446 2 LINE",
"396 9 LINE",
"340 20 LINE"
);
},
{
closed = 1;
nodes = (
"329 145 LINE",
"316 125 LINE",
"326 96 LINE",
"358 74 LINE",
"405 62 LINE",
"452 55 LINE",
"493 54 LINE",
"502 56 LINE",
"531 56 LINE",
"587 61 LINE",
"631 81 LINE",
"656 120 LINE",
"656 154 LINE",
"656 202 LINE",
"606 266 LINE",
"531 311 LINE",
"443 341 LINE",
"367 367 LINE",
"317 396 LINE",
"317 417 LINE",
"317 428 LINE",
"341 440 LINE",
"375 450 LINE",
"414 461 LINE",
"449 481 LINE",
"472 513 LINE",
"472 539 LINE",
"472 561 LINE",
"448 594 LINE",
"412 616 LINE",
"370 629 LINE",
"352 629 LINE",
"323 629 LINE",
"266 616 LINE",
"244 600 LINE",
"256 550 LINE",
"285 431 LINE",
"312 309 LINE",
"329 191 LINE"
);
}
);
width = 741;
}
);
unicode = 0042;
},
{
glyphname = C;
lastChange = "2016-08-24 09:53:51 +0000";
layers = (
{
layerId = UUID0;
paths = (
{
closed = 1;
nodes = (
"19 271 LINE",
"19 309 LINE",
"44 395 LINE",
"89 479 LINE",
"150 555 LINE",
"224 613 LINE",
"306 647 LINE",
"347 647 LINE",
"370 647 LINE",
"395 612 LINE",
"395 591 LINE",
"395 578 LINE",
"385 545 LINE",
"365 513 LINE",
"341 490 LINE",
"326 490 LINE",
"326 500 LINE",
"332 519 LINE",
"341 535 LINE",
"348 553 LINE",
"348 563 LINE",
"348 577 LINE",
"325 582 LINE",
"314 582 LINE",
"313 582 LINE",
"302 581 LINE",
"300 581 LINE",
"255 563 LINE",
"170 507 LINE",
"104 432 LINE",
"64 341 LINE",
"64 289 LINE",
"64 256 LINE",
"77 177 LINE",
"108 109 LINE",
"162 64 LINE",
"202 64 LINE",
"235 64 LINE",
"301 77 LINE",
"366 92 LINE",
"432 104 LINE",
"465 104 LINE",
"473 104 LINE",
"488 100 LINE",
"488 89 LINE",
"488 84 LINE",
"476 70 LINE",
"459 57 LINE",
"443 48 LINE",
"440 48 LINE",
"216 0 LINE",
"215 0 LINE",
"200 -1 LINE",
"197 -1 LINE",
"165 -1 LINE",
"112 24 LINE",
"73 67 LINE",
"45 123 LINE",
"26 184 LINE",
"19 244 LINE"
);
}
);
width = 517;
}
);
unicode = 0043;
},
{
glyphname = Ccedilla;
lastChange = "2016-08-24 09:53:51 +0000";
layers = (
{
layerId = UUID0;
paths = (
{
closed = 1;
nodes = (
"128 -211 LINE",
"134 -206 LINE",
"145 -204 LINE",
"151 -204 LINE",
"168 -204 LINE",
"197 -222 LINE",
"224 -243 LINE",
"250 -262 LINE",
"265 -262 LINE",
"281 -262 LINE",
"309 -263 LINE",
"326 -255 LINE",
"337 -233 LINE",
"337 -210 LINE",
"338 -187 LINE",
"321 -161 LINE",
"294 -147 LINE",
"260 -142 LINE",
"224 -134 LINE",
"188 -122 LINE",
"160 -97 LINE",
"144 -55 LINE",
"143 -21 LINE",
"144 -2 LINE",
"146 8 LINE",
"142 10 LINE",
"139 12 LINE",
"112 24 LINE",
"73 67 LINE",
"45 123 LINE",
"26 184 LINE",
"19 244 LINE",
"19 271 LINE",
"19 309 LINE",
"44 395 LINE",
"89 479 LINE",
"150 555 LINE",
"224 613 LINE",
"306 647 LINE",
"347 647 LINE",
"370 647 LINE",
"395 612 LINE",
"395 591 LINE",
"395 578 LINE",
"385 545 LINE",
"365 513 LINE",
"341 490 LINE",
"326 490 LINE",
"326 500 LINE",
"332 519 LINE",
"341 535 LINE",
"348 553 LINE",
"348 563 LINE",
"348 577 LINE",
"325 582 LINE",
"314 582 LINE",
"313 582 LINE",
"302 581 LINE",
"300 581 LINE",
"255 563 LINE",
"170 507 LINE",
"104 432 LINE",
"64 341 LINE",
"64 289 LINE",
"64 256 LINE",
"77 177 LINE",
"108 109 LINE",
"162 64 LINE",
"202 64 LINE",
"235 64 LINE",
"301 77 LINE",
"366 92 LINE",
"432 104 LINE",
"465 104 LINE",
"473 104 LINE",
"488 100 LINE",
"488 89 LINE",
"488 84 LINE",
"476 70 LINE",
"459 57 LINE",
"443 48 LINE",
"440 48 LINE",
"216 0 LINE",
"215 0 LINE",
"200 -1 LINE",
"197 -1 LINE",
"191 -1 LINE",
"186 0 LINE",
"189 -10 LINE",
"191 -29 LINE",
"188 -34 LINE",
"188 -64 LINE",
"218 -91 LINE",
"262 -103 LINE",
"314 -108 LINE",
"359 -129 LINE",
"390 -172 LINE",
"390 -214 LINE",
"390 -237 LINE",
"364 -272 LINE",
"327 -295 LINE",
"282 -307 LINE",
"262 -307 LINE",
"233 -307 LINE",
"196 -290 LINE",
"168 -264 LINE",
"144 -229 LINE"
);
}
);
width = 517;
}
);
unicode = 00C7;
},
{
glyphname = D;
lastChange = "2016-08-24 09:53:51 +0000";
layers = (
{
layerId = UUID0;
paths = (
{
closed = 1;
nodes = (
"243 60 LINE",
"243 68 LINE",
"247 85 LINE",
"258 85 LINE",
"263 85 LINE",
"303 74 LINE",
"350 61 LINE",
"394 49 LINE",
"403 48 LINE",
"408 48 LINE",
"450 48 LINE",
"539 80 LINE",
"611 139 LINE",
"657 216 LINE",
"657 261 LINE",
"657 296 LINE",
"630 363 LINE",
"584 426 LINE",
"522 479 LINE",
"454 521 LINE",
"384 550 LINE",
"352 556 LINE",
"353 493 LINE",
"370 382 LINE",
"390 279 LINE",
"400 183 LINE",
"395 133 LINE",
"395 127 LINE",
"394 114 LINE",
"390 102 LINE",
"379 94 LINE",
"370 94 LINE",
"355 86 LINE",
"341 113 LINE",
"333 169 LINE",
"331 245 LINE",
"326 328 LINE",
"318 408 LINE",
"310 440 LINE",
"309 452 LINE",
"302 490 LINE",
"292 530 LINE",
"279 563 LINE",
"272 572 LINE",
"202 572 LINE",
"118 563 LINE",
"68 552 LINE",
"46 539 LINE",
"37 534 LINE",
"36 534 LINE",
"35 534 LINE",
"33 533 LINE",
"32 533 LINE",
"30 533 LINE",
"30 534 LINE",
"29 534 LINE",
"28 534 LINE",
"27 535 LINE",
"25 542 LINE",
"22 551 LINE",
"20 561 LINE",
"19 563 LINE",
"19 566 LINE",
"19 580 LINE",
"48 599 LINE",
"90 613 LINE",
"141 622 LINE",
"185 626 LINE",
"215 628 LINE",
"216 628 LINE",
"266 628 LINE",
"379 606 LINE",
"489 563 LINE",
"590 500 LINE",
"667 417 LINE",
"713 316 LINE",
"713 258 LINE",
"713 204 LINE",
"680 118 LINE",
"621 54 LINE",
"543 10 LINE",
"455 -11 LINE",
"362 -11 LINE",
"318 0 LINE",
"310 3 LINE",
"284 13 LINE",
"260 27 LINE",
"243 48 LINE"
);
}
);
width = 741;
}
);
unicode = 0044;
},
{
glyphname = Eth;
lastChange = "2016-08-24 09:53:51 +0000";
layers = (
{
layerId = UUID0;
paths = (
{
closed = 1;
nodes = (
"452 366 LINE",
"466 366 LINE",
"498 364 LINE",
"525 355 LINE",
"543 336 LINE",
"543 318 LINE",
"543 299 LINE",
"524 299 LINE",
"503 299 LINE",
"467 310 LINE",
"443 310 LINE",
"427 310 LINE",
"394 307 LINE",
"377 305 LINE",
"382 279 LINE",
"389 247 LINE",
"395 225 LINE",
"398 206 LINE",
"399 186 LINE",
"397 156 LINE",
"395 133 LINE",
"395 127 LINE",
"394 114 LINE",
"390 102 LINE",
"379 94 LINE",
"370 94 LINE",
"351 83 LINE",
"339 106 LINE",
"338 163 LINE",
"338 247 LINE",
"329 298 LINE",
"302 294 LINE",
"247 287 LINE",
"220 287 LINE",
"220 307 LINE",
"235 333 LINE",
"262 350 LINE",
"298 358 LINE",
"317 360 LINE",
"316 369 LINE",
"311 405 LINE",
"303 449 LINE",
"294 497 LINE",
"285 538 LINE",
"276 567 LINE",
"272 572 LINE",
"202 572 LINE",
"118 563 LINE",
"68 552 LINE",
"46 539 LINE",
"37 534 LINE",
"36 534 LINE",
"35 534 LINE",
"33 533 LINE",
"32 533 LINE",
"30 533 LINE",
"30 534 LINE",
"29 534 LINE",
"28 534 LINE",
"27 535 LINE",
"26 538 LINE",
"24 546 LINE",
"22 551 LINE",
"20 561 LINE",
"19 563 LINE",
"19 566 LINE",
"19 580 LINE",
"48 599 LINE",
"90 613 LINE",
"141 622 LINE",
"185 626 LINE",
"215 628 LINE",
"216 628 LINE",
"266 628 LINE",
"379 606 LINE",
"489 563 LINE",
"590 500 LINE",
"667 417 LINE",
"713 316 LINE",
"713 258 LINE",
"713 204 LINE",
"680 118 LINE",
"621 54 LINE",
"543 10 LINE",
"455 -11 LINE",
"362 -11 LINE",
"318 0 LINE",
"310 3 LINE",
"284 13 LINE",
"260 27 LINE",
"243 48 LINE",
"243 60 LINE",
"243 68 LINE",
"247 85 LINE",
"258 85 LINE",
"263 85 LINE",
"303 74 LINE",
"350 61 LINE",
"394 49 LINE",
"403 48 LINE",
"408 48 LINE",
"450 48 LINE",
"539 80 LINE",
"611 139 LINE",
"657 216 LINE",
"657 261 LINE",
"657 296 LINE",
"630 363 LINE",
"584 426 LINE",
"522 479 LINE",
"454 521 LINE",
"384 550 LINE",
"352 556 LINE",
"352 548 LINE",
"354 517 LINE",
"357 479 LINE",
"361 438 LINE",
"365 399 LINE",
"367 385 LINE",
"369 362 LINE",
"386 362 LINE",
"417 364 LINE",
"430 365 LINE",
"431 365 LINE",
"448 366 LINE"
);
}
);
width = 741;
}
);
unicode = 00D0;
},
{
glyphname = Dcroat;
lastChange = "2016-08-24 09:53:51 +0000";
layers = (
{
layerId = UUID0;
paths = (
{
closed = 1;
nodes = (
"243 60 LINE",
"243 68 LINE",
"247 85 LINE",
"258 85 LINE",
"263 85 LINE",
"303 74 LINE",
"350 61 LINE",
"394 49 LINE",
"403 48 LINE",
"408 48 LINE",
"450 48 LINE",
"539 80 LINE",
"611 139 LINE",
"657 216 LINE",
"657 261 LINE",
"657 296 LINE",
"630 363 LINE",
"584 426 LINE",
"522 479 LINE",
"454 521 LINE",
"384 550 LINE",
"352 556 LINE",
"353 493 LINE",
"361 438 LINE",
"369 388 LINE",
"377 343 LINE",
"391 343 LINE",
"405 342 LINE",
"422 341 LINE",
"449 332 LINE",
"467 313 LINE",
"467 296 LINE",
"467 275 LINE",
"448 275 LINE",
"427 275 LINE",
"408 280 LINE",
"398 283 LINE",
"388 285 LINE",
"392 258 LINE",
"395 230 LINE",
"400 183 LINE",
"395 133 LINE",
"395 127 LINE",
"394 114 LINE",
"390 102 LINE",
"379 94 LINE",
"370 94 LINE",
"355 86 LINE",
"341 113 LINE",
"333 169 LINE",
"332 207 LINE",
"331 244 LINE",
"329 284 LINE",
"321 282 LINE",
"304 279 LINE",
"271 272 LINE",
"236 266 LINE",
"208 266 LINE",
"208 300 LINE",
"233 330 LINE",
"274 340 LINE",
"301 339 LINE",
"313 338 LINE",
"325 339 LINE",
"322 368 LINE",
"318 408 LINE",
"310 440 LINE",
"309 452 LINE",
"302 490 LINE",
"292 530 LINE",
"279 563 LINE",
"272 572 LINE",
"202 572 LINE",
"118 563 LINE",
"68 552 LINE",
"46 539 LINE",
"37 534 LINE",
"36 534 LINE",
"35 534 LINE",
"33 533 LINE",
"32 533 LINE",
"30 533 LINE",
"30 534 LINE",
"29 534 LINE",
"28 534 LINE",
"27 535 LINE",
"26 538 LINE",
"24 546 LINE",
"22 551 LINE",
"20 561 LINE",
"19 563 LINE",
"19 566 LINE",
"19 580 LINE",
"48 599 LINE",
"90 613 LINE",
"141 622 LINE",
"185 626 LINE",
"215 628 LINE",
"216 628 LINE",
"266 628 LINE",
"379 606 LINE",
"489 563 LINE",
"590 500 LINE",
"667 417 LINE",
"713 316 LINE",
"713 258 LINE",
"713 204 LINE",
"680 118 LINE",
"621 54 LINE",
"543 10 LINE",
"455 -11 LINE",
"362 -11 LINE",
"318 0 LINE",
"310 3 LINE",
"284 13 LINE",
"260 27 LINE",
"243 48 LINE"
);
}
);
width = 741;
}
);
unicode = 0110;
},
{
glyphname = E;
lastChange = "2016-08-24 09:53:51 +0000";
layers = (
{
layerId = UUID0;
paths = (
{
closed = 1;
nodes = (
"92 556 LINE",
"87 556 LINE",
"85 557 LINE",
"89 548 LINE",
"89 543 LINE",
"89 366 LINE",
"95 358 LINE",
"142 358 LINE",
"206 365 LINE",
"278 378 LINE",
"341 389 LINE",
"382 396 LINE",
"385 394 LINE",
"388 394 LINE",
"404 396 LINE",
"423 396 LINE",
"439 397 LINE",
"442 397 LINE",
"442 374 LINE",
"391 345 LINE",
"313 329 LINE",
"222 320 LINE",
"142 314 LINE",
"87 308 LINE",
"85 300 LINE",
"79 284 LINE",
"74 246 LINE",
"73 206 LINE",
"74 166 LINE",
"74 150 LINE",
"74 146 LINE",
"74 127 LINE",
"74 106 LINE",
"74 88 LINE",
"74 85 LINE",
"79 74 LINE",
"105 65 LINE",
"136 63 LINE",
"165 64 LINE",
"171 64 LINE",
"204 64 LINE",
"271 71 LINE",
"337 78 LINE",
"402 85 LINE",
"436 85 LINE",
"440 85 LINE",
"443 84 LINE",
"451 82 LINE",
"460 78 LINE",
"467 75 LINE",
"469 74 LINE",
"471 74 LINE",
"479 67 LINE",
"479 65 LINE",
"479 48 LINE",
"438 23 LINE",
"375 9 LINE",
"300 1 LINE",
"232 -1 LINE",
"183 -1 LINE",
"177 -1 LINE",
"137 -1 LINE",
"77 13 LINE",
"38 45 LINE",
"19 101 LINE",
"19 142 LINE",
"19 180 LINE",
"29 253 LINE",
"29 292 LINE",
"29 309 LINE",
"19 329 LINE",
"19 342 LINE",
"19 347 LINE",
"21 349 LINE",
"30 364 LINE",
"33 366 LINE",
"33 581 LINE",
"33 598 LINE",
"40 613 LINE",
"65 619 LINE",
"114 617 LINE",
"197 613 LINE",
"319 610 LINE",
"405 612 LINE",
"415 607 LINE",
"436 599 LINE",
"452 586 LINE",
"462 568 LINE",
"462 556 LINE",
"462 553 LINE",
"455 545 LINE",
"452 546 LINE",
"405 564 LINE"
);
}
);
width = 525;
}
);
unicode = 0045;
},
{
glyphname = Eogonek;
lastChange = "2016-08-24 09:53:51 +0000";
layers = (
{
layerId = UUID0;
paths = (
{
closed = 1;
nodes = (
"443 -142 LINE",
"394 -143 LINE",
"314 -135 LINE",
"267 -107 LINE",
"256 -57 LINE",
"273 -13 LINE",
"277 -5 LINE",
"282 1 LINE",
"274 1 LINE",
"267 0 LINE",
"232 -1 LINE",
"208 -1 LINE",
"177 -1 LINE",
"137 -1 LINE",
"77 13 LINE",
"38 45 LINE",
"19 101 LINE",
"19 142 LINE",
"19 180 LINE",
"29 253 LINE",
"29 292 LINE",
"29 309 LINE",
"19 329 LINE",
"19 342 LINE",
"19 347 LINE",
"21 349 LINE",
"30 364 LINE",
"33 366 LINE",
"33 581 LINE",
"33 598 LINE",
"40 613 LINE",
"65 619 LINE",
"114 617 LINE",
"197 613 LINE",
"319 610 LINE",
"405 612 LINE",
"415 607 LINE",
"436 599 LINE",
"452 586 LINE",
"462 568 LINE",
"462 556 LINE",
"462 553 LINE",
"455 545 LINE",
"452 546 LINE",
"405 564 LINE",
"92 556 LINE",
"87 556 LINE",
"85 557 LINE",
"89 548 LINE",
"89 543 LINE",
"89 366 LINE",
"95 358 LINE",
"142 358 LINE",
"206 365 LINE",
"278 378 LINE",
"341 389 LINE",
"382 396 LINE",
"385 394 LINE",
"388 394 LINE",
"404 396 LINE",
"423 396 LINE",
"439 397 LINE",
"442 397 LINE",
"442 374 LINE",
"391 345 LINE",
"313 329 LINE",
"222 320 LINE",
"142 314 LINE",
"87 308 LINE",
"85 300 LINE",
"79 284 LINE",
"74 246 LINE",
"73 206 LINE",
"74 166 LINE",
"74 150 LINE",
"74 136 LINE",
"74 127 LINE",
"74 106 LINE",
"74 97 LINE",
"74 85 LINE",
"79 74 LINE",
"105 65 LINE",
"136 63 LINE",
"165 64 LINE",
"171 64 LINE",
"204 64 LINE",
"271 71 LINE",
"337 78 LINE",
"402 85 LINE",
"436 85 LINE",
"440 85 LINE",
"443 84 LINE",
"451 82 LINE",
"460 78 LINE",
"467 75 LINE",
"469 74 LINE",
"471 74 LINE",
"479 67 LINE",
"479 65 LINE",
"479 48 LINE",
"438 23 LINE",
"405 16 LINE",
"402 16 LINE",
"402 15 LINE",
"344 -8 LINE",
"303 -54 LINE",
"323 -91 LINE",
"400 -112 LINE",
"458 -108 LINE"
);
}
);
width = 525;
}
);
unicode = 0118;
},
{
glyphname = F;
lastChange = "2016-08-24 09:53:51 +0000";
layers = (
{
layerId = UUID0;
paths = (
{
closed = 1;
nodes = (
"188 19 LINE",
"183 45 LINE",
"177 80 LINE",
"175 108 LINE",
"175 132 LINE",
"174 159 LINE",
"170 195 LINE",
"165 222 LINE",
"162 241 LINE",
"142 256 LINE",
"113 257 LINE",
"83 252 LINE",
"57 252 LINE",
"40 265 LINE",
"40 282 LINE",
"40 285 LINE",
"48 292 LINE",
"51 292 LINE",
"68 294 LINE",
"102 295 LINE",
"128 305 LINE",
"145 329 LINE",
"145 353 LINE",
"137 400 LINE",
"139 471 LINE",
"132 516 LINE",
"104 532 LINE",
"68 527 LINE",
"65 527 LINE",
"46 527 LINE",
"24 526 LINE",
"7 526 LINE",
"3 526 LINE",
"1 525 LINE",
"-14 519 LINE",
"-17 518 LINE",
"-18 517 LINE",
"-19 517 LINE",
"-20 517 LINE",
"-21 517 LINE",
"-22 517 LINE",
"-23 517 LINE",
"-24 517 LINE",
"-25 518 LINE",
"-26 520 LINE",
"-33 533 LINE",
"-34 536 LINE",
"-34 540 LINE",
"-21 554 LINE",
"48 576 LINE",
"142 592 LINE",
"253 600 LINE",
"365 599 LINE",
"473 584 LINE",
"557 558 LINE",
"610 515 LINE",
"614 484 LINE",
"584 484 LINE",
"523 500 LINE",
"463 520 LINE",
"401 534 LINE",
"368 534 LINE",
"361 534 LINE",
"329 536 LINE",
"291 537 LINE",
"250 534 LINE",
"215 525 LINE",
"193 509 LINE",
"193 495 LINE",
"193 480 LINE",
"189 429 LINE",
"191 376 LINE",
"203 329 LINE",
"218 318 LINE",
"221 318 LINE",
"230 318 LINE",
"242 317 LINE",
"253 317 LINE",
"256 317 LINE",
"329 323 LINE",
"420 317 LINE",
"458 301 LINE",
"448 278 LINE",
"393 259 LINE",
"293 246 LINE",
"224 247 LINE",
"225 203 LINE",
"229 154 LINE",
"234 126 LINE",
"238 109 LINE",
"244 87 LINE",
"247 48 LINE",
"250 12 LINE",
"235 14 LINE",
"212 15 LINE",
"196 15 LINE",
"188 16 LINE"
);
}
);
width = 515;
}
);
unicode = 0046;
},
{
glyphname = G;
lastChange = "2016-08-24 09:53:51 +0000";
layers = (
{
layerId = UUID0;
paths = (
{
closed = 1;
nodes = (
"464 44 LINE",
"461 44 LINE",
"443 45 LINE",
"440 45 LINE",
"413 45 LINE",
"356 32 LINE",
"300 19 LINE",
"241 6 LINE",
"212 6 LINE",
"171 6 LINE",
"104 34 LINE",
"58 85 LINE",
"32 153 LINE",
"32 194 LINE",
"32 238 LINE",
"69 318 LINE",
"132 390 LINE",
"212 449 LINE",
"300 493 LINE",
"389 520 LINE",
"427 522 LINE",
"446 524 LINE",
"481 515 LINE",
"508 495 LINE",
"523 465 LINE",
"523 445 LINE",
"510 445 LINE",
"484 452 LINE",
"459 461 LINE",
"432 467 LINE",
"417 467 LINE",
"382 467 LINE",
"305 446 LINE",
"229 407 LINE",
"162 353 LINE",
"110 288 LINE",
"80 215 LINE",
"80 176 LINE",
"80 147 LINE",
"106 105 LINE",
"147 77 LINE",
"197 63 LINE",
"221 63 LINE",
"264 63 LINE",
"354 67 LINE",
"429 92 LINE",
"476 145 LINE",
"476 192 LINE",
"476 198 LINE",
"472 224 LINE",
"464 231 LINE",
"286 231 LINE",
"279 231 LINE",
"265 239 LINE",
"254 252 LINE",
"247 267 LINE",
"247 273 LINE",
"247 281 LINE",
"252 298 LINE",
"262 298 LINE",
"271 298 LINE",
"291 291 LINE",
"311 284 LINE",
"330 277 LINE",
"341 277 LINE",
"375 277 LINE",
"441 288 LINE",
"476 288 LINE",
"484 288 LINE",
"502 280 LINE",
"516 268 LINE",
"525 250 LINE",
"525 241 LINE",
"525 -2 LINE",
"527 -4 LINE",
"537 -12 LINE",
"547 -21 LINE",
"557 -29 LINE",
"558 -31 LINE",
"561 -37 LINE",
"554 -51 LINE",
"542 -62 LINE",
"527 -69 LINE",
"521 -69 LINE",
"501 -69 LINE",
"479 -43 LINE",
"467 -8 LINE",
"464 30 LINE"
);
}
);
width = 572;
}
);
unicode = 0047;
},
{
glyphname = H;
lastChange = "2016-08-24 09:53:51 +0000";
layers = (
{
layerId = UUID0;
paths = (
{
closed = 1;
nodes = (
"355 329 LINE",
"347 324 LINE",
"312 309 LINE",
"268 288 LINE",
"219 265 LINE",
"175 244 LINE",
"139 229 LINE",
"131 225 LINE",
"133 29 LINE",
"133 26 LINE",
"119 12 LINE",
"115 10 LINE",
"100 7 LINE",
"87 38 LINE",
"82 89 LINE",
"79 148 LINE",
"68 197 LINE",
"43 224 LINE",
"19 216 LINE",
"19 218 LINE",
"16 228 LINE",
"16 229 LINE",
"16 241 LINE",
"28 250 LINE",
"44 257 LINE",
"57 268 LINE",
"57 282 LINE",
"57 320 LINE",
"51 397 LINE",
"43 476 LINE",
"36 552 LINE",
"36 591 LINE",
"36 594 LINE",
"36 607 LINE",
"37 622 LINE",
"37 635 LINE",
"37 637 LINE",
"40 646 LINE",
"51 648 LINE",
"57 648 LINE",
"62 648 LINE",
"74 646 LINE",
"74 637 LINE",
"112 310 LINE",
"112 308 LINE",
"120 292 LINE",
"122 291 LINE",
"126 291 LINE",
"131 291 LINE",
"136 291 LINE",
"158 298 LINE",
"217 322 LINE",
"320 372 LINE",
"408 415 LINE",
"412 637 LINE",
"412 643 LINE",
"420 657 LINE",
"432 669 LINE",
"443 676 LINE",
"449 676 LINE",
"458 676 LINE",
"469 669 LINE",
"469 656 LINE",
"469 653 LINE",
"461 639 LINE",
"460 637 LINE",
"460 634 LINE",
"459 613 LINE",
"459 591 LINE",
"458 570 LINE",
"458 566 LINE",
"458 484 LINE",
"463 317 LINE",
"469 235 LINE",
"470 226 LINE",
"475 176 LINE",
"480 118 LINE",
"486 67 LINE",
"487 57 LINE",
"487 55 LINE",
"490 47 LINE",
"493 37 LINE",
"496 29 LINE",
"497 28 LINE",
"497 22 LINE",
"497 19 LINE",
"495 17 LINE",
"487 11 LINE",
"479 5 LINE",
"470 0 LINE",
"469 0 LINE",
"455 -3 LINE",
"438 26 LINE",
"428 65 LINE",
"423 104 LINE",
"423 112 LINE",
"423 113 LINE",
"422 142 LINE",
"420 184 LINE",
"417 236 LINE",
"413 288 LINE",
"408 335 LINE",
"405 352 LINE"
);
}
);
width = 525;
}
);
unicode = 0048;
},
{
glyphname = I;
lastChange = "2016-08-24 09:53:51 +0000";
layers = (
{
layerId = UUID0;
paths = (
{
closed = 1;
nodes = (
"94 37 LINE",
"89 73 LINE",
"80 152 LINE",
"71 232 LINE",
"63 312 LINE",
"57 347 LINE",
"54 361 LINE",
"39 411 LINE",
"25 467 LINE",
"15 522 LINE",
"15 546 LINE",
"26 563 LINE",
"50 543 LINE",
"73 489 LINE",
"95 406 LINE",
"114 312 LINE",
"131 213 LINE",
"143 125 LINE",
"150 57 LINE",
"150 39 LINE",
"150 33 LINE",
"150 21 LINE",
"147 11 LINE",
"140 2 LINE",
"131 0 LINE",
"125 -2 LINE",
"112 9 LINE",
"102 22 LINE",
"95 36 LINE"
);
}
);
width = 168;
}
);
unicode = 0049;
},
{
glyphname = Iogonek;
lastChange = "2016-08-24 09:53:51 +0000";
layers = (
{
layerId = UUID0;
paths = (
{
closed = 1;
nodes = (
"183 -142 LINE",
"133 -143 LINE",
"54 -135 LINE",
"6 -107 LINE",
"-5 -57 LINE",
"13 -13 LINE",
"21 1 LINE",
"42 19 LINE",
"68 31 LINE",
"83 36 LINE",
"88 39 LINE",
"93 40 LINE",
"89 74 LINE",
"84 112 LINE",
"80 152 LINE",
"71 232 LINE",
"63 312 LINE",
"57 347 LINE",
"54 361 LINE",
"39 411 LINE",
"25 467 LINE",
"15 522 LINE",
"15 546 LINE",
"26 563 LINE",
"50 543 LINE",
"73 489 LINE",
"95 406 LINE",
"114 312 LINE",
"131 213 LINE",
"143 125 LINE",
"150 57 LINE",
"150 39 LINE",
"150 27 LINE",
"150 21 LINE",
"147 11 LINE",
"140 2 LINE",
"131 0 LINE",
"125 -2 LINE",
"118 4 LINE",
"118 4 LINE",
"117 4 LINE",
"77 -13 LINE",
"63 -30 LINE",
"42 -54 LINE",
"63 -91 LINE",
"140 -112 LINE",
"197 -108 LINE"
);
}
);
width = 168;
}
);
unicode = 012E;
},
{
glyphname = J;
lastChange = "2016-08-24 09:53:51 +0000";
layers = (
{
layerId = UUID0;
paths = (
{
closed = 1;
nodes = (
"317 -1 LINE",
"276 7 LINE",
"208 51 LINE",
"147 108 LINE",
"92 174 LINE",
"65 206 LINE",
"57 216 LINE",
"42 235 LINE",
"29 259 LINE",
"21 288 LINE",
"21 308 LINE",
"21 325 LINE",
"48 354 LINE",
"68 354 LINE",
"80 349 LINE",
"73 336 LINE",
"68 326 LINE",
"68 321 LINE",
"68 296 LINE",
"95 236 LINE",
"137 177 LINE",
"191 122 LINE",
"247 80 LINE",
"302 56 LINE",
"323 56 LINE",
"335 56 LINE",
"350 82 LINE",
"359 122 LINE",
"364 170 LINE",
"366 213 LINE",
"366 245 LINE",
"366 250 LINE",
"366 256 LINE",
"366 275 LINE",
"365 294 LINE",
"365 309 LINE",
"365 310 LINE",
"313 676 LINE",
"325 706 LINE",
"347 700 LINE",
"367 650 LINE",
"386 567 LINE",
"401 473 LINE",
"413 376 LINE",
"420 299 LINE",
"423 251 LINE",
"421 253 LINE",
"422 238 LINE",
"421 188 LINE",
"415 132 LINE",
"402 74 LINE",
"379 28 LINE",
"343 -1 LINE"
);
}
);
width = 440;
}
);
unicode = 004A;
},
{
glyphname = K;
lastChange = "2016-08-24 09:53:51 +0000";
layers = (
{
layerId = UUID0;
paths = (
{
closed = 1;
nodes = (
"385 10 LINE",
"369 21 LINE",
"320 55 LINE",
"265 92 LINE",
"206 131 LINE",
"154 170 LINE",
"112 207 LINE",
"102 224 LINE",
"98 207 LINE",
"101 159 LINE",
"107 109 LINE",
"115 61 LINE",
"115 21 LINE",
"105 -2 LINE",
"92 -2 LINE",
"77 -2 LINE",
"60 37 LINE",
"51 98 LINE",
"47 170 LINE",
"47 234 LINE",
"48 283 LINE",
"48 291 LINE",
"46 322 LINE",
"36 391 LINE",
"26 461 LINE",
"19 528 LINE",
"19 559 LINE",
"19 561 LINE",
"21 569 LINE",
"27 578 LINE",
"36 584 LINE",
"40 584 LINE",
"49 584 LINE",
"58 572 LINE",
"63 556 LINE",
"64 539 LINE",
"65 534 LINE",
"70 520 LINE",
"74 476 LINE",
"79 427 LINE",
"83 376 LINE",
"87 352 LINE",
"100 364 LINE",
"134 410 LINE",
"175 463 LINE",
"221 517 LINE",
"268 561 LINE",
"314 587 LINE",
"338 586 LINE",
"344 579 LINE",
"338 561 LINE",
"320 537 LINE",
"294 511 LINE",
"281 497 LINE",
"261 473 LINE",
"212 422 LINE",
"165 370 LINE",
"124 321 LINE",
"112 300 LINE",
"140 262 LINE",
"209 197 LINE",
"285 139 LINE",
"366 87 LINE",
"405 62 LINE",
"417 58 LINE",
"435 42 LINE",
"444 23 LINE",
"443 7 LINE",
"431 -3 LINE",
"405 -1 LINE"
);
}
);
width = 469;
}
);
unicode = 004B;
},
{
glyphname = L;
lastChange = "2016-08-24 09:53:51 +0000";
layers = (
{
layerId = UUID0;
paths = (
{
closed = 1;
nodes = (
"19 158 LINE",
"21 192 LINE",
"25 279 LINE",
"33 366 LINE",
"43 447 LINE",
"57 508 LINE",
"73 540 LINE",
"83 535 LINE",
"98 534 LINE",
"105 494 LINE",
"103 430 LINE",
"91 348 LINE",
"80 262 LINE",
"72 177 LINE",
"74 142 LINE",
"74 132 LINE",
"81 109 LINE",
"93 90 LINE",
"111 75 LINE",
"122 74 LINE",
"318 57 LINE",
"327 56 LINE",
"329 38 LINE",
"329 33 LINE",
"329 16 LINE",
"309 4 LINE",
"291 0 LINE",
"287 0 LINE",
"267 -1 LINE",
"244 -2 LINE",
"224 -2 LINE",
"221 -2 LINE",
"175 -2 LINE",
"101 12 LINE",
"48 48 LINE",
"19 109 LINE"
);
}
);
width = 347;
}
);
unicode = 004C;
},
{
glyphname = Lslash;
lastChange = "2016-08-24 09:53:51 +0000";
layers = (
{
layerId = UUID0;
paths = (
{
closed = 1;
nodes = (
"66 235 LINE",
"68 271 LINE",
"74 346 LINE",
"83 417 LINE",
"92 480 LINE",
"104 525 LINE",
"119 549 LINE",
"128 544 LINE",
"144 543 LINE",
"150 493 LINE",
"145 415 LINE",
"130 318 LINE",
"125 271 LINE",
"174 300 LINE",
"174 295 LINE",
"186 277 LINE",
"196 262 LINE",
"203 249 LINE",
"197 249 LINE",
"187 241 LINE",
"172 227 LINE",
"156 212 LINE",
"136 197 LINE",
"119 188 LINE",
"118 177 LINE",
"119 158 LINE",
"120 150 LINE",
"120 141 LINE",
"126 118 LINE",
"139 99 LINE",
"156 85 LINE",
"167 84 LINE",
"364 65 LINE",
"372 64 LINE",
"374 48 LINE",
"374 42 LINE",
"374 24 LINE",
"353 13 LINE",
"336 9 LINE",
"332 9 LINE",
"312 8 LINE",
"289 7 LINE",
"270 7 LINE",
"265 7 LINE",
"221 7 LINE",
"147 20 LINE",
"95 54 LINE",
"63 113 LINE",
"63 159 LINE",
"54 156 LINE",
"34 148 LINE",
"24 145 LINE",
"12 200 LINE"
);
}
);
width = 347;
}
);
unicode = 0141;
},
{
glyphname = M;
lastChange = "2016-08-24 09:53:51 +0000";
layers = (
{
layerId = UUID0;
paths = (
{
closed = 1;
nodes = (
"440 19 LINE",
"439 29 LINE",
"435 71 LINE",
"429 125 LINE",
"423 185 LINE",
"417 238 LINE",
"413 280 LINE",
"412 291 LINE",
"411 300 LINE",
"411 330 LINE",
"406 361 LINE",
"396 388 LINE",
"385 394 LINE",
"350 375 LINE",
"279 355 LINE",
"240 355 LINE",
"183 355 LINE",
"125 426 LINE",
"121 426 LINE",
"118 414 LINE",
"116 398 LINE",
"117 381 LINE",
"117 375 LINE",
"116 48 LINE",
"116 42 LINE",
"109 34 LINE",
"100 30 LINE",
"89 27 LINE",
"84 27 LINE",
"68 27 LINE",
"58 54 LINE",
"56 66 LINE",
"56 206 LINE",
"56 271 LINE",
"66 396 LINE",
"66 461 LINE",
"66 480 LINE",
"51 512 LINE",
"33 542 LINE",
"19 572 LINE",
"19 591 LINE",
"19 610 LINE",
"38 610 LINE",
"63 610 LINE",
"95 582 LINE",
"121 540 LINE",
"145 490 LINE",
"177 449 LINE",
"218 420 LINE",
"250 420 LINE",
"289 418 LINE",
"341 446 LINE",
"373 490 LINE",
"394 542 LINE",
"409 586 LINE",
"427 613 LINE",
"440 610 LINE",
"452 611 LINE",
"463 599 LINE",
"469 578 LINE",
"470 559 LINE",
"470 555 LINE",
"470 518 LINE",
"458 450 LINE",
"458 412 LINE",
"458 362 LINE",
"473 265 LINE",
"491 166 LINE",
"506 68 LINE",
"506 19 LINE",
"506 11 LINE",
"502 2 LINE",
"494 -2 LINE",
"484 -2 LINE",
"479 -2 LINE",
"466 -2 LINE",
"445 3 LINE"
);
}
);
width = 534;
}
);
unicode = 004D;
},
{
glyphname = N;
lastChange = "2016-08-24 09:53:51 +0000";
layers = (
{
layerId = UUID0;
paths = (
{
closed = 1;
nodes = (
"28 60 LINE",
"28 105 LINE",
"34 197 LINE",
"42 288 LINE",
"48 378 LINE",
"48 423 LINE",
"48 449 LINE",
"38 496 LINE",
"38 521 LINE",
"38 525 LINE",
"40 525 LINE",
"51 528 LINE",
"63 531 LINE",
"73 534 LINE",
"75 534 LINE",
"85 534 LINE",
"93 499 LINE",
"119 402 LINE",
"156 300 LINE",
"207 200 LINE",
"273 121 LINE",
"355 73 LINE",
"406 74 LINE",
"437 74 LINE",
"481 95 LINE",
"512 130 LINE",
"526 180 LINE",
"526 209 LINE",
"526 247 LINE",
"496 312 LINE",
"461 373 LINE",
"431 434 LINE",
"431 469 LINE",
"431 481 LINE",
"437 498 LINE",
"450 498 LINE",
"466 498 LINE",
"498 463 LINE",
"527 408 LINE",
"553 341 LINE",
"572 274 LINE",
"583 218 LINE",
"583 201 LINE",
"583 159 LINE",
"556 89 LINE",
"506 38 LINE",
"437 10 LINE",
"395 10 LINE",
"349 10 LINE",
"275 45 LINE",
"218 101 LINE",
"174 163 LINE",
"142 218 LINE",
"120 254 LINE",
"113 254 LINE",
"101 254 LINE",
"89 236 LINE",
"84 212 LINE",
"84 187 LINE",
"84 180 LINE",
"84 148 LINE",
"95 95 LINE",
"95 64 LINE",
"95 58 LINE",
"93 36 LINE",
"86 15 LINE",
"72 -1 LINE",
"62 -1 LINE",
"52 -1 LINE",
"39 13 LINE",
"31 32 LINE",
"28 53 LINE"
);
}
);
width = 610;
}
);
unicode = 004E;
},
{
glyphname = O;
lastChange = "2016-08-24 09:53:51 +0000";
layers = (
{
layerId = UUID0;
paths = (
{
closed = 1;
nodes = (
"19 272 LINE",
"16 314 LINE",
"42 390 LINE",
"92 446 LINE",
"162 481 LINE",
"204 484 LINE",
"277 474 LINE",
"411 421 LINE",
"514 339 LINE",
"578 229 LINE",
"582 161 LINE",
"572 110 LINE",
"511 52 LINE",
"429 19 LINE",
"337 5 LINE",
"297 -1 LINE",
"236 -1 LINE",
"134 39 LINE",
"60 109 LINE",
"19 211 LINE"
);
},
{
closed = 1;
nodes = (
"64 276 LINE",
"63 232 LINE",
"104 154 LINE",
"168 95 LINE",
"248 57 LINE",
"288 51 LINE",
"301 51 LINE",
"347 56 LINE",
"399 66 LINE",
"453 85 LINE",
"497 111 LINE",
"525 147 LINE",
"525 171 LINE",
"519 219 LINE",
"473 296 LINE",
"406 354 LINE",
"328 396 LINE",
"252 420 LINE",
"186 427 LINE",
"164 423 LINE",
"134 412 LINE",
"95 378 LINE",
"73 338 LINE",
"64 297 LINE"
);
}
);
width = 610;
}
);
unicode = 004F;
},
{
glyphname = Oslash;
lastChange = "2016-08-24 09:53:51 +0000";
layers = (
{
layerId = UUID0;
paths = (
{
closed = 1;
nodes = (
"124 -68 LINE",
"124 -55 LINE",
"137 -14 LINE",
"146 7 LINE",
"151 20 LINE",
"156 31 LINE",
"123 49 LINE",
"97 74 LINE",
"60 109 LINE",
"19 211 LINE",
"19 272 LINE",
"16 314 LINE",
"42 390 LINE",
"92 446 LINE",
"162 481 LINE",
"204 484 LINE",
"263 476 LINE",
"317 457 LINE",
"340 518 LINE",
"343 531 LINE",
"349 572 LINE",
"358 612 LINE",
"374 645 LINE",
"387 648 LINE",
"396 646 LINE",
"403 637 LINE",
"406 624 LINE",
"405 610 LINE",
"405 604 LINE",
"405 590 LINE",
"388 513 LINE",
"372 460 LINE",
"369 449 LINE",
"366 438 LINE",
"420 414 LINE",
"462 380 LINE",
"514 339 LINE",
"578 229 LINE",
"582 161 LINE",
"572 110 LINE",
"511 52 LINE",
"429 19 LINE",
"337 5 LINE",
"297 -1 LINE",
"254 -1 LINE",
"215 9 LINE",
"213 3 LINE",
"210 -2 LINE",
"191 -47 LINE",
"160 -102 LINE",
"152 -102 LINE",
"140 -102 LINE",
"124 -78 LINE"
);
},
{
closed = 1;
nodes = (
"288 51 LINE",
"301 51 LINE",
"347 56 LINE",
"399 66 LINE",
"453 85 LINE",
"497 111 LINE",
"525 147 LINE",
"525 171 LINE",
"519 219 LINE",
"473 296 LINE",
"406 354 LINE",
"367 375 LINE",
"350 384 LINE",
"344 365 LINE",
"337 346 LINE",
"317 284 LINE",
"273 159 LINE",
"252 101 LINE",
"244 81 LINE",
"238 63 LINE",
"263 55 LINE"
);
},
{
closed = 1;
nodes = (
"64 276 LINE",
"63 232 LINE",
"104 154 LINE",
"136 124 LINE",
"158 104 LINE",
"184 89 LINE",
"299 404 LINE",
"290 407 LINE",
"252 420 LINE",
"186 427 LINE",
"164 423 LINE",
"134 412 LINE",
"95 378 LINE",
"73 338 LINE",
"64 297 LINE"
);
}
);
width = 610;
}
);
unicode = 00D8;
},
{
glyphname = Oslashacute;
lastChange = "2016-08-24 09:53:51 +0000";
layers = (
{
layerId = UUID0;
paths = (
{
closed = 1;
nodes = (
"162 -63 LINE",
"162 -52 LINE",
"174 -19 LINE",
"182 -1 LINE",
"186 8 LINE",
"189 17 LINE",
"188 19 LINE",
"186 19 LINE",
"134 39 LINE",
"60 109 LINE",
"19 211 LINE",
"19 272 LINE",
"16 314 LINE",
"42 390 LINE",
"92 446 LINE",
"162 481 LINE",
"204 484 LINE",
"277 474 LINE",
"344 447 LINE",
"357 441 LINE",
"360 458 LINE",
"369 490 LINE",
"383 517 LINE",
"394 520 LINE",
"402 518 LINE",
"408 511 LINE",
"411 499 LINE",
"411 487 LINE",
"411 483 LINE",
"411 472 LINE",
"402 440 LINE",
"400 432 LINE",
"397 422 LINE",
"433 403 LINE",
"462 380 LINE",
"514 339 LINE",
"578 229 LINE",
"582 161 LINE",
"572 110 LINE",
"511 52 LINE",
"429 19 LINE",
"337 5 LINE",
"297 -1 LINE",
"271 -1 LINE",
"244 3 LINE",
"238 -9 LINE",
"222 -46 LINE",
"194 -90 LINE",
"188 -90 LINE",
"177 -90 LINE",
"162 -71 LINE"
);
},
{
closed = 1;
nodes = (
"64 276 LINE",
"63 232 LINE",
"104 154 LINE",
"168 95 LINE",
"208 76 LINE",
"213 74 LINE",
"218 71 LINE",
"343 387 LINE",
"316 399 LINE",
"290 407 LINE",
"252 420 LINE",
"186 427 LINE",
"164 423 LINE",
"134 412 LINE",
"95 378 LINE",
"73 338 LINE",
"64 297 LINE"
);
},
{
closed = 1;
nodes = (
"288 51 LINE",
"301 51 LINE",
"347 56 LINE",
"399 66 LINE",
"453 85 LINE",
"497 111 LINE",
"525 147 LINE",
"525 171 LINE",
"519 219 LINE",
"473 296 LINE",
"439 325 LINE",
"412 349 LINE",
"382 367 LINE",
"382 366 LINE",
"368 323 LINE",
"332 224 LINE",
"294 121 LINE",
"274 74 LINE",
"271 64 LINE",
"267 55 LINE",
"277 53 LINE"
);
},
{
closed = 1;
nodes = (
"208 566 LINE",
"208 587 LINE",
"239 625 LINE",
"282 657 LINE",
"329 687 LINE",
"344 699 LINE",
"364 689 LINE",
"359 662 LINE",
"323 625 LINE",
"265 575 LINE",
"232 543 LINE",
"218 543 LINE",
"208 553 LINE"
);
}
);
width = 610;
}
);
unicode = 01FE;
},
{
glyphname = OE;
lastChange = "2016-08-24 09:53:51 +0000";
layers = (
{
layerId = UUID0;
paths = (
{
closed = 1;
nodes = (
"443 425 LINE",
"438 425 LINE",
"437 426 LINE",
"440 417 LINE",
"440 415 LINE",
"440 280 LINE",
"446 275 LINE",
"493 274 LINE",
"558 280 LINE",
"631 289 LINE",
"693 298 LINE",
"736 303 LINE",
"738 302 LINE",
"741 302 LINE",
"758 303 LINE",
"776 304 LINE",
"793 305 LINE",
"796 305 LINE",
"796 291 LINE",
"766 271 LINE",
"716 259 LINE",
"653 251 LINE",
"587 246 LINE",
"522 243 LINE",
"471 239 LINE",
"438 234 LINE",
"437 229 LINE",
"432 218 LINE",
"427 188 LINE",
"426 158 LINE",
"426 128 LINE",
"426 115 LINE",
"426 105 LINE",
"426 98 LINE",
"427 82 LINE",
"427 74 LINE",
"427 65 LINE",
"431 58 LINE",
"457 51 LINE",
"487 50 LINE",
"517 51 LINE",
"523 51 LINE",
"590 51 LINE",
"723 65 LINE",
"789 65 LINE",
"795 65 LINE",
"799 65 LINE",
"820 60 LINE",
"822 59 LINE",
"824 58 LINE",
"833 54 LINE",
"833 52 LINE",
"833 38 LINE",
"792 19 LINE",
"729 8 LINE",
"653 2 LINE",
"586 1 LINE",
"561 1 LINE",
"528 1 LINE",
"477 1 LINE",
"406 19 LINE",
"388 42 LINE",
"377 24 LINE",
"335 7 LINE",
"297 2 LINE",
"236 2 LINE",
"134 42 LINE",
"60 113 LINE",
"19 214 LINE",
"19 275 LINE",
"16 317 LINE",
"42 393 LINE",
"92 449 LINE",
"162 484 LINE",
"204 487 LINE",
"241 481 LINE",
"300 463 LINE",
"343 437 LINE",
"373 402 LINE",
"384 382 LINE",
"384 443 LINE",
"384 455 LINE",
"391 468 LINE",
"417 473 LINE",
"466 472 LINE",
"549 470 LINE",
"672 467 LINE",
"760 468 LINE",
"769 465 LINE",
"789 458 LINE",
"806 448 LINE",
"815 435 LINE",
"815 425 LINE",
"815 423 LINE",
"809 417 LINE",
"807 417 LINE",
"760 432 LINE"
);
},
{
closed = 1;
nodes = (
"64 279 LINE",
"63 235 LINE",
"104 157 LINE",
"168 98 LINE",
"248 60 LINE",
"288 54 LINE",
"308 54 LINE",
"340 77 LINE",
"362 117 LINE",
"375 175 LINE",
"375 210 LINE",
"365 282 LINE",
"321 372 LINE",
"263 420 LINE",
"196 432 LINE",
"164 426 LINE",
"134 415 LINE",
"95 381 LINE",
"73 341 LINE",
"64 300 LINE"
);
}
);
width = 849;
}
);
unicode = 0152;
},
{
glyphname = P;
lastChange = "2016-08-24 09:53:51 +0000";
layers = (
{
layerId = UUID0;
paths = (
{
closed = 1;
nodes = (
"300 0 LINE",
"286 24 LINE",
"269 102 LINE",
"256 186 LINE",
"248 260 LINE",
"244 281 LINE",
"244 449 LINE",
"244 461 LINE",
"262 479 LINE",
"272 479 LINE",
"273 479 LINE",
"280 479 LINE",
"281 479 LINE",
"285 452 LINE",
"288 396 LINE",
"292 342 LINE",
"300 288 LINE",
"310 262 LINE",
"326 259 LINE",
"361 255 LINE",
"385 253 LINE",
"410 253 LINE",
"470 271 LINE",
"521 302 LINE",
"555 347 LINE",
"555 376 LINE",
"555 406 LINE",
"514 455 LINE",
"449 492 LINE",
"371 520 LINE",
"296 536 LINE",
"231 544 LINE",
"214 544 LINE",
"208 544 LINE",
"177 546 LINE",
"139 545 LINE",
"104 540 LINE",
"94 534 LINE",
"85 529 LINE",
"70 505 LINE",
"57 479 LINE",
"42 458 LINE",
"33 458 LINE",
"31 458 LINE",
"30 459 LINE",
"30 459 LINE",
"28 460 LINE",
"27 461 LINE",
"24 465 LINE",
"21 480 LINE",
"19 510 LINE",
"19 534 LINE",
"19 546 LINE",
"40 563 LINE",
"74 578 LINE",
"113 589 LINE",
"149 596 LINE",
"177 600 LINE",
"183 600 LINE",
"215 600 LINE",
"305 592 LINE",
"399 571 LINE",
"492 537 LINE",
"564 487 LINE",
"610 417 LINE",
"610 370 LINE",
"615 338 LINE",
"582 282 LINE",
"524 238 LINE",
"452 206 LINE",
"384 188 LINE",
"329 183 LINE",
"318 188 LINE",
"318 179 LINE",
"318 145 LINE",
"329 78 LINE",
"329 44 LINE",
"329 40 LINE",
"328 23 LINE",
"321 8 LINE",
"310 -2 LINE"
);
}
);
width = 628;
}
);
unicode = 0050;
},
{
glyphname = Thorn;
lastChange = "2016-08-24 09:53:51 +0000";
layers = (
{
layerId = UUID0;
paths = (
{
closed = 1;
nodes = (
"114 597 LINE",
"115 587 LINE",
"115 538 LINE",
"111 478 LINE",
"107 412 LINE",
"105 358 LINE",
"106 325 LINE",
"111 326 LINE",
"129 326 LINE",
"163 338 LINE",
"183 338 LINE",
"212 338 LINE",
"278 327 LINE",
"344 306 LINE",
"405 271 LINE",
"451 227 LINE",
"479 168 LINE",
"479 133 LINE",
"479 88 LINE",
"435 34 LINE",
"366 7 LINE",
"286 -1 LINE",
"250 -1 LINE",
"239 -1 LINE",
"202 12 LINE",
"162 27 LINE",
"127 42 LINE",
"120 45 LINE",
"132 -156 LINE",
"77 -135 LINE",
"57 300 LINE",
"57 303 LINE",
"54 334 LINE",
"53 379 LINE",
"51 435 LINE",
"49 490 LINE",
"49 544 LINE",
"51 585 LINE",
"54 609 LINE",
"57 608 LINE"
);
},
{
closed = 1;
nodes = (
"122 212 LINE",
"112 170 LINE",
"142 106 LINE",
"200 67 LINE",
"275 52 LINE",
"350 63 LINE",
"409 99 LINE",
"423 131 LINE",
"423 157 LINE",
"399 200 LINE",
"360 233 LINE",
"311 258 LINE",
"259 273 LINE",
"208 282 LINE",
"188 282 LINE",
"156 282 LINE",
"122 244 LINE"
);
}
);
width = 497;
}
);
unicode = 00DE;
},
{
glyphname = Q;
lastChange = "2016-08-24 09:53:51 +0000";
layers = (
{
layerId = UUID0;
paths = (
{
closed = 1;
nodes = (
"420 12 LINE",
"417 12 LINE",
"400 11 LINE",
"399 11 LINE",
"396 10 LINE",
"375 7 LINE",
"350 4 LINE",
"327 1 LINE",
"324 1 LINE",
"320 1 LINE",
"262 -4 LINE",
"153 36 LINE",
"72 112 LINE",
"24 215 LINE",
"24 273 LINE",
"24 287 LINE",
"24 334 LINE",
"60 424 LINE",
"120 494 LINE",
"203 537 LINE",
"252 537 LINE",
"284 537 LINE",
"363 505 LINE",
"444 452 LINE",
"521 382 LINE",
"581 308 LINE",
"616 232 LINE",
"616 199 LINE",
"616 173 LINE",
"600 129 LINE",
"571 93 LINE",
"533 63 LINE",
"512 49 LINE",
"512 39 LINE",
"512 21 LINE",
"532 -7 LINE",
"563 -28 LINE",
"600 -48 LINE",
"631 -65 LINE",
"653 -83 LINE",
"654 -93 LINE",
"633 -113 LINE",
"595 -113 LINE",
"558 -89 LINE",
"522 -49 LINE",
"484 -12 LINE",
"443 13 LINE"
);
},
{
closed = 1;
nodes = (
"80 273 LINE",
"77 228 LINE",
"109 150 LINE",
"171 95 LINE",
"253 64 LINE",
"297 65 LINE",
"306 65 LINE",
"326 65 LINE",
"343 71 LINE",
"353 85 LINE",
"353 100 LINE",
"349 118 LINE",
"324 157 LINE",
"305 192 LINE",
"299 223 LINE",
"313 232 LINE",
"328 232 LINE",
"361 197 LINE",
"394 151 LINE",
"425 106 LINE",
"438 95 LINE",
"438 95 LINE",
"449 95 LINE",
"451 95 LINE",
"464 95 LINE",
"504 111 LINE",
"541 137 LINE",
"568 169 LINE",
"568 185 LINE",
"568 205 LINE",
"555 245 LINE",
"533 282 LINE",
"507 315 LINE",
"493 330 LINE",
"485 338 LINE",
"461 364 LINE",
"435 388 LINE",
"414 405 LINE",
"409 405 LINE",
"408 382 LINE",
"394 339 LINE",
"381 320 LINE",
"380 320 LINE",
"377 319 LINE",
"376 319 LINE",
"374 319 LINE",
"373 319 LINE",
"372 320 LINE",
"371 320 LINE",
"363 324 LINE",
"354 329 LINE",
"346 335 LINE",
"346 335 LINE",
"363 379 LINE",
"354 433 LINE",
"317 464 LINE",
"265 476 LINE",
"218 477 LINE",
"184 472 LINE",
"185 470 LINE",
"151 458 LINE",
"110 417 LINE",
"88 364 LINE",
"80 304 LINE"
);
}
);
width = 643;
}
);
unicode = 0051;
},
{
glyphname = R;
lastChange = "2016-08-24 09:53:51 +0000";
layers = (
{
layerId = UUID0;
paths = (
{
closed = 1;
nodes = (
"193 217 LINE",
"200 173 LINE",
"218 100 LINE",
"229 45 LINE",
"224 12 LINE",
"206 7 LINE",
"204 1 LINE",
"193 27 LINE",
"178 79 LINE",
"160 151 LINE",
"144 232 LINE",
"130 317 LINE",
"121 396 LINE",
"121 461 LINE",
"127 481 LINE",
"139 490 LINE",
"157 482 LINE",
"168 463 LINE",
"171 438 LINE",
"168 427 LINE",
"169 423 LINE",
"174 401 LINE",
"180 377 LINE",
"186 355 LINE",
"188 352 LINE",
"201 353 LINE",
"255 360 LINE",
"317 373 LINE",
"382 391 LINE",
"436 414 LINE",
"470 445 LINE",
"470 464 LINE",
"470 466 LINE",
"469 473 LINE",
"469 473 LINE",
"440 505 LINE",
"385 543 LINE",
"321 562 LINE",
"251 567 LINE",
"211 567 LINE",
"182 567 LINE",
"117 566 LINE",
"63 551 LINE",
"28 510 LINE",
"28 470 LINE",
"20 470 LINE",
"6 481 LINE",
"-5 499 LINE",
"-11 518 LINE",
"-11 524 LINE",
"-11 538 LINE",
"2 563 LINE",
"21 582 LINE",
"45 599 LINE",
"57 604 LINE",
"87 610 LINE",
"136 618 LINE",
"179 622 LINE",
"223 624 LINE",
"250 624 LINE",
"276 624 LINE",
"338 615 LINE",
"399 598 LINE",
"456 569 LINE",
"500 529 LINE",
"525 478 LINE",
"525 445 LINE",
"525 417 LINE",
"490 374 LINE",
"432 343 LINE",
"360 321 LINE",
"289 305 LINE",
"227 292 LINE",
"206 285 LINE",
"256 218 LINE",
"352 124 LINE",
"436 60 LINE",
"504 19 LINE",
"546 -8 LINE",
"558 -24 LINE",
"544 -34 LINE",
"533 -47 LINE",
"484 -33 LINE",
"421 7 LINE",
"349 65 LINE",
"278 130 LINE",
"215 193 LINE"
);
}
);
width = 579;
}
);
unicode = 0052;
},
{
glyphname = S;
lastChange = "2016-08-24 09:53:51 +0000";
layers = (
{
layerId = UUID0;
paths = (
{
closed = 1;
nodes = (
"19 174 LINE",
"19 183 LINE",
"27 206 LINE",
"41 227 LINE",
"60 240 LINE",
"71 240 LINE",
"71 177 LINE",
"116 104 LINE",
"194 64 LINE",
"298 51 LINE",
"355 48 LINE",
"376 48 LINE",
"438 50 LINE",
"497 63 LINE",
"538 92 LINE",
"537 122 LINE",
"537 136 LINE",
"535 157 LINE",
"528 174 LINE",
"512 188 LINE",
"497 197 LINE",
"206 355 LINE",
"190 364 LINE",
"162 391 LINE",
"142 423 LINE",
"130 458 LINE",
"130 476 LINE",
"130 513 LINE",
"171 561 LINE",
"230 589 LINE",
"300 601 LINE",
"329 601 LINE",
"343 601 LINE",
"386 596 LINE",
"435 586 LINE",
"481 569 LINE",
"520 546 LINE",
"544 514 LINE",
"544 492 LINE",
"530 484 LINE",
"502 490 LINE",
"473 505 LINE",
"441 525 LINE",
"408 545 LINE",
"370 557 LINE",
"351 555 LINE",
"332 555 LINE",
"273 551 LINE",
"218 536 LINE",
"177 505 LINE",
"177 479 LINE",
"177 452 LINE",
"215 408 LINE",
"278 368 LINE",
"357 332 LINE",
"438 294 LINE",
"516 253 LINE",
"573 204 LINE",
"604 147 LINE",
"601 112 LINE",
"596 77 LINE",
"545 27 LINE",
"467 -1 LINE",
"370 -10 LINE",
"270 0 LINE",
"170 27 LINE",
"88 73 LINE",
"29 135 LINE"
);
}
);
width = 628;
}
);
unicode = 0053;
},
{
glyphname = Scedilla;
lastChange = "2016-08-24 09:53:51 +0000";
layers = (
{
layerId = UUID0;
paths = (
{
closed = 1;
nodes = (
"183 -211 LINE",
"188 -206 LINE",
"199 -204 LINE",
"206 -204 LINE",
"223 -204 LINE",
"252 -222 LINE",
"279 -243 LINE",
"306 -262 LINE",
"320 -262 LINE",
"336 -262 LINE",
"363 -263 LINE",
"382 -255 LINE",
"392 -233 LINE",
"392 -210 LINE",
"393 -187 LINE",
"376 -161 LINE",
"350 -147 LINE",
"314 -142 LINE",
"278 -134 LINE",
"243 -122 LINE",
"215 -97 LINE",
"198 -55 LINE",
"197 -21 LINE",
"199 5 LINE",
"203 16 LINE",
"205 19 LINE",
"163 30 LINE",
"129 51 LINE",
"88 73 LINE",
"29 135 LINE",
"19 174 LINE",
"19 183 LINE",
"27 206 LINE",
"41 227 LINE",
"60 240 LINE",
"71 240 LINE",
"71 177 LINE",
"116 104 LINE",
"194 64 LINE",
"298 51 LINE",
"355 48 LINE",
"376 48 LINE",
"438 50 LINE",
"497 63 LINE",
"538 92 LINE",
"537 122 LINE",
"537 136 LINE",
"535 157 LINE",
"528 174 LINE",
"512 188 LINE",
"497 197 LINE",
"206 355 LINE",
"190 364 LINE",
"162 391 LINE",
"142 423 LINE",
"130 458 LINE",
"130 476 LINE",
"130 513 LINE",
"171 561 LINE",
"230 589 LINE",
"300 601 LINE",
"329 601 LINE",
"343 601 LINE",
"386 596 LINE",
"435 586 LINE",
"481 569 LINE",
"520 546 LINE",
"544 514 LINE",
"544 492 LINE",
"530 484 LINE",
"502 490 LINE",
"473 505 LINE",
"441 525 LINE",
"408 545 LINE",
"370 557 LINE",
"351 555 LINE",
"332 555 LINE",
"273 551 LINE",
"218 536 LINE",
"177 505 LINE",
"177 479 LINE",
"177 452 LINE",
"215 408 LINE",
"278 368 LINE",
"357 332 LINE",
"438 294 LINE",
"516 253 LINE",
"573 204 LINE",
"604 147 LINE",
"601 112 LINE",
"596 77 LINE",
"545 27 LINE",
"467 -1 LINE",
"370 -10 LINE",
"320 -5 LINE",
"277 -1 LINE",
"235 10 LINE",
"238 5 LINE",
"240 0 LINE",
"244 -10 LINE",
"247 -29 LINE",
"242 -34 LINE",
"242 -64 LINE",
"272 -91 LINE",
"317 -103 LINE",
"370 -108 LINE",
"414 -129 LINE",
"444 -172 LINE",
"444 -214 LINE",
"444 -237 LINE",
"420 -272 LINE",
"382 -295 LINE",
"337 -307 LINE",
"317 -307 LINE",
"288 -307 LINE",
"251 -290 LINE",
"224 -264 LINE",
"198 -229 LINE"
);
}
);
width = 628;
}
);
unicode = 015E;
},
{
glyphname = T;
lastChange = "2016-08-24 09:53:51 +0000";
layers = (
{
layerId = UUID0;
paths = (
{
closed = 1;
nodes = (
"309 543 LINE",
"239 543 LINE",
"95 562 LINE",
"28 572 LINE",
"20 570 LINE",
"10 579 LINE",
"4 593 LINE",
"3 607 LINE",
"3 611 LINE",
"18 611 LINE",
"89 610 LINE",
"188 609 LINE",
"305 604 LINE",
"422 598 LINE",
"531 587 LINE",
"616 570 LINE",
"666 549 LINE",
"666 535 LINE",
"666 525 LINE",
"660 505 LINE",
"648 505 LINE",
"612 508 LINE",
"542 525 LINE",
"472 542 LINE",
"398 549 LINE",
"360 537 LINE",
"360 492 LINE",
"370 385 LINE",
"386 273 LINE",
"404 162 LINE",
"413 112 LINE",
"415 101 LINE",
"428 76 LINE",
"440 54 LINE",
"451 30 LINE",
"451 19 LINE",
"451 10 LINE",
"441 2 LINE",
"428 -1 LINE",
"412 -1 LINE",
"407 -1 LINE",
"388 -1 LINE",
"365 30 LINE",
"354 72 LINE",
"350 117 LINE",
"347 131 LINE",
"339 185 LINE",
"328 285 LINE",
"319 386 LINE",
"313 488 LINE"
);
}
);
width = 581;
}
);
unicode = 0054;
},
{
glyphname = U;
lastChange = "2016-08-24 09:53:51 +0000";
layers = (
{
layerId = UUID0;
paths = (
{
closed = 1;
nodes = (
"27 381 LINE",
"27 390 LINE",
"28 420 LINE",
"31 456 LINE",
"39 494 LINE",
"54 524 LINE",
"77 544 LINE",
"95 544 LINE",
"105 544 LINE",
"117 532 LINE",
"118 516 LINE",
"106 496 LINE",
"95 487 LINE",
"86 487 LINE",
"77 462 LINE",
"74 431 LINE",
"74 401 LINE",
"74 398 LINE",
"74 373 LINE",
"78 307 LINE",
"90 235 LINE",
"112 165 LINE",
"147 107 LINE",
"199 68 LINE",
"235 65 LINE",
"263 63 LINE",
"335 88 LINE",
"397 132 LINE",
"440 189 LINE",
"440 221 LINE",
"440 225 LINE",
"435 266 LINE",
"420 320 LINE",
"409 365 LINE",
"402 411 LINE",
"402 443 LINE",
"405 489 LINE",
"420 532 LINE",
"436 537 LINE",
"453 510 LINE",
"467 458 LINE",
"473 387 LINE",
"472 347 LINE",
"473 317 LINE",
"493 247 LINE",
"519 177 LINE",
"545 110 LINE",
"559 60 LINE",
"553 28 LINE",
"534 28 LINE",
"516 28 LINE",
"496 52 LINE",
"481 80 LINE",
"468 104 LINE",
"455 104 LINE",
"446 104 LINE",
"418 89 LINE",
"384 65 LINE",
"344 38 LINE",
"301 15 LINE",
"256 -1 LINE",
"232 -1 LINE",
"191 -1 LINE",
"128 39 LINE",
"83 104 LINE",
"53 187 LINE",
"35 271 LINE",
"27 351 LINE"
);
}
);
width = 572;
}
);
unicode = 0055;
},
{
glyphname = Uogonek;
lastChange = "2016-08-24 09:53:51 +0000";
layers = (
{
layerId = UUID0;
paths = (
{
closed = 1;
nodes = (
"587 -161 LINE",
"536 -162 LINE",
"457 -154 LINE",
"409 -128 LINE",
"398 -76 LINE",
"417 -32 LINE",
"425 -19 LINE",
"446 -1 LINE",
"472 12 LINE",
"486 17 LINE",
"493 20 LINE",
"500 22 LINE",
"493 36 LINE",
"479 60 LINE",
"467 60 LINE",
"458 60 LINE",
"430 45 LINE",
"396 21 LINE",
"355 -6 LINE",
"313 -29 LINE",
"268 -45 LINE",
"244 -45 LINE",
"203 -45 LINE",
"140 -5 LINE",
"95 60 LINE",
"64 143 LINE",
"47 227 LINE",
"39 307 LINE",
"39 337 LINE",
"39 346 LINE",
"40 376 LINE",
"43 412 LINE",
"51 450 LINE",
"65 480 LINE",
"89 500 LINE",
"106 500 LINE",
"117 500 LINE",
"129 488 LINE",
"130 472 LINE",
"118 452 LINE",
"106 443 LINE",
"98 443 LINE",
"89 418 LINE",
"86 387 LINE",
"86 372 LINE",
"86 354 LINE",
"86 329 LINE",
"90 263 LINE",
"102 191 LINE",
"124 121 LINE",
"159 63 LINE",
"211 24 LINE",
"247 21 LINE",
"274 20 LINE",
"347 44 LINE",
"409 88 LINE",
"452 146 LINE",
"452 177 LINE",
"452 181 LINE",
"446 222 LINE",
"432 276 LINE",
"421 321 LINE",
"414 367 LINE",
"414 399 LINE",
"417 445 LINE",
"432 488 LINE",
"447 493 LINE",
"465 466 LINE",
"479 414 LINE",
"484 343 LINE",
"483 303 LINE",
"484 273 LINE",
"505 203 LINE",
"530 133 LINE",
"557 66 LINE",
"570 16 LINE",
"564 -16 LINE",
"546 -16 LINE",
"536 -16 LINE",
"528 -12 LINE",
"482 -31 LINE",
"466 -50 LINE",
"445 -73 LINE",
"467 -110 LINE",
"543 -132 LINE",
"602 -128 LINE"
);
}
);
width = 572;
}
);
unicode = 0172;
},
{
glyphname = V;
lastChange = "2016-08-24 09:53:51 +0000";
layers = (
{
layerId = UUID0;
paths = (
{
closed = 1;
nodes = (
"19 502 LINE",
"19 514 LINE",
"33 518 LINE",
"41 518 LINE",
"60 518 LINE",
"91 475 LINE",
"117 417 LINE",
"138 358 LINE",
"146 344 LINE",
"148 338 LINE",
"165 301 LINE",
"188 250 LINE",
"213 194 LINE",
"235 144 LINE",
"252 105 LINE",
"255 100 LINE",
"261 105 LINE",
"273 148 LINE",
"288 212 LINE",
"302 287 LINE",
"316 364 LINE",
"332 436 LINE",
"347 490 LINE",
"362 521 LINE",
"370 518 LINE",
"385 522 LINE",
"396 485 LINE",
"395 420 LINE",
"381 330 LINE",
"358 235 LINE",
"329 140 LINE",
"297 62 LINE",
"264 7 LINE",
"248 -1 LINE",
"247 -1 LINE",
"236 0 LINE",
"235 0 LINE",
"229 10 LINE",
"205 58 LINE",
"178 111 LINE",
"154 159 LINE",
"150 168 LINE",
"145 181 LINE",
"120 233 LINE",
"91 299 LINE",
"60 370 LINE",
"34 437 LINE",
"19 489 LINE"
);
}
);
width = 423;
}
);
unicode = 0056;
},
{
glyphname = W;
lastChange = "2016-08-24 09:53:51 +0000";
layers = (
{
layerId = UUID0;
paths = (
{
closed = 1;
nodes = (
"323 113 LINE",
"323 113 LINE",
"322 112 LINE",
"321 112 LINE",
"319 112 LINE",
"276 74 LINE",
"224 31 LINE",
"192 11 LINE",
"179 7 LINE",
"176 7 LINE",
"139 7 LINE",
"85 50 LINE",
"48 116 LINE",
"26 200 LINE",
"15 285 LINE",
"10 359 LINE",
"10 385 LINE",
"10 388 LINE",
"10 424 LINE",
"16 465 LINE",
"32 498 LINE",
"48 498 LINE",
"55 498 LINE",
"62 461 LINE",
"66 402 LINE",
"71 326 LINE",
"79 246 LINE",
"92 170 LINE",
"112 110 LINE",
"142 74 LINE",
"164 74 LINE",
"182 74 LINE",
"214 94 LINE",
"241 121 LINE",
"264 150 LINE",
"272 159 LINE",
"278 173 LINE",
"282 209 LINE",
"284 246 LINE",
"282 279 LINE",
"282 291 LINE",
"287 305 LINE",
"300 315 LINE",
"313 312 LINE",
"324 294 LINE",
"329 281 LINE",
"334 250 LINE",
"358 174 LINE",
"401 108 LINE",
"462 64 LINE",
"502 64 LINE",
"523 64 LINE",
"569 82 LINE",
"605 112 LINE",
"629 153 LINE",
"629 177 LINE",
"629 215 LINE",
"604 285 LINE",
"576 354 LINE",
"553 424 LINE",
"553 460 LINE",
"565 487 LINE",
"596 479 LINE",
"626 429 LINE",
"653 353 LINE",
"675 273 LINE",
"686 204 LINE",
"685 188 LINE",
"685 150 LINE",
"653 83 LINE",
"600 31 LINE",
"530 0 LINE",
"493 0 LINE",
"464 0 LINE",
"408 35 LINE",
"364 78 LINE",
"331 113 LINE"
);
}
);
width = 704;
}
);
unicode = 0057;
},
{
glyphname = X;
lastChange = "2016-08-24 09:53:51 +0000";
layers = (
{
layerId = UUID0;
paths = (
{
closed = 1;
nodes = (
"20 -30 LINE",
"20 6 LINE",
"58 86 LINE",
"112 167 LINE",
"174 241 LINE",
"197 271 LINE",
"197 286 LINE",
"181 323 LINE",
"155 364 LINE",
"126 405 LINE",
"101 446 LINE",
"83 484 LINE",
"83 502 LINE",
"83 514 LINE",
"91 525 LINE",
"104 525 LINE",
"108 525 LINE",
"127 501 LINE",
"149 466 LINE",
"174 425 LINE",
"195 387 LINE",
"212 358 LINE",
"217 354 LINE",
"227 336 LINE",
"247 320 LINE",
"285 339 LINE",
"353 397 LINE",
"410 454 LINE",
"417 460 LINE",
"452 481 LINE",
"490 494 LINE",
"522 490 LINE",
"526 471 LINE",
"496 452 LINE",
"426 402 LINE",
"358 347 LINE",
"296 288 LINE",
"273 260 LINE",
"282 235 LINE",
"324 174 LINE",
"372 111 LINE",
"417 54 LINE",
"439 13 LINE",
"432 -6 LINE",
"402 2 LINE",
"377 21 LINE",
"332 74 LINE",
"291 130 LINE",
"248 183 LINE",
"226 204 LINE",
"221 204 LINE",
"215 204 LINE",
"195 186 LINE",
"173 158 LINE",
"147 124 LINE",
"125 90 LINE",
"108 62 LINE",
"104 54 LINE",
"98 48 LINE",
"82 12 LINE",
"64 -27 LINE",
"45 -59 LINE",
"38 -61 LINE",
"26 -61 LINE",
"20 -44 LINE"
);
}
);
width = 534;
}
);
unicode = 0058;
},
{
glyphname = Y;
lastChange = "2016-08-24 09:53:51 +0000";
layers = (
{
layerId = UUID0;
paths = (
{
closed = 1;
nodes = (
"197 4 LINE",
"197 7 LINE",
"197 21 LINE",
"197 38 LINE",
"197 53 LINE",
"197 56 LINE",
"197 98 LINE",
"206 163 LINE",
"221 226 LINE",
"242 291 LINE",
"254 332 LINE",
"254 334 LINE",
"255 345 LINE",
"255 347 LINE",
"256 347 LINE",
"219 364 LINE",
"164 397 LINE",
"100 446 LINE",
"46 511 LINE",
"13 591 LINE",
"18 640 LINE",
"19 640 LINE",
"27 640 LINE",
"38 642 LINE",
"48 643 LINE",
"48 643 LINE",
"55 622 LINE",
"79 574 LINE",
"112 523 LINE",
"153 476 LINE",
"200 438 LINE",
"250 415 LINE",
"276 415 LINE",
"294 454 LINE",
"314 499 LINE",
"326 525 LINE",
"329 538 LINE",
"332 552 LINE",
"334 573 LINE",
"338 595 LINE",
"338 599 LINE",
"353 607 LINE",
"370 609 LINE",
"385 604 LINE",
"385 595 LINE",
"385 541 LINE",
"361 444 LINE",
"326 353 LINE",
"287 262 LINE",
"258 165 LINE",
"245 63 LINE",
"254 4 LINE",
"248 -8 LINE",
"236 -17 LINE",
"227 -17 LINE",
"216 -17 LINE",
"203 -8 LINE"
);
}
);
width = 403;
}
);
unicode = 0059;
},
{
glyphname = Z;
lastChange = "2016-08-24 09:53:51 +0000";
layers = (
{
layerId = UUID0;
paths = (
{
closed = 1;
nodes = (
"168 70 LINE",
"168 95 LINE",
"197 138 LINE",
"232 179 LINE",
"262 219 LINE",
"262 239 LINE",
"262 244 LINE",
"262 246 LINE",
"255 260 LINE",
"253 262 LINE",
"251 262 LINE",
"241 262 LINE",
"231 263 LINE",
"222 263 LINE",
"221 263 LINE",
"191 263 LINE",
"137 251 LINE",
"106 251 LINE",
"106 265 LINE",
"116 294 LINE",
"131 300 LINE",
"163 311 LINE",
"221 318 LINE",
"268 326 LINE",
"306 337 LINE",
"333 362 LINE",
"351 408 LINE",
"354 446 LINE",
"354 481 LINE",
"320 529 LINE",
"268 560 LINE",
"205 572 LINE",
"177 572 LINE",
"153 572 LINE",
"112 561 LINE",
"75 546 LINE",
"42 534 LINE",
"26 534 LINE",
"24 534 LINE",
"19 541 LINE",
"17 543 LINE",
"17 549 LINE",
"17 573 LINE",
"51 602 LINE",
"98 616 LINE",
"146 619 LINE",
"161 619 LINE",
"206 619 LINE",
"294 604 LINE",
"361 563 LINE",
"402 492 LINE",
"402 438 LINE",
"402 423 LINE",
"396 401 LINE",
"390 382 LINE",
"385 361 LINE",
"385 347 LINE",
"385 342 LINE",
"404 337 LINE",
"434 334 LINE",
"468 332 LINE",
"497 326 LINE",
"517 314 LINE",
"517 305 LINE",
"517 304 LINE",
"517 301 LINE",
"517 300 LINE",
"510 297 LINE",
"492 287 LINE",
"473 278 LINE",
"452 272 LINE",
"445 272 LINE",
"441 272 LINE",
"437 275 LINE",
"432 278 LINE",
"428 281 LINE",
"423 281 LINE",
"385 281 LINE",
"329 244 LINE",
"287 188 LINE",
"252 121 LINE",
"235 94 LINE",
"235 92 LINE",
"232 81 LINE",
"232 80 LINE",
"232 63 LINE",
"246 56 LINE",
"261 56 LINE",
"296 56 LINE",
"364 71 LINE",
"433 89 LINE",
"501 104 LINE",
"534 104 LINE",
"547 104 LINE",
"555 90 LINE",
"555 79 LINE",
"555 67 LINE",
"549 54 LINE",
"534 48 LINE",
"473 25 LINE",
"347 -1 LINE",
"281 -1 LINE",
"277 -1 LINE",
"259 -1 LINE",
"237 0 LINE",
"219 0 LINE",
"216 0 LINE",
"191 7 LINE",
"168 46 LINE"
);
}
);
width = 572;
}
);
unicode = 005A;
},
{
glyphname = R.alt;
lastChange = "2016-08-24 09:53:51 +0000";
layers = (
{
layerId = UUID0;
paths = (
{
closed = 1;
nodes = (
"193 217 LINE",
"200 173 LINE",
"218 100 LINE",
"229 45 LINE",
"224 12 LINE",
"206 7 LINE",
"204 1 LINE",
"193 27 LINE",
"178 79 LINE",
"160 151 LINE",
"144 232 LINE",
"130 317 LINE",
"121 396 LINE",
"121 461 LINE",
"127 481 LINE",
"139 490 LINE",
"157 482 LINE",
"168 463 LINE",
"171 438 LINE",
"168 427 LINE",
"169 423 LINE",
"174 401 LINE",
"180 377 LINE",
"186 355 LINE",
"188 352 LINE",
"201 353 LINE",
"255 360 LINE",
"317 373 LINE",
"382 391 LINE",
"436 414 LINE",
"470 445 LINE",
"470 464 LINE",
"470 466 LINE",
"469 473 LINE",
"469 473 LINE",
"440 505 LINE",
"385 543 LINE",
"321 562 LINE",
"251 567 LINE",
"211 567 LINE",
"182 567 LINE",
"117 566 LINE",
"63 551 LINE",
"28 510 LINE",
"28 470 LINE",
"20 470 LINE",
"6 481 LINE",
"-5 499 LINE",
"-11 518 LINE",
"-11 524 LINE",
"-11 538 LINE",
"2 563 LINE",
"21 582 LINE",
"45 599 LINE",
"57 604 LINE",
"87 610 LINE",
"136 618 LINE",
"179 622 LINE",
"223 624 LINE",
"250 624 LINE",
"276 624 LINE",
"338 615 LINE",
"399 598 LINE",
"456 569 LINE",
"500 529 LINE",
"525 478 LINE",
"525 445 LINE",
"525 417 LINE",
"490 374 LINE",
"432 343 LINE",
"360 321 LINE",
"289 305 LINE",
"227 292 LINE",
"206 285 LINE",
"256 218 LINE",
"352 124 LINE",
"436 60 LINE",
"504 19 LINE",
"546 -8 LINE",
"558 -24 LINE",
"544 -34 LINE",
"533 -47 LINE",
"484 -33 LINE",
"421 7 LINE",
"349 65 LINE",
"278 130 LINE",
"215 193 LINE"
);
}
);
width = 579;
}
);
},
{
glyphname = a;
lastChange = "2016-08-24 09:53:51 +0000";
layers = (
{
layerId = UUID0;
paths = (
{
closed = 1;
nodes = (
"19 165 LINE",
"19 182 LINE",
"37 225 LINE",
"74 265 LINE",
"130 298 LINE",
"208 312 LINE",
"307 300 LINE",
"367 276 LINE",
"367 276 LINE",
"366 294 LINE",
"366 295 LINE",
"366 320 LINE",
"337 373 LINE",
"291 415 LINE",
"238 441 LINE",
"214 441 LINE",
"203 441 LINE",
"188 435 LINE",
"176 427 LINE",
"163 420 LINE",
"154 420 LINE",
"153 420 LINE",
"152 421 LINE",
"151 422 LINE",
"150 423 LINE",
"147 424 LINE",
"142 431 LINE",
"142 432 LINE",
"142 449 LINE",
"154 475 LINE",
"177 490 LINE",
"205 499 LINE",
"221 499 LINE",
"261 494 LINE",
"331 455 LINE",
"391 394 LINE",
"436 315 LINE",
"466 230 LINE",
"477 144 LINE",
"472 104 LINE",
"471 104 LINE",
"461 104 LINE",
"449 105 LINE",
"440 106 LINE",
"440 106 LINE",
"420 153 LINE",
"369 210 LINE",
"319 241 LINE",
"276 255 LINE",
"263 258 LINE",
"248 258 LINE",
"208 253 LINE",
"165 244 LINE",
"121 228 LINE",
"87 204 LINE",
"65 171 LINE",
"65 150 LINE",
"65 127 LINE",
"104 95 LINE",
"156 74 LINE",
"211 65 LINE",
"228 65 LINE",
"255 65 LINE",
"308 71 LINE",
"358 80 LINE",
"410 86 LINE",
"436 86 LINE",
"438 86 LINE",
"447 86 LINE",
"458 85 LINE",
"467 85 LINE",
"469 85 LINE",
"477 82 LINE",
"479 70 LINE",
"479 64 LINE",
"479 59 LINE",
"454 45 LINE",
"415 30 LINE",
"367 17 LINE",
"323 7 LINE",
"285 0 LINE",
"276 0 LINE",
"235 0 LINE",
"145 14 LINE",
"68 50 LINE",
"19 114 LINE"
);
}
);
width = 506;
}
);
unicode = 0061;
},
{
glyphname = aogonek;
lastChange = "2016-08-24 09:53:51 +0000";
layers = (
{
layerId = UUID0;
paths = (
{
closed = 1;
nodes = (
"458 -117 LINE",
"407 -118 LINE",
"328 -110 LINE",
"280 -84 LINE",
"274 -58 LINE",
"271 -36 LINE",
"282 0 LINE",
"276 0 LINE",
"235 0 LINE",
"145 14 LINE",
"68 50 LINE",
"19 114 LINE",
"19 165 LINE",
"19 182 LINE",
"37 225 LINE",
"74 265 LINE",
"130 298 LINE",
"208 312 LINE",
"307 300 LINE",
"367 276 LINE",
"367 276 LINE",
"366 294 LINE",
"366 295 LINE",
"366 320 LINE",
"337 373 LINE",
"291 415 LINE",
"238 441 LINE",
"214 441 LINE",
"203 441 LINE",
"188 435 LINE",
"176 427 LINE",
"163 420 LINE",
"154 420 LINE",
"153 420 LINE",
"152 421 LINE",
"151 422 LINE",
"150 423 LINE",
"147 424 LINE",
"142 431 LINE",
"142 432 LINE",
"142 449 LINE",
"154 475 LINE",
"177 490 LINE",
"205 499 LINE",
"221 499 LINE",
"261 494 LINE",
"331 455 LINE",
"391 394 LINE",
"436 315 LINE",
"466 230 LINE",
"477 144 LINE",
"472 104 LINE",
"471 104 LINE",
"461 104 LINE",
"449 105 LINE",
"444 106 LINE",
"440 106 LINE",
"420 153 LINE",
"369 210 LINE",
"319 241 LINE",
"276 255 LINE",
"263 258 LINE",
"248 258 LINE",
"208 253 LINE",
"165 244 LINE",
"121 228 LINE",
"87 204 LINE",
"65 171 LINE",
"65 150 LINE",
"65 127 LINE",
"104 95 LINE",
"156 74 LINE",
"211 65 LINE",
"228 65 LINE",
"255 65 LINE",
"308 71 LINE",
"358 80 LINE",
"410 86 LINE",
"436 86 LINE",
"442 86 LINE",
"447 86 LINE",
"458 85 LINE",
"462 85 LINE",
"469 85 LINE",
"477 82 LINE",
"479 70 LINE",
"479 64 LINE",
"479 59 LINE",
"454 45 LINE",
"415 30 LINE",
"391 23 LINE",
"367 17 LINE",
"347 5 LINE",
"337 -6 LINE",
"316 -29 LINE",
"338 -66 LINE",
"414 -88 LINE",
"473 -84 LINE"
);
}
);
width = 506;
}
);
unicode = 0105;
},
{
glyphname = aring;
lastChange = "2016-08-24 09:53:51 +0000";
layers = (
{
layerId = UUID0;
paths = (
{
closed = 1;
nodes = (
"158 565 LINE",
"158 587 LINE",
"178 619 LINE",
"209 641 LINE",
"248 651 LINE",
"268 651 LINE",
"284 651 LINE",
"311 635 LINE",
"330 610 LINE",
"341 581 LINE",
"341 569 LINE",
"341 549 LINE",
"324 518 LINE",
"297 496 LINE",
"279 490 LINE",
"274 487 LINE",
"270 487 LINE",
"282 481 LINE",
"296 475 LINE",
"331 455 LINE",
"391 394 LINE",
"436 315 LINE",
"466 230 LINE",
"477 144 LINE",
"472 104 LINE",
"471 104 LINE",
"461 104 LINE",
"449 105 LINE",
"444 106 LINE",
"440 106 LINE",
"420 153 LINE",
"369 210 LINE",
"319 241 LINE",
"276 255 LINE",
"263 258 LINE",
"248 258 LINE",
"208 253 LINE",
"165 244 LINE",
"121 228 LINE",
"87 204 LINE",
"65 171 LINE",
"65 150 LINE",
"65 127 LINE",
"104 95 LINE",
"156 74 LINE",
"211 65 LINE",
"228 65 LINE",
"255 65 LINE",
"308 71 LINE",
"358 80 LINE",
"410 86 LINE",
"436 86 LINE",
"442 86 LINE",
"447 86 LINE",
"458 85 LINE",
"462 85 LINE",
"469 85 LINE",
"477 82 LINE",
"479 70 LINE",
"479 64 LINE",
"479 59 LINE",
"454 45 LINE",
"415 30 LINE",
"367 17 LINE",
"323 7 LINE",
"285 0 LINE",
"276 0 LINE",
"235 0 LINE",
"145 14 LINE",
"68 50 LINE",
"19 114 LINE",
"19 165 LINE",
"19 182 LINE",
"37 225 LINE",
"74 265 LINE",
"130 298 LINE",
"208 312 LINE",
"307 300 LINE",
"367 276 LINE",
"367 276 LINE",
"366 294 LINE",
"366 295 LINE",
"366 320 LINE",
"337 373 LINE",
"291 415 LINE",
"238 441 LINE",
"214 441 LINE",
"203 441 LINE",
"188 435 LINE",
"176 427 LINE",
"163 420 LINE",
"154 420 LINE",
"153 420 LINE",
"152 421 LINE",
"151 422 LINE",
"150 423 LINE",
"147 424 LINE",
"142 431 LINE",
"142 432 LINE",
"142 449 LINE",
"154 475 LINE",
"177 490 LINE",
"190 494 LINE",
"196 496 LINE",
"188 500 LINE",
"183 506 LINE",
"158 528 LINE"
);
},
{
closed = 1;
nodes = (
"188 563 LINE",
"188 540 LINE",
"218 516 LINE",
"244 516 LINE",
"251 515 LINE",
"272 522 LINE",
"293 537 LINE",
"308 559 LINE",
"307 582 LINE",
"285 606 LINE",
"260 617 LINE",
"247 617 LINE",
"221 612 LINE",
"201 600 LINE",
"188 579 LINE"
);
}
);
width = 506;
}
);
unicode = 00E5;
},
{
glyphname = ae;
lastChange = "2016-08-24 09:53:51 +0000";
layers = (
{
layerId = UUID0;
paths = (
{
closed = 1;
nodes = (
"19 165 LINE",
"19 182 LINE",
"37 225 LINE",
"74 265 LINE",
"130 298 LINE",
"208 312 LINE",
"307 300 LINE",
"367 276 LINE",
"367 276 LINE",
"366 294 LINE",
"366 295 LINE",
"366 320 LINE",
"337 373 LINE",
"291 415 LINE",
"238 441 LINE",
"214 441 LINE",
"203 441 LINE",
"188 435 LINE",
"176 427 LINE",
"163 420 LINE",
"154 420 LINE",
"153 420 LINE",
"152 421 LINE",
"151 422 LINE",
"150 423 LINE",
"147 424 LINE",
"142 431 LINE",
"142 432 LINE",
"142 449 LINE",
"154 475 LINE",
"177 490 LINE",
"205 499 LINE",
"221 499 LINE",
"261 494 LINE",
"331 455 LINE",
"391 394 LINE",
"413 354 LINE",
"416 349 LINE",
"420 344 LINE",
"435 385 LINE",
"461 417 LINE",
"490 452 LINE",
"573 494 LINE",
"628 494 LINE",
"660 490 LINE",
"707 464 LINE",
"738 423 LINE",
"752 371 LINE",
"751 342 LINE",
"751 307 LINE",
"710 250 LINE",
"647 212 LINE",
"575 191 LINE",
"543 191 LINE",
"531 191 LINE",
"508 192 LINE",
"488 200 LINE",
"477 216 LINE",
"477 231 LINE",
"477 236 LINE",
"479 243 LINE",
"493 246 LINE",
"520 244 LINE",
"543 239 LINE",
"557 239 LINE",
"609 258 LINE",
"663 287 LINE",
"702 324 LINE",
"702 344 LINE",
"702 362 LINE",
"689 400 LINE",
"664 430 LINE",
"630 447 LINE",
"608 446 LINE",
"574 443 LINE",
"519 411 LINE",
"479 362 LINE",
"458 301 LINE",
"458 269 LINE",
"458 251 LINE",
"467 220 LINE",
"471 187 LINE",
"474 165 LINE",
"474 144 LINE",
"479 132 LINE",
"486 121 LINE",
"501 99 LINE",
"555 64 LINE",
"637 42 LINE",
"697 39 LINE",
"871 51 LINE",
"855 29 LINE",
"809 1 LINE",
"755 -16 LINE",
"701 -22 LINE",
"679 -22 LINE",
"622 -22 LINE",
"522 14 LINE",
"484 48 LINE",
"475 57 LINE",
"472 54 LINE",
"467 51 LINE",
"454 45 LINE",
"415 30 LINE",
"367 17 LINE",
"323 7 LINE",
"285 0 LINE",
"276 0 LINE",
"235 0 LINE",
"145 14 LINE",
"68 50 LINE",
"19 114 LINE"
);
},
{
closed = 1;
nodes = (
"394 182 LINE",
"369 210 LINE",
"319 241 LINE",
"276 255 LINE",
"263 258 LINE",
"248 258 LINE",
"208 253 LINE",
"165 244 LINE",
"121 228 LINE",
"87 204 LINE",
"65 171 LINE",
"65 150 LINE",
"65 127 LINE",
"104 95 LINE",
"156 74 LINE",
"211 65 LINE",
"228 65 LINE",
"255 65 LINE",
"308 71 LINE",
"358 80 LINE",
"410 86 LINE",
"436 86 LINE",
"442 86 LINE",
"446 86 LINE",
"450 85 LINE",
"436 106 LINE",
"424 130 LINE",
"419 142 LINE",
"414 154 LINE",
"405 170 LINE"
);
}
);
width = 882;
}
);
unicode = 00E6;
},
{
glyphname = b;
lastChange = "2016-08-24 09:53:51 +0000";
layers = (
{
layerId = UUID0;
paths = (
{
closed = 1;
nodes = (
"28 469 LINE",
"23 512 LINE",
"10 572 LINE",
"11 611 LINE",
"34 633 LINE",
"65 637 LINE",
"67 627 LINE",
"74 572 LINE",
"81 503 LINE",
"89 428 LINE",
"98 365 LINE",
"106 325 LINE",
"111 326 LINE",
"129 326 LINE",
"163 338 LINE",
"183 338 LINE",
"212 338 LINE",
"278 327 LINE",
"344 306 LINE",
"405 271 LINE",
"451 227 LINE",
"479 168 LINE",
"479 133 LINE",
"479 88 LINE",
"435 34 LINE",
"366 7 LINE",
"286 -1 LINE",
"250 -1 LINE",
"202 -1 LINE",
"137 23 LINE",
"96 65 LINE",
"74 123 LINE",
"64 190 LINE",
"60 264 LINE",
"57 300 LINE",
"56 307 LINE",
"48 355 LINE",
"37 413 LINE",
"29 462 LINE"
);
},
{
closed = 1;
nodes = (
"122 212 LINE",
"112 170 LINE",
"142 106 LINE",
"200 67 LINE",
"275 52 LINE",
"350 63 LINE",
"409 99 LINE",
"423 131 LINE",
"423 157 LINE",
"399 200 LINE",
"360 233 LINE",
"311 258 LINE",
"259 273 LINE",
"208 282 LINE",
"188 282 LINE",
"156 282 LINE",
"122 244 LINE"
);
}
);
width = 497;
}
);
unicode = 0062;
},
{
glyphname = c;
lastChange = "2016-08-24 09:53:51 +0000";
layers = (
{
layerId = UUID0;
paths = (
{
closed = 1;
nodes = (
"19 218 LINE",
"19 261 LINE",
"52 342 LINE",
"109 404 LINE",
"186 441 LINE",
"229 441 LINE",
"247 441 LINE",
"292 433 LINE",
"331 413 LINE",
"356 381 LINE",
"356 356 LINE",
"356 353 LINE",
"352 329 LINE",
"344 306 LINE",
"333 287 LINE",
"329 287 LINE",
"329 333 LINE",
"278 395 LINE",
"229 395 LINE",
"191 395 LINE",
"134 363 LINE",
"95 313 LINE",
"74 249 LINE",
"74 216 LINE",
"74 171 LINE",
"104 112 LINE",
"154 76 LINE",
"221 59 LINE",
"294 53 LINE",
"369 55 LINE",
"403 57 LINE",
"406 57 LINE",
"420 49 LINE",
"423 48 LINE",
"423 45 LINE",
"423 44 LINE",
"423 42 LINE",
"423 42 LINE",
"423 30 LINE",
"402 16 LINE",
"371 6 LINE",
"334 1 LINE",
"298 -1 LINE",
"271 -1 LINE",
"265 -1 LINE",
"208 -1 LINE",
"117 24 LINE",
"54 77 LINE",
"19 160 LINE"
);
}
);
width = 449;
}
);
unicode = 0063;
},
{
glyphname = ccedilla;
lastChange = "2016-08-24 09:53:51 +0000";
layers = (
{
layerId = UUID0;
paths = (
{
closed = 1;
nodes = (
"126 -204 LINE",
"132 -198 LINE",
"142 -196 LINE",
"149 -196 LINE",
"165 -196 LINE",
"194 -215 LINE",
"222 -236 LINE",
"248 -254 LINE",
"263 -254 LINE",
"279 -254 LINE",
"306 -255 LINE",
"324 -248 LINE",
"335 -226 LINE",
"335 -202 LINE",
"335 -180 LINE",
"319 -154 LINE",
"292 -140 LINE",
"258 -134 LINE",
"221 -127 LINE",
"186 -114 LINE",
"158 -90 LINE",
"142 -47 LINE",
"141 -14 LINE",
"142 6 LINE",
"145 17 LINE",
"110 29 LINE",
"85 51 LINE",
"54 77 LINE",
"19 160 LINE",
"19 218 LINE",
"19 261 LINE",
"52 342 LINE",
"109 404 LINE",
"186 441 LINE",
"229 441 LINE",
"247 441 LINE",
"292 433 LINE",
"331 413 LINE",
"356 381 LINE",
"356 356 LINE",
"356 353 LINE",
"352 329 LINE",
"344 306 LINE",
"333 287 LINE",
"329 287 LINE",
"329 333 LINE",
"278 395 LINE",
"229 395 LINE",
"191 395 LINE",
"134 363 LINE",
"95 313 LINE",
"74 249 LINE",
"74 216 LINE",
"74 171 LINE",
"104 112 LINE",
"154 76 LINE",
"221 59 LINE",
"294 53 LINE",
"369 55 LINE",
"403 57 LINE",
"406 57 LINE",
"420 49 LINE",
"423 48 LINE",
"423 45 LINE",
"423 44 LINE",
"423 42 LINE",
"423 42 LINE",
"423 30 LINE",
"402 16 LINE",
"371 6 LINE",
"334 1 LINE",
"298 -1 LINE",
"284 -1 LINE",
"265 -1 LINE",
"221 -1 LINE",
"184 7 LINE",
"188 -3 LINE",
"188 -12 LINE",
"189 -22 LINE",
"186 -26 LINE",
"186 -58 LINE",
"215 -84 LINE",
"260 -96 LINE",
"313 -102 LINE",
"357 -122 LINE",
"388 -164 LINE",
"388 -207 LINE",
"388 -230 LINE",
"362 -266 LINE",
"325 -288 LINE",
"279 -299 LINE",
"260 -299 LINE",
"231 -299 LINE",
"194 -283 LINE",
"166 -257 LINE",
"142 -222 LINE"
);
}
);
width = 449;
}
);
unicode = 00E7;
},
{
glyphname = d;
lastChange = "2016-08-24 09:53:51 +0000";
layers = (
{
layerId = UUID0;
paths = (
{
closed = 1;
nodes = (
"19 222 LINE",
"19 258 LINE",
"36 338 LINE",
"77 405 LINE",
"139 450 LINE",
"183 450 LINE",
"206 450 LINE",
"254 437 LINE",
"304 411 LINE",
"357 376 LINE",
"388 356 LINE",
"391 396 LINE",
"378 479 LINE",
"356 558 LINE",
"334 630 LINE",
"323 687 LINE",
"332 724 LINE",
"352 729 LINE",
"378 710 LINE",
"416 638 LINE",
"443 544 LINE",
"461 438 LINE",
"473 328 LINE",
"479 224 LINE",
"487 138 LINE",
"494 76 LINE",
"501 63 LINE",
"501 48 LINE",
"479 40 LINE",
"467 40 LINE",
"456 40 LINE",
"443 54 LINE",
"435 74 LINE",
"429 99 LINE",
"421 119 LINE",
"411 133 LINE",
"403 133 LINE",
"402 133 LINE",
"395 132 LINE",
"394 131 LINE",
"376 105 LINE",
"326 58 LINE",
"267 21 LINE",
"201 0 LINE",
"168 0 LINE",
"131 0 LINE",
"75 48 LINE",
"37 117 LINE",
"19 193 LINE"
);
},
{
closed = 1;
nodes = (
"79 204 LINE",
"89 169 LINE",
"104 116 LINE",
"127 83 LINE",
"158 65 LINE",
"183 65 LINE",
"215 65 LINE",
"285 103 LINE",
"346 159 LINE",
"385 227 LINE",
"385 258 LINE",
"385 261 LINE",
"385 278 LINE",
"385 281 LINE",
"332 332 LINE",
"246 376 LINE",
"177 377 LINE",
"127 346 LINE",
"94 294 LINE",
"78 232 LINE"
);
}
);
width = 525;
}
);
unicode = 0064;
},
{
glyphname = eth;
lastChange = "2016-08-24 09:53:51 +0000";
layers = (
{
layerId = UUID0;
paths = (
{
closed = 1;
nodes = (
"402 435 LINE",
"403 431 LINE",
"389 414 LINE",
"365 396 LINE",
"336 384 LINE",
"323 384 LINE",
"339 361 LINE",
"364 310 LINE",
"383 254 LINE",
"394 199 LINE",
"394 175 LINE",
"394 140 LINE",
"376 72 LINE",
"338 20 LINE",
"277 -13 LINE",
"235 -13 LINE",
"198 -13 LINE",
"123 3 LINE",
"63 38 LINE",
"23 95 LINE",
"23 136 LINE",
"23 170 LINE",
"48 228 LINE",
"93 270 LINE",
"153 292 LINE",
"189 292 LINE",
"208 292 LINE",
"237 291 LINE",
"265 288 LINE",
"294 281 LINE",
"313 274 LINE",
"313 279 LINE",
"313 299 LINE",
"287 347 LINE",
"268 370 LINE",
"249 364 LINE",
"213 346 LINE",
"182 330 LINE",
"154 320 LINE",
"136 327 LINE",
"125 354 LINE",
"126 381 LINE",
"132 379 LINE",
"158 390 LINE",
"188 402 LINE",
"216 413 LINE",
"225 411 LINE",
"211 421 LINE",
"176 444 LINE",
"141 464 LINE",
"108 477 LINE",
"98 477 LINE",
"94 477 LINE",
"90 476 LINE",
"75 468 LINE",
"61 458 LINE",
"48 451 LINE",
"45 451 LINE",
"39 451 LINE",
"31 458 LINE",
"26 470 LINE",
"23 481 LINE",
"23 487 LINE",
"23 499 LINE",
"39 515 LINE",
"61 525 LINE",
"85 528 LINE",
"94 528 LINE",
"121 525 LINE",
"168 515 LINE",
"209 495 LINE",
"249 462 LINE",
"270 438 LINE",
"290 437 LINE",
"320 448 LINE",
"344 464 LINE",
"361 477 LINE",
"376 478 LINE",
"393 459 LINE"
);
},
{
closed = 1;
nodes = (
"348 156 LINE",
"351 181 LINE",
"324 216 LINE",
"277 240 LINE",
"215 251 LINE",
"183 251 LINE",
"166 251 LINE",
"129 230 LINE",
"97 199 LINE",
"75 162 LINE",
"75 146 LINE",
"75 116 LINE",
"103 77 LINE",
"145 55 LINE",
"196 46 LINE",
"221 46 LINE",
"271 50 LINE",
"338 103 LINE"
);
}
);
width = 408;
}
);
unicode = 00F0;
},
{
glyphname = dcroat;
lastChange = "2016-08-24 09:53:51 +0000";
layers = (
{
layerId = UUID0;
paths = (
{
closed = 1;
nodes = (
"438 593 LINE",
"452 593 LINE",
"483 591 LINE",
"511 582 LINE",
"528 563 LINE",
"528 546 LINE",
"528 525 LINE",
"510 525 LINE",
"488 525 LINE",
"470 530 LINE",
"458 534 LINE",
"443 535 LINE",
"448 514 LINE",
"452 490 LINE",
"461 438 LINE",
"473 328 LINE",
"479 224 LINE",
"487 138 LINE",
"494 76 LINE",
"501 63 LINE",
"501 48 LINE",
"479 40 LINE",
"467 40 LINE",
"456 40 LINE",
"443 54 LINE",
"435 74 LINE",
"429 99 LINE",
"421 119 LINE",
"411 133 LINE",
"403 133 LINE",
"402 133 LINE",
"395 132 LINE",
"394 131 LINE",
"376 105 LINE",
"326 58 LINE",
"267 21 LINE",
"201 0 LINE",
"168 0 LINE",
"131 0 LINE",
"75 48 LINE",
"37 117 LINE",
"19 193 LINE",
"19 222 LINE",
"19 258 LINE",
"36 338 LINE",
"77 405 LINE",
"139 450 LINE",
"183 450 LINE",
"206 450 LINE",
"254 437 LINE",
"304 411 LINE",
"357 376 LINE",
"388 356 LINE",
"391 396 LINE",
"378 479 LINE",
"367 518 LINE",
"365 525 LINE",
"363 531 LINE",
"341 528 LINE",
"317 525 LINE",
"289 521 LINE",
"233 514 LINE",
"205 514 LINE",
"205 537 LINE",
"227 565 LINE",
"262 581 LINE",
"306 587 LINE",
"329 588 LINE",
"347 588 LINE",
"346 591 LINE",
"345 594 LINE",
"334 630 LINE",
"323 687 LINE",
"332 724 LINE",
"352 729 LINE",
"378 710 LINE",
"396 674 LINE",
"415 638 LINE",
"429 593 LINE"
);
},
{
closed = 1;
nodes = (
"79 204 LINE",
"89 169 LINE",
"104 116 LINE",
"127 83 LINE",
"158 65 LINE",
"183 65 LINE",
"215 65 LINE",
"285 103 LINE",
"346 159 LINE",
"385 227 LINE",
"385 258 LINE",
"385 261 LINE",
"385 278 LINE",
"385 281 LINE",
"332 332 LINE",
"246 376 LINE",
"177 377 LINE",
"127 346 LINE",
"94 294 LINE",
"78 232 LINE"
);
}
);
width = 525;
}
);
unicode = 0111;
},
{
glyphname = e;
lastChange = "2016-08-24 09:53:51 +0000";
layers = (
{
layerId = UUID0;
paths = (
{
closed = 1;
nodes = (
"19 262 LINE",
"19 312 LINE",
"48 405 LINE",
"106 476 LINE",
"189 517 LINE",
"244 517 LINE",
"276 513 LINE",
"323 486 LINE",
"354 446 LINE",
"368 394 LINE",
"367 364 LINE",
"367 329 LINE",
"326 273 LINE",
"264 235 LINE",
"191 215 LINE",
"159 215 LINE",
"147 215 LINE",
"124 215 LINE",
"104 223 LINE",
"93 238 LINE",
"93 254 LINE",
"93 259 LINE",
"96 266 LINE",
"109 269 LINE",
"136 267 LINE",
"159 262 LINE",
"173 262 LINE",
"226 280 LINE",
"279 310 LINE",
"318 347 LINE",
"318 366 LINE",
"318 385 LINE",
"306 423 LINE",
"280 452 LINE",
"246 470 LINE",
"225 469 LINE",
"190 466 LINE",
"135 435 LINE",
"95 385 LINE",
"74 323 LINE",
"74 291 LINE",
"74 267 LINE",
"76 215 LINE",
"89 165 LINE",
"117 121 LINE",
"171 87 LINE",
"253 64 LINE",
"313 62 LINE",
"487 73 LINE",
"472 52 LINE",
"425 24 LINE",
"371 7 LINE",
"317 0 LINE",
"295 0 LINE",
"238 0 LINE",
"139 36 LINE",
"63 104 LINE",
"19 201 LINE"
);
}
);
width = 517;
}
);
unicode = 0065;
},
{
glyphname = eogonek;
lastChange = "2016-08-24 09:53:51 +0000";
layers = (
{
layerId = UUID0;
paths = (
{
closed = 1;
nodes = (
"432 -139 LINE",
"382 -140 LINE",
"303 -132 LINE",
"255 -104 LINE",
"244 -54 LINE",
"262 -10 LINE",
"265 -4 LINE",
"269 1 LINE",
"227 4 LINE",
"188 19 LINE",
"139 36 LINE",
"63 104 LINE",
"19 201 LINE",
"19 262 LINE",
"19 312 LINE",
"48 405 LINE",
"106 476 LINE",
"189 517 LINE",
"244 517 LINE",
"276 513 LINE",
"323 486 LINE",
"354 446 LINE",
"368 394 LINE",
"367 364 LINE",
"367 329 LINE",
"326 273 LINE",
"264 235 LINE",
"191 215 LINE",
"159 215 LINE",
"147 215 LINE",
"124 215 LINE",
"104 223 LINE",
"93 238 LINE",
"93 254 LINE",
"93 259 LINE",
"96 266 LINE",
"109 269 LINE",
"136 267 LINE",
"159 262 LINE",
"173 262 LINE",
"226 280 LINE",
"279 310 LINE",
"318 347 LINE",
"318 366 LINE",
"318 385 LINE",
"306 423 LINE",
"280 452 LINE",
"246 470 LINE",
"225 469 LINE",
"190 466 LINE",
"135 435 LINE",
"95 385 LINE",
"74 323 LINE",
"74 291 LINE",
"74 267 LINE",
"76 215 LINE",
"89 165 LINE",
"117 121 LINE",
"171 87 LINE",
"253 64 LINE",
"313 62 LINE",
"487 73 LINE",
"472 52 LINE",
"425 24 LINE",
"397 16 LINE",
"381 10 LINE",
"364 7 LINE",
"326 -11 LINE",
"312 -27 LINE",
"291 -51 LINE",
"312 -88 LINE",
"389 -109 LINE",
"446 -105 LINE"
);
}
);
width = 517;
}
);
unicode = 0119;
},
{
glyphname = f;
lastChange = "2016-08-24 09:53:51 +0000";
layers = (
{
layerId = UUID0;
paths = (
{
closed = 1;
nodes = (
"329 311 LINE",
"350 311 LINE",
"348 291 LINE",
"356 279 LINE",
"338 262 LINE",
"295 253 LINE",
"230 254 LINE",
"192 262 LINE",
"192 225 LINE",
"227 160 LINE",
"268 102 LINE",
"303 47 LINE",
"303 19 LINE",
"303 7 LINE",
"288 -1 LINE",
"276 -1 LINE",
"267 -1 LINE",
"245 14 LINE",
"227 35 LINE",
"212 58 LINE",
"208 65 LINE",
"204 73 LINE",
"188 104 LINE",
"170 142 LINE",
"150 185 LINE",
"132 224 LINE",
"117 255 LINE",
"114 262 LINE",
"104 272 LINE",
"99 271 LINE",
"72 266 LINE",
"42 259 LINE",
"16 254 LINE",
"10 253 LINE",
"5 253 LINE",
"-3 253 LINE",
"-9 265 LINE",
"-9 272 LINE",
"-9 289 LINE",
"15 307 LINE",
"48 314 LINE",
"83 317 LINE",
"95 318 LINE",
"93 348 LINE",
"92 428 LINE",
"101 514 LINE",
"124 597 LINE",
"165 663 LINE",
"230 704 LINE",
"277 704 LINE",
"304 704 LINE",
"366 678 LINE",
"420 634 LINE",
"455 581 LINE",
"455 554 LINE",
"433 554 LINE",
"414 554 LINE",
"382 583 LINE",
"350 619 LINE",
"313 648 LINE",
"288 648 LINE",
"256 648 LINE",
"201 619 LINE",
"162 570 LINE",
"142 510 LINE",
"142 479 LINE",
"142 469 LINE",
"160 329 LINE",
"162 327 LINE",
"180 324 LINE",
"218 319 LINE",
"281 313 LINE"
);
}
);
width = 377;
}
);
unicode = 0066;
},
{
glyphname = g;
lastChange = "2016-08-24 09:53:51 +0000";
layers = (
{
layerId = UUID0;
paths = (
{
closed = 1;
nodes = (
"-131 -271 LINE",
"-135 -259 LINE",
"-126 -236 LINE",
"-110 -223 LINE",
"-92 -219 LINE",
"-79 -228 LINE",
"-76 -251 LINE",
"-84 -271 LINE",
"-84 -294 LINE",
"-48 -334 LINE",
"10 -368 LINE",
"77 -395 LINE",
"142 -414 LINE",
"192 -424 LINE",
"203 -424 LINE",
"228 -424 LINE",
"262 -398 LINE",
"286 -357 LINE",
"300 -306 LINE",
"309 -254 LINE",
"311 -205 LINE",
"311 -188 LINE",
"311 -181 LINE",
"308 -139 LINE",
"302 -84 LINE",
"294 -25 LINE",
"284 24 LINE",
"273 57 LINE",
"268 57 LINE",
"257 57 LINE",
"231 45 LINE",
"203 30 LINE",
"174 19 LINE",
"159 19 LINE",
"132 19 LINE",
"80 42 LINE",
"42 80 LINE",
"19 131 LINE",
"19 158 LINE",
"19 201 LINE",
"53 291 LINE",
"112 365 LINE",
"193 412 LINE",
"239 412 LINE",
"274 402 LINE",
"317 333 LINE",
"343 231 LINE",
"353 106 LINE",
"357 -22 LINE",
"360 -146 LINE",
"366 -196 LINE",
"366 -219 LINE",
"361 -280 LINE",
"350 -345 LINE",
"329 -408 LINE",
"296 -458 LINE",
"248 -488 LINE",
"217 -488 LINE",
"191 -488 LINE",
"120 -477 LINE",
"43 -451 LINE",
"-33 -415 LINE",
"-94 -366 LINE",
"-131 -307 LINE"
);
},
{
closed = 1;
nodes = (
"74 175 LINE",
"74 157 LINE",
"85 125 LINE",
"105 100 LINE",
"136 85 LINE",
"154 85 LINE",
"204 85 LINE",
"256 124 LINE",
"275 183 LINE",
"274 249 LINE",
"272 276 LINE",
"272 290 LINE",
"269 317 LINE",
"257 341 LINE",
"236 355 LINE",
"221 355 LINE",
"188 355 LINE",
"134 319 LINE",
"95 265 LINE",
"74 202 LINE"
);
}
);
width = 366;
}
);
unicode = 0067;
},
{
glyphname = h;
lastChange = "2016-08-24 09:53:51 +0000";
layers = (
{
layerId = UUID0;
paths = (
{
closed = 1;
nodes = (
"320 18 LINE",
"323 42 LINE",
"326 98 LINE",
"329 152 LINE",
"329 205 LINE",
"329 227 LINE",
"329 259 LINE",
"313 314 LINE",
"279 356 LINE",
"229 381 LINE",
"195 381 LINE",
"182 381 LINE",
"162 377 LINE",
"142 368 LINE",
"120 354 LINE",
"104 343 LINE",
"104 341 LINE",
"103 330 LINE",
"103 329 LINE",
"103 307 LINE",
"111 235 LINE",
"121 159 LINE",
"130 87 LINE",
"130 64 LINE",
"130 63 LINE",
"130 51 LINE",
"130 37 LINE",
"130 24 LINE",
"130 22 LINE",
"124 9 LINE",
"107 2 LINE",
"96 2 LINE",
"84 0 LINE",
"72 37 LINE",
"66 107 LINE",
"62 206 LINE",
"53 326 LINE",
"36 460 LINE",
"21 530 LINE",
"13 558 LINE",
"4 596 LINE",
"-4 626 LINE",
"-10 657 LINE",
"-14 681 LINE",
"-14 685 LINE",
"-14 689 LINE",
"-5 695 LINE",
"9 701 LINE",
"21 704 LINE",
"25 704 LINE",
"44 654 LINE",
"66 587 LINE",
"80 539 LINE",
"86 505 LINE",
"89 475 LINE",
"92 440 LINE",
"95 417 LINE",
"146 448 LINE",
"229 455 LINE",
"293 425 LINE",
"341 362 LINE",
"372 284 LINE",
"389 196 LINE",
"394 114 LINE",
"385 45 LINE",
"367 3 LINE",
"338 -4 LINE"
);
}
);
width = 429;
}
);
unicode = 0068;
},
{
glyphname = hbar;
lastChange = "2016-08-24 09:53:51 +0000";
layers = (
{
layerId = UUID0;
paths = (
{
closed = 1;
nodes = (
"88 558 LINE",
"102 558 LINE",
"134 557 LINE",
"161 548 LINE",
"179 528 LINE",
"179 511 LINE",
"179 490 LINE",
"160 490 LINE",
"139 490 LINE",
"121 496 LINE",
"104 501 LINE",
"86 502 LINE",
"87 490 LINE",
"89 475 LINE",
"92 440 LINE",
"95 417 LINE",
"146 448 LINE",
"229 455 LINE",
"293 425 LINE",
"341 362 LINE",
"372 284 LINE",
"389 196 LINE",
"394 114 LINE",
"385 45 LINE",
"367 3 LINE",
"338 -4 LINE",
"320 18 LINE",
"323 42 LINE",
"326 98 LINE",
"329 152 LINE",
"329 205 LINE",
"329 227 LINE",
"329 259 LINE",
"313 314 LINE",
"279 356 LINE",
"229 381 LINE",
"195 381 LINE",
"182 381 LINE",
"162 377 LINE",
"142 368 LINE",
"120 354 LINE",
"104 343 LINE",
"104 341 LINE",
"103 330 LINE",
"103 329 LINE",
"103 307 LINE",
"111 235 LINE",
"121 159 LINE",
"130 87 LINE",
"130 64 LINE",
"130 57 LINE",
"130 51 LINE",
"130 37 LINE",
"130 30 LINE",
"130 22 LINE",
"124 9 LINE",
"107 2 LINE",
"96 2 LINE",
"84 0 LINE",
"72 37 LINE",
"66 107 LINE",
"62 206 LINE",
"53 326 LINE",
"44 393 LINE",
"37 443 LINE",
"27 497 LINE",
"13 494 LINE",
"0 491 LINE",
"-17 487 LINE",
"-52 481 LINE",
"-80 481 LINE",
"-80 516 LINE",
"-55 546 LINE",
"-14 555 LINE",
"13 555 LINE",
"10 566 LINE",
"8 576 LINE",
"4 596 LINE",
"-4 626 LINE",
"-10 657 LINE",
"-14 681 LINE",
"-14 685 LINE",
"-14 689 LINE",
"-5 695 LINE",
"9 701 LINE",
"21 704 LINE",
"25 704 LINE",
"44 654 LINE",
"66 587 LINE",
"73 563 LINE",
"74 561 LINE",
"75 558 LINE",
"84 558 LINE"
);
}
);
width = 429;
}
);
unicode = 0127;
},
{
glyphname = i;
lastChange = "2016-08-24 09:53:51 +0000";
layers = (
{
layerId = UUID0;
paths = (
{
closed = 1;
nodes = (
"62 338 LINE",
"62 342 LINE",
"62 363 LINE",
"63 387 LINE",
"63 408 LINE",
"63 412 LINE",
"58 442 LINE",
"80 442 LINE",
"91 442 LINE",
"104 433 LINE",
"109 423 LINE",
"106 371 LINE",
"121 276 LINE",
"140 185 LINE",
"156 91 LINE",
"156 40 LINE",
"156 27 LINE",
"140 -1 LINE",
"123 -1 LINE",
"110 -1 LINE",
"92 43 LINE",
"78 110 LINE",
"68 192 LINE",
"63 268 LINE",
"62 326 LINE"
);
},
{
closed = 1;
nodes = (
"12 583 LINE",
"12 595 LINE",
"24 602 LINE",
"36 602 LINE",
"42 603 LINE",
"65 584 LINE",
"80 561 LINE",
"82 540 LINE",
"66 537 LINE",
"62 537 LINE",
"47 537 LINE",
"27 540 LINE",
"17 550 LINE",
"12 567 LINE"
);
}
);
width = 175;
}
);
unicode = 0069;
},
{
glyphname = dotlessi;
lastChange = "2016-08-24 09:53:51 +0000";
layers = (
{
layerId = UUID0;
paths = (
{
closed = 1;
nodes = (
"62 338 LINE",
"62 353 LINE",
"62 363 LINE",
"63 387 LINE",
"63 396 LINE",
"63 412 LINE",
"58 442 LINE",
"80 442 LINE",
"91 442 LINE",
"104 433 LINE",
"109 423 LINE",
"106 371 LINE",
"121 276 LINE",
"140 185 LINE",
"156 91 LINE",
"156 40 LINE",
"156 27 LINE",
"140 -1 LINE",
"123 -1 LINE",
"110 -1 LINE",
"92 43 LINE",
"78 110 LINE",
"68 192 LINE",
"63 268 LINE",
"62 326 LINE"
);
}
);
width = 175;
}
);
unicode = 0131;
},
{
glyphname = iacute;
lastChange = "2016-08-24 09:53:51 +0000";
layers = (
{
layerId = UUID0;
paths = (
{
closed = 1;
nodes = (
"62 338 LINE",
"62 353 LINE",
"62 363 LINE",
"63 387 LINE",
"63 396 LINE",
"63 412 LINE",
"58 442 LINE",
"80 442 LINE",
"91 442 LINE",
"104 433 LINE",
"109 423 LINE",
"106 371 LINE",
"121 276 LINE",
"140 185 LINE",
"156 91 LINE",
"156 40 LINE",
"156 27 LINE",
"140 -1 LINE",
"123 -1 LINE",
"110 -1 LINE",
"92 43 LINE",
"78 110 LINE",
"68 192 LINE",
"63 268 LINE",
"62 326 LINE"
);
},
{
closed = 1;
nodes = (
"-11 493 LINE",
"-11 514 LINE",
"21 551 LINE",
"63 584 LINE",
"109 613 LINE",
"125 625 LINE",
"146 615 LINE",
"141 588 LINE",
"104 551 LINE",
"45 502 LINE",
"13 470 LINE",
"-2 470 LINE",
"-11 479 LINE"
);
}
);
width = 175;
}
);
unicode = 00ED;
},
{
glyphname = ibreve;
lastChange = "2016-08-24 09:53:51 +0000";
layers = (
{
layerId = UUID0;
paths = (
{
closed = 1;
nodes = (
"62 338 LINE",
"62 353 LINE",
"62 363 LINE",
"63 387 LINE",
"63 396 LINE",
"63 412 LINE",
"58 442 LINE",
"80 442 LINE",
"91 442 LINE",
"104 433 LINE",
"109 423 LINE",
"106 371 LINE",
"121 276 LINE",
"140 185 LINE",
"156 91 LINE",
"156 40 LINE",
"156 27 LINE",
"140 -1 LINE",
"123 -1 LINE",
"110 -1 LINE",
"92 43 LINE",
"78 110 LINE",
"68 192 LINE",
"63 268 LINE",
"62 326 LINE"
);
},
{
closed = 1;
nodes = (
"162 603 LINE",
"165 597 LINE",
"168 597 LINE",
"168 592 LINE",
"168 572 LINE",
"150 540 LINE",
"124 519 LINE",
"89 507 LINE",
"70 507 LINE",
"33 507 LINE",
"-16 551 LINE",
"-16 588 LINE",
"-16 596 LINE",
"-4 595 LINE",
"9 593 LINE",
"15 590 LINE",
"16 588 LINE",
"16 587 LINE",
"16 571 LINE",
"36 554 LINE",
"67 548 LINE",
"101 552 LINE",
"124 566 LINE",
"132 590 LINE",
"122 605 LINE"
);
}
);
width = 175;
}
);
unicode = 012D;
},
{
glyphname = icircumflex;
lastChange = "2016-08-24 09:53:51 +0000";
layers = (
{
layerId = UUID0;
paths = (
{
closed = 1;
nodes = (
"62 338 LINE",
"62 353 LINE",
"62 363 LINE",
"63 387 LINE",
"63 396 LINE",
"63 412 LINE",
"58 442 LINE",
"80 442 LINE",
"91 442 LINE",
"104 433 LINE",
"109 423 LINE",
"106 371 LINE",
"121 276 LINE",
"140 185 LINE",
"156 91 LINE",
"156 40 LINE",
"156 27 LINE",
"140 -1 LINE",
"123 -1 LINE",
"110 -1 LINE",
"92 43 LINE",
"78 110 LINE",
"68 192 LINE",
"63 268 LINE",
"62 326 LINE"
);
},
{
closed = 1;
nodes = (
"91 619 LINE",
"72 596 LINE",
"30 550 LINE",
"-8 525 LINE",
"-40 531 LINE",
"-48 559 LINE",
"-20 584 LINE",
"19 615 LINE",
"45 646 LINE",
"63 687 LINE",
"71 722 LINE",
"74 729 LINE",
"86 731 LINE",
"92 731 LINE",
"105 731 LINE",
"119 719 LINE",
"128 704 LINE",
"134 694 LINE",
"155 669 LINE",
"178 644 LINE",
"198 619 LINE",
"204 610 LINE",
"211 600 LINE",
"218 587 LINE",
"222 576 LINE",
"224 564 LINE",
"224 555 LINE",
"224 542 LINE",
"218 525 LINE",
"204 525 LINE",
"189 525 LINE",
"165 546 LINE",
"139 575 LINE",
"109 607 LINE"
);
}
);
width = 175;
}
);
unicode = 00EE;
},
{
glyphname = idieresis;
lastChange = "2016-08-24 09:53:51 +0000";
layers = (
{
layerId = UUID0;
paths = (
{
closed = 1;
nodes = (
"62 338 LINE",
"62 353 LINE",
"62 363 LINE",
"63 387 LINE",
"63 396 LINE",
"63 412 LINE",
"58 442 LINE",
"80 442 LINE",
"91 442 LINE",
"104 433 LINE",
"109 423 LINE",
"106 371 LINE",
"121 276 LINE",
"140 185 LINE",
"156 91 LINE",
"156 40 LINE",
"156 27 LINE",
"140 -1 LINE",
"123 -1 LINE",
"110 -1 LINE",
"92 43 LINE",
"78 110 LINE",
"68 192 LINE",
"63 268 LINE",
"62 326 LINE"
);
},
{
closed = 1;
nodes = (
"106 534 LINE",
"106 539 LINE",
"116 555 LINE",
"130 572 LINE",
"145 584 LINE",
"150 584 LINE",
"165 584 LINE",
"187 573 LINE",
"200 558 LINE",
"208 538 LINE",
"208 529 LINE",
"208 523 LINE",
"198 509 LINE",
"183 496 LINE",
"163 487 LINE",
"153 487 LINE",
"143 487 LINE",
"125 498 LINE",
"113 513 LINE",
"106 528 LINE"
);
},
{
closed = 1;
nodes = (
"-49 534 LINE",
"-49 539 LINE",
"-40 555 LINE",
"-26 572 LINE",
"-12 584 LINE",
"-7 584 LINE",
"9 584 LINE",
"30 573 LINE",
"45 558 LINE",
"52 538 LINE",
"52 529 LINE",
"52 523 LINE",
"42 509 LINE",
"26 496 LINE",
"7 487 LINE",
"-2 487 LINE",
"-14 487 LINE",
"-31 498 LINE",
"-43 513 LINE",
"-49 528 LINE"
);
}
);
width = 175;
}
);
unicode = 00EF;
},
{
glyphname = igrave;
lastChange = "2016-08-24 09:53:51 +0000";
layers = (
{
layerId = UUID0;
paths = (
{
closed = 1;
nodes = (
"62 338 LINE",
"62 353 LINE",
"62 363 LINE",
"63 387 LINE",
"63 396 LINE",
"63 412 LINE",
"58 442 LINE",
"80 442 LINE",
"91 442 LINE",
"104 433 LINE",
"109 423 LINE",
"106 371 LINE",
"121 276 LINE",
"140 185 LINE",
"156 91 LINE",
"156 40 LINE",
"156 27 LINE",
"140 -1 LINE",
"123 -1 LINE",
"110 -1 LINE",
"92 43 LINE",
"78 110 LINE",
"68 192 LINE",
"63 268 LINE",
"62 326 LINE"
);
},
{
closed = 1;
nodes = (
"82 575 LINE",
"94 566 LINE",
"106 555 LINE",
"117 544 LINE",
"130 532 LINE",
"142 522 LINE",
"144 521 LINE",
"150 508 LINE",
"150 505 LINE",
"150 484 LINE",
"137 476 LINE",
"123 476 LINE",
"121 476 LINE",
"114 479 LINE",
"95 492 LINE",
"63 521 LINE",
"35 547 LINE",
"27 558 LINE",
"14 583 LINE",
"18 597 LINE",
"47 593 LINE"
);
}
);
width = 175;
}
);
unicode = 00EC;
},
{
glyphname = imacron;
lastChange = "2016-08-24 09:53:51 +0000";
layers = (
{
layerId = UUID0;
paths = (
{
closed = 1;
nodes = (
"62 338 LINE",
"62 353 LINE",
"62 363 LINE",
"63 387 LINE",
"63 396 LINE",
"63 412 LINE",
"58 442 LINE",
"80 442 LINE",
"91 442 LINE",
"104 433 LINE",
"109 423 LINE",
"106 371 LINE",
"121 276 LINE",
"140 185 LINE",
"156 91 LINE",
"156 40 LINE",
"156 27 LINE",
"140 -1 LINE",
"123 -1 LINE",
"110 -1 LINE",
"92 43 LINE",
"78 110 LINE",
"68 192 LINE",
"63 268 LINE",
"62 326 LINE"
);
},
{
closed = 1;
nodes = (
"123 603 LINE",
"137 603 LINE",
"169 602 LINE",
"196 593 LINE",
"214 573 LINE",
"214 556 LINE",
"214 535 LINE",
"195 535 LINE",
"174 535 LINE",
"138 546 LINE",
"115 546 LINE",
"86 546 LINE",
"51 540 LINE",
"19 532 LINE",
"-17 525 LINE",
"-45 525 LINE",
"-45 561 LINE",
"-20 590 LINE",
"21 600 LINE",
"74 599 LINE",
"101 602 LINE",
"102 602 LINE",
"119 603 LINE"
);
}
);
width = 175;
}
);
unicode = 012B;
},
{
glyphname = iogonek;
lastChange = "2016-08-24 09:53:51 +0000";
layers = (
{
layerId = UUID0;
paths = (
{
closed = 1;
nodes = (
"169 -145 LINE",
"118 -146 LINE",
"39 -138 LINE",
"-8 -110 LINE",
"-20 -60 LINE",
"-1 -16 LINE",
"7 -2 LINE",
"28 16 LINE",
"54 28 LINE",
"68 33 LINE",
"80 38 LINE",
"93 43 LINE",
"89 59 LINE",
"85 77 LINE",
"78 110 LINE",
"68 192 LINE",
"63 268 LINE",
"62 326 LINE",
"62 338 LINE",
"62 353 LINE",
"62 363 LINE",
"63 387 LINE",
"63 396 LINE",
"63 412 LINE",
"58 442 LINE",
"80 442 LINE",
"91 442 LINE",
"104 433 LINE",
"109 423 LINE",
"106 371 LINE",
"121 276 LINE",
"140 185 LINE",
"156 91 LINE",
"156 40 LINE",
"156 27 LINE",
"140 -1 LINE",
"123 -1 LINE",
"116 -1 LINE",
"110 5 LINE",
"65 -14 LINE",
"48 -33 LINE",
"27 -57 LINE",
"49 -94 LINE",
"126 -115 LINE",
"184 -111 LINE"
);
},
{
closed = 1;
nodes = (
"12 583 LINE",
"12 595 LINE",
"24 602 LINE",
"36 602 LINE",
"42 603 LINE",
"65 584 LINE",
"80 561 LINE",
"82 540 LINE",
"66 537 LINE",
"62 537 LINE",
"47 537 LINE",
"27 540 LINE",
"17 550 LINE",
"12 567 LINE"
);
}
);
width = 175;
}
);
unicode = 012F;
},
{
glyphname = itilde;
lastChange = "2016-08-24 09:53:51 +0000";
layers = (
{
layerId = UUID0;
paths = (
{
closed = 1;
nodes = (
"62 338 LINE",
"62 353 LINE",
"62 363 LINE",
"63 387 LINE",
"63 396 LINE",
"63 412 LINE",
"58 442 LINE",
"80 442 LINE",
"91 442 LINE",
"104 433 LINE",
"109 423 LINE",
"106 371 LINE",
"121 276 LINE",
"140 185 LINE",
"156 91 LINE",
"156 40 LINE",
"156 27 LINE",
"140 -1 LINE",
"123 -1 LINE",
"110 -1 LINE",
"92 43 LINE",
"78 110 LINE",
"68 192 LINE",
"63 268 LINE",
"62 326 LINE"
);
},
{
closed = 1;
nodes = (
"212 553 LINE",
"186 543 LINE",
"146 553 LINE",
"109 576 LINE",
"74 604 LINE",
"54 614 LINE",
"26 616 LINE",
"1 594 LINE",
"-9 562 LINE",
"-8 528 LINE",
"-12 511 LINE",
"-25 516 LINE",
"-46 539 LINE",
"-54 563 LINE",
"-46 604 LINE",
"-22 635 LINE",
"13 654 LINE",
"33 654 LINE",
"36 655 LINE",
"46 655 LINE",
"69 647 LINE",
"108 628 LINE",
"139 609 LINE",
"157 599 LINE",
"180 596 LINE",
"195 602 LINE",
"204 605 LINE",
"210 607 LINE",
"210 609 LINE",
"271 656 LINE",
"282 655 LINE",
"295 647 LINE",
"300 637 LINE",
"298 628 LINE",
"295 625 LINE",
"269 603 LINE",
"240 576 LINE",
"227 563 LINE",
"224 558 LINE",
"223 556 LINE",
"219 555 LINE"
);
}
);
width = 175;
}
);
unicode = 0129;
},
{
glyphname = j;
lastChange = "2016-08-24 09:53:51 +0000";
layers = (
{
layerId = UUID0;
paths = (
{
closed = 1;
nodes = (
"143 -448 LINE",
"96 -436 LINE",
"10 -377 LINE",
"-59 -297 LINE",
"-104 -200 LINE",
"-110 -149 LINE",
"-110 -143 LINE",
"-110 -131 LINE",
"-108 -119 LINE",
"-101 -109 LINE",
"-92 -107 LINE",
"-79 -113 LINE",
"-55 -157 LINE",
"-28 -215 LINE",
"4 -279 LINE",
"45 -333 LINE",
"98 -368 LINE",
"131 -368 LINE",
"142 -368 LINE",
"156 -356 LINE",
"165 -339 LINE",
"168 -319 LINE",
"168 -312 LINE",
"171 -225 LINE",
"150 -55 LINE",
"118 115 LINE",
"86 284 LINE",
"79 367 LINE",
"80 374 LINE",
"81 384 LINE",
"86 391 LINE",
"96 394 LINE",
"106 394 LINE",
"116 388 LINE",
"140 331 LINE",
"163 243 LINE",
"187 131 LINE",
"206 8 LINE",
"220 -119 LINE",
"225 -238 LINE",
"220 -342 LINE",
"201 -415 LINE",
"168 -453 LINE"
);
},
{
closed = 1;
nodes = (
"28 563 LINE",
"28 567 LINE",
"43 581 LINE",
"48 583 LINE",
"62 586 LINE",
"80 573 LINE",
"92 552 LINE",
"98 527 LINE",
"98 518 LINE",
"86 508 LINE",
"63 506 LINE",
"42 520 LINE",
"28 546 LINE"
);
}
);
width = 200;
}
);
unicode = 006A;
},
{
glyphname = jcircumflex;
lastChange = "2016-08-24 09:53:51 +0000";
layers = (
{
layerId = UUID0;
paths = (
{
closed = 1;
nodes = (
"143 -448 LINE",
"96 -436 LINE",
"10 -377 LINE",
"-59 -297 LINE",
"-104 -200 LINE",
"-110 -149 LINE",
"-110 -143 LINE",
"-110 -131 LINE",
"-108 -119 LINE",
"-101 -109 LINE",
"-92 -107 LINE",
"-79 -113 LINE",
"-55 -157 LINE",
"-28 -215 LINE",
"4 -279 LINE",
"45 -333 LINE",
"98 -368 LINE",
"131 -368 LINE",
"142 -368 LINE",
"156 -356 LINE",
"165 -339 LINE",
"168 -319 LINE",
"168 -312 LINE",
"171 -225 LINE",
"150 -55 LINE",
"118 115 LINE",
"86 284 LINE",
"79 367 LINE",
"80 374 LINE",
"81 384 LINE",
"86 391 LINE",
"96 394 LINE",
"106 394 LINE",
"116 388 LINE",
"140 331 LINE",
"163 243 LINE",
"187 131 LINE",
"206 8 LINE",
"220 -119 LINE",
"225 -238 LINE",
"220 -342 LINE",
"201 -415 LINE",
"168 -453 LINE"
);
},
{
closed = 1;
nodes = (
"104 619 LINE",
"85 596 LINE",
"43 550 LINE",
"4 525 LINE",
"-27 531 LINE",
"-35 559 LINE",
"-8 584 LINE",
"30 615 LINE",
"57 646 LINE",
"75 687 LINE",
"84 722 LINE",
"86 729 LINE",
"98 731 LINE",
"104 731 LINE",
"118 731 LINE",
"132 719 LINE",
"141 704 LINE",
"146 694 LINE",
"168 669 LINE",
"190 644 LINE",
"211 619 LINE",
"217 610 LINE",
"224 600 LINE",
"230 587 LINE",
"234 576 LINE",
"235 564 LINE",
"235 555 LINE",
"235 542 LINE",
"230 525 LINE",
"217 525 LINE",
"202 525 LINE",
"177 546 LINE",
"151 575 LINE",
"121 607 LINE"
);
}
);
width = 200;
}
);
unicode = 0135;
},
{
glyphname = k;
lastChange = "2016-08-24 09:53:51 +0000";
layers = (
{
layerId = UUID0;
paths = (
{
closed = 1;
nodes = (
"48 28 LINE",
"48 30 LINE",
"51 47 LINE",
"54 65 LINE",
"57 83 LINE",
"57 85 LINE",
"57 86 LINE",
"57 104 LINE",
"58 125 LINE",
"58 147 LINE",
"58 154 LINE",
"58 160 LINE",
"58 180 LINE",
"57 200 LINE",
"57 215 LINE",
"57 216 LINE",
"54 261 LINE",
"37 361 LINE",
"19 461 LINE",
"1 557 LINE",
"-2 597 LINE",
"7 620 LINE",
"27 604 LINE",
"49 551 LINE",
"70 470 LINE",
"87 386 LINE",
"101 312 LINE",
"104 291 LINE",
"105 289 LINE",
"116 288 LINE",
"118 288 LINE",
"137 288 LINE",
"167 313 LINE",
"193 349 LINE",
"218 391 LINE",
"246 426 LINE",
"279 450 LINE",
"301 450 LINE",
"314 450 LINE",
"320 434 LINE",
"319 423 LINE",
"306 411 LINE",
"271 377 LINE",
"229 336 LINE",
"190 291 LINE",
"159 249 LINE",
"140 210 LINE",
"140 195 LINE",
"140 174 LINE",
"168 139 LINE",
"212 109 LINE",
"267 89 LINE",
"321 74 LINE",
"370 66 LINE",
"385 65 LINE",
"394 63 LINE",
"396 49 LINE",
"396 42 LINE",
"396 27 LINE",
"377 13 LINE",
"351 7 LINE",
"322 8 LINE",
"312 8 LINE",
"290 8 LINE",
"235 35 LINE",
"184 67 LINE",
"144 95 LINE",
"136 95 LINE",
"121 95 LINE",
"110 64 LINE",
"106 29 LINE",
"98 -1 LINE",
"83 -1 LINE",
"70 -1 LINE",
"48 13 LINE"
);
}
);
width = 403;
}
);
unicode = 006B;
},
{
glyphname = l;
lastChange = "2016-08-24 09:53:51 +0000";
layers = (
{
layerId = UUID0;
paths = (
{
closed = 1;
nodes = (
"40 7 LINE",
"30 77 LINE",
"24 215 LINE",
"25 353 LINE",
"29 490 LINE",
"28 559 LINE",
"28 566 LINE",
"40 572 LINE",
"48 572 LINE",
"57 572 LINE",
"70 560 LINE",
"80 541 LINE",
"85 522 LINE",
"85 517 LINE",
"91 376 LINE",
"95 190 LINE",
"91 76 LINE",
"82 21 LINE",
"68 1 LINE",
"51 5 LINE"
);
}
);
width = 120;
}
);
unicode = 006C;
},
{
glyphname = lslash;
lastChange = "2016-08-24 09:53:51 +0000";
layers = (
{
layerId = UUID0;
paths = (
{
closed = 1;
nodes = (
"50 20 LINE",
"41 80 LINE",
"34 199 LINE",
"34 259 LINE",
"9 241 LINE",
"-28 212 LINE",
"-54 200 LINE",
"-67 215 LINE",
"-69 241 LINE",
"34 313 LINE",
"35 379 LINE",
"38 506 LINE",
"37 570 LINE",
"37 579 LINE",
"50 585 LINE",
"57 585 LINE",
"65 585 LINE",
"80 572 LINE",
"89 553 LINE",
"94 534 LINE",
"94 528 LINE",
"95 479 LINE",
"98 396 LINE",
"100 358 LINE",
"147 394 LINE",
"147 388 LINE",
"159 365 LINE",
"173 342 LINE",
"181 324 LINE",
"177 324 LINE",
"155 320 LINE",
"118 307 LINE",
"101 299 LINE",
"103 220 LINE",
"101 115 LINE",
"95 52 LINE",
"86 22 LINE",
"73 14 LINE",
"58 18 LINE"
);
}
);
width = 120;
}
);
unicode = 0142;
},
{
glyphname = m;
lastChange = "2016-08-24 09:53:51 +0000";
layers = (
{
layerId = UUID0;
paths = (
{
closed = 1;
nodes = (
"655 34 LINE",
"655 37 LINE",
"656 47 LINE",
"656 57 LINE",
"657 65 LINE",
"657 65 LINE",
"657 68 LINE",
"660 97 LINE",
"663 128 LINE",
"666 156 LINE",
"666 159 LINE",
"664 180 LINE",
"650 247 LINE",
"622 312 LINE",
"579 358 LINE",
"550 358 LINE",
"523 358 LINE",
"466 332 LINE",
"416 290 LINE",
"384 235 LINE",
"384 206 LINE",
"384 191 LINE",
"394 164 LINE",
"404 136 LINE",
"414 107 LINE",
"414 92 LINE",
"414 80 LINE",
"405 57 LINE",
"389 57 LINE",
"371 57 LINE",
"349 98 LINE",
"329 161 LINE",
"310 233 LINE",
"279 297 LINE",
"235 338 LINE",
"201 338 LINE",
"175 338 LINE",
"134 315 LINE",
"106 278 LINE",
"93 231 LINE",
"93 207 LINE",
"93 168 LINE",
"104 93 LINE",
"104 55 LINE",
"104 41 LINE",
"98 19 LINE",
"81 19 LINE",
"70 19 LINE",
"56 29 LINE",
"46 46 LINE",
"40 65 LINE",
"38 74 LINE",
"39 115 LINE",
"36 183 LINE",
"32 244 LINE",
"27 307 LINE",
"27 342 LINE",
"27 344 LINE",
"27 354 LINE",
"28 364 LINE",
"28 373 LINE",
"28 375 LINE",
"29 376 LINE",
"36 383 LINE",
"38 385 LINE",
"42 385 LINE",
"60 385 LINE",
"75 362 LINE",
"75 347 LINE",
"92 364 LINE",
"115 383 LINE",
"138 393 LINE",
"162 395 LINE",
"180 395 LINE",
"208 395 LINE",
"253 383 LINE",
"291 360 LINE",
"323 324 LINE",
"338 300 LINE",
"339 300 LINE",
"342 300 LINE",
"343 300 LINE",
"344 300 LINE",
"361 317 LINE",
"391 345 LINE",
"429 377 LINE",
"473 404 LINE",
"517 423 LINE",
"539 423 LINE",
"572 423 LINE",
"624 396 LINE",
"665 350 LINE",
"694 292 LINE",
"714 230 LINE",
"723 170 LINE",
"723 145 LINE",
"723 135 LINE",
"722 87 LINE",
"713 37 LINE",
"693 -1 LINE",
"676 -1 LINE",
"667 -1 LINE",
"659 6 LINE",
"655 16 LINE",
"655 27 LINE"
);
}
);
width = 750;
}
);
unicode = 006D;
},
{
glyphname = n;
lastChange = "2016-08-24 09:53:51 +0000";
layers = (
{
layerId = UUID0;
paths = (
{
closed = 1;
nodes = (
"28 381 LINE",
"28 390 LINE",
"41 395 LINE",
"48 395 LINE",
"54 395 LINE",
"60 388 LINE",
"62 381 LINE",
"65 374 LINE",
"70 374 LINE",
"84 374 LINE",
"123 396 LINE",
"169 421 LINE",
"221 442 LINE",
"246 442 LINE",
"279 442 LINE",
"335 408 LINE",
"379 352 LINE",
"410 281 LINE",
"432 208 LINE",
"441 139 LINE",
"441 113 LINE",
"441 104 LINE",
"438 69 LINE",
"432 34 LINE",
"416 8 LINE",
"404 8 LINE",
"402 8 LINE",
"393 9 LINE",
"383 12 LINE",
"376 16 LINE",
"376 19 LINE",
"385 95 LINE",
"367 227 LINE",
"328 326 LINE",
"271 385 LINE",
"239 385 LINE",
"209 385 LINE",
"156 364 LINE",
"117 328 LINE",
"95 275 LINE",
"95 244 LINE",
"95 213 LINE",
"106 151 LINE",
"121 90 LINE",
"133 27 LINE",
"133 -4 LINE",
"105 -4 LINE",
"68 41 LINE",
"46 111 LINE",
"33 199 LINE",
"28 284 LINE",
"28 358 LINE"
);
}
);
width = 460;
}
);
unicode = 006E;
},
{
glyphname = o;
lastChange = "2016-08-24 09:53:51 +0000";
layers = (
{
layerId = UUID0;
paths = (
{
closed = 1;
nodes = (
"19 199 LINE",
"19 253 LINE",
"65 333 LINE",
"142 388 LINE",
"236 414 LINE",
"284 414 LINE",
"309 414 LINE",
"354 396 LINE",
"394 363 LINE",
"425 321 LINE",
"446 276 LINE",
"459 229 LINE",
"459 209 LINE",
"459 159 LINE",
"420 81 LINE",
"354 27 LINE",
"270 -1 LINE",
"226 -1 LINE",
"181 -1 LINE",
"105 27 LINE",
"50 78 LINE",
"19 153 LINE"
);
},
{
closed = 1;
nodes = (
"65 206 LINE",
"65 177 LINE",
"89 121 LINE",
"129 80 LINE",
"183 56 LINE",
"215 56 LINE",
"231 54 LINE",
"279 68 LINE",
"327 97 LINE",
"371 137 LINE",
"399 185 LINE",
"407 235 LINE",
"382 288 LINE",
"318 336 LINE",
"262 356 LINE",
"229 356 LINE",
"160 338 LINE",
"104 300 LINE",
"65 244 LINE"
);
}
);
width = 487;
}
);
unicode = 006F;
},
{
glyphname = oslash;
lastChange = "2016-08-24 09:53:51 +0000";
layers = (
{
layerId = UUID0;
paths = (
{
closed = 1;
nodes = (
"56 21 LINE",
"56 28 LINE",
"63 41 LINE",
"68 48 LINE",
"73 57 LINE",
"48 80 LINE",
"33 115 LINE",
"19 153 LINE",
"19 199 LINE",
"19 253 LINE",
"65 333 LINE",
"142 388 LINE",
"236 414 LINE",
"284 414 LINE",
"300 414 LINE",
"314 411 LINE",
"317 419 LINE",
"320 426 LINE",
"326 438 LINE",
"345 458 LINE",
"359 461 LINE",
"369 460 LINE",
"379 454 LINE",
"382 446 LINE",
"382 438 LINE",
"382 434 LINE",
"382 425 LINE",
"370 400 LINE",
"367 394 LINE",
"364 387 LINE",
"368 383 LINE",
"373 379 LINE",
"394 363 LINE",
"425 321 LINE",
"446 276 LINE",
"459 229 LINE",
"459 209 LINE",
"459 159 LINE",
"420 81 LINE",
"354 27 LINE",
"270 -1 LINE",
"226 -1 LINE",
"181 -1 LINE",
"143 13 LINE",
"132 17 LINE",
"121 21 LINE",
"118 19 LINE",
"115 17 LINE",
"98 0 LINE",
"89 0 LINE",
"74 0 LINE",
"56 14 LINE"
);
},
{
closed = 1;
nodes = (
"215 56 LINE",
"231 54 LINE",
"279 68 LINE",
"327 97 LINE",
"371 137 LINE",
"399 185 LINE",
"407 235 LINE",
"382 288 LINE",
"350 312 LINE",
"342 318 LINE",
"332 324 LINE",
"317 301 LINE",
"302 274 LINE",
"279 236 LINE",
"229 159 LINE",
"203 124 LINE",
"180 92 LINE",
"159 65 LINE",
"186 56 LINE"
);
},
{
closed = 1;
nodes = (
"65 206 LINE",
"65 177 LINE",
"89 121 LINE",
"108 101 LINE",
"109 99 LINE",
"121 109 LINE",
"283 349 LINE",
"273 353 LINE",
"262 356 LINE",
"229 356 LINE",
"160 338 LINE",
"104 300 LINE",
"65 244 LINE"
);
}
);
width = 487;
}
);
unicode = 00F8;
},
{
glyphname = oslashacute;
lastChange = "2016-08-24 09:53:51 +0000";
layers = (
{
layerId = UUID0;
paths = (
{
closed = 1;
nodes = (
"101 19 LINE",
"101 23 LINE",
"104 31 LINE",
"90 41 LINE",
"77 53 LINE",
"50 78 LINE",
"19 153 LINE",
"19 199 LINE",
"19 253 LINE",
"65 333 LINE",
"142 388 LINE",
"236 414 LINE",
"284 414 LINE",
"309 414 LINE",
"331 405 LINE",
"350 396 LINE",
"365 385 LINE",
"365 387 LINE",
"366 388 LINE",
"372 399 LINE",
"391 417 LINE",
"405 420 LINE",
"415 419 LINE",
"425 413 LINE",
"429 405 LINE",
"428 398 LINE",
"428 395 LINE",
"428 387 LINE",
"417 364 LINE",
"412 355 LINE",
"406 345 LINE",
"408 342 LINE",
"425 321 LINE",
"446 276 LINE",
"459 229 LINE",
"459 209 LINE",
"459 159 LINE",
"420 81 LINE",
"354 27 LINE",
"270 -1 LINE",
"226 -1 LINE",
"187 -1 LINE",
"153 10 LINE",
"141 0 LINE",
"133 0 LINE",
"119 0 LINE",
"101 13 LINE"
);
},
{
closed = 1;
nodes = (
"65 206 LINE",
"65 177 LINE",
"89 121 LINE",
"108 101 LINE",
"123 86 LINE",
"140 75 LINE",
"147 83 LINE",
"159 95 LINE",
"165 101 LINE",
"333 323 LINE",
"305 341 LINE",
"262 356 LINE",
"229 356 LINE",
"160 338 LINE",
"104 300 LINE",
"65 244 LINE"
);
},
{
closed = 1;
nodes = (
"215 56 LINE",
"231 54 LINE",
"279 68 LINE",
"327 97 LINE",
"371 137 LINE",
"399 185 LINE",
"407 235 LINE",
"395 262 LINE",
"388 276 LINE",
"374 291 LINE",
"362 271 LINE",
"348 250 LINE",
"324 216 LINE",
"274 146 LINE",
"224 80 LINE",
"201 56 LINE"
);
},
{
closed = 1;
nodes = (
"174 471 LINE",
"174 491 LINE",
"206 528 LINE",
"249 562 LINE",
"295 591 LINE",
"311 604 LINE",
"331 593 LINE",
"326 566 LINE",
"289 528 LINE",
"230 479 LINE",
"198 447 LINE",
"184 447 LINE",
"174 457 LINE"
);
}
);
width = 487;
}
);
unicode = 01FF;
},
{
glyphname = oe;
lastChange = "2016-08-24 09:53:51 +0000";
layers = (
{
layerId = UUID0;
paths = (
{
closed = 1;
nodes = (
"19 199 LINE",
"19 253 LINE",
"65 333 LINE",
"142 388 LINE",
"236 414 LINE",
"284 414 LINE",
"309 414 LINE",
"354 396 LINE",
"394 363 LINE",
"408 342 LINE",
"410 340 LINE",
"411 338 LINE",
"426 376 LINE",
"450 405 LINE",
"479 440 LINE",
"563 481 LINE",
"617 481 LINE",
"649 478 LINE",
"697 451 LINE",
"728 411 LINE",
"742 358 LINE",
"741 329 LINE",
"741 294 LINE",
"699 238 LINE",
"637 200 LINE",
"564 180 LINE",
"533 180 LINE",
"521 180 LINE",
"497 180 LINE",
"479 188 LINE",
"467 203 LINE",
"467 219 LINE",
"467 224 LINE",
"470 230 LINE",
"482 233 LINE",
"509 231 LINE",
"533 227 LINE",
"546 227 LINE",
"599 245 LINE",
"652 274 LINE",
"692 312 LINE",
"692 331 LINE",
"692 350 LINE",
"679 388 LINE",
"654 417 LINE",
"619 435 LINE",
"599 434 LINE",
"563 431 LINE",
"508 399 LINE",
"469 350 LINE",
"458 319 LINE",
"449 294 LINE",
"447 270 LINE",
"450 261 LINE",
"452 253 LINE",
"459 229 LINE",
"459 209 LINE",
"459 184 LINE",
"454 161 LINE",
"455 158 LINE",
"455 154 LINE",
"462 130 LINE",
"490 86 LINE",
"544 52 LINE",
"626 29 LINE",
"687 26 LINE",
"861 38 LINE",
"845 17 LINE",
"798 -11 LINE",
"745 -28 LINE",
"691 -35 LINE",
"669 -35 LINE",
"612 -35 LINE",
"512 1 LINE",
"474 35 LINE",
"445 62 LINE",
"425 96 LINE",
"408 72 LINE",
"387 54 LINE",
"354 27 LINE",
"270 -1 LINE",
"226 -1 LINE",
"181 -1 LINE",
"105 27 LINE",
"50 78 LINE",
"19 153 LINE"
);
},
{
closed = 1;
nodes = (
"392 227 LINE",
"392 245 LINE",
"394 264 LINE",
"381 288 LINE",
"350 312 LINE",
"318 336 LINE",
"262 356 LINE",
"229 356 LINE",
"160 338 LINE",
"104 300 LINE",
"65 244 LINE",
"65 206 LINE",
"65 177 LINE",
"89 121 LINE",
"129 80 LINE",
"183 56 LINE",
"215 56 LINE",
"231 54 LINE",
"279 68 LINE",
"327 97 LINE",
"371 137 LINE",
"385 160 LINE",
"391 170 LINE",
"395 180 LINE",
"392 202 LINE"
);
}
);
width = 876;
}
);
unicode = 0153;
},
{
glyphname = p;
lastChange = "2016-08-24 09:53:51 +0000";
layers = (
{
layerId = UUID0;
paths = (
{
closed = 1;
nodes = (
"19 128 LINE",
"19 189 LINE",
"62 273 LINE",
"133 324 LINE",
"228 347 LINE",
"279 347 LINE",
"320 347 LINE",
"400 320 LINE",
"463 271 LINE",
"500 201 LINE",
"500 156 LINE",
"500 117 LINE",
"470 67 LINE",
"420 39 LINE",
"358 27 LINE",
"326 27 LINE",
"295 27 LINE",
"229 33 LINE",
"175 55 LINE",
"140 98 LINE",
"140 136 LINE",
"160 136 LINE",
"198 120 LINE",
"237 101 LINE",
"276 85 LINE",
"297 85 LINE",
"313 85 LINE",
"364 91 LINE",
"410 107 LINE",
"443 136 LINE",
"443 159 LINE",
"443 191 LINE",
"414 241 LINE",
"367 273 LINE",
"309 291 LINE",
"279 291 LINE",
"274 291 LINE",
"245 287 LINE",
"206 278 LINE",
"163 265 LINE",
"127 247 LINE",
"104 224 LINE",
"104 209 LINE",
"104 197 LINE",
"104 186 LINE",
"106 150 LINE",
"109 114 LINE",
"112 87 LINE",
"112 85 LINE",
"115 69 LINE",
"124 4 LINE",
"137 -77 LINE",
"151 -167 LINE",
"165 -248 LINE",
"176 -313 LINE",
"179 -327 LINE",
"179 -329 LINE",
"180 -332 LINE",
"180 -333 LINE",
"180 -334 LINE",
"179 -335 LINE",
"179 -336 LINE",
"179 -338 LINE",
"177 -341 LINE",
"162 -354 LINE",
"159 -356 LINE",
"154 -356 LINE",
"145 -356 LINE",
"123 -319 LINE",
"101 -258 LINE",
"77 -178 LINE",
"57 -93 LINE",
"39 -8 LINE",
"25 64 LINE",
"19 117 LINE"
);
}
);
width = 521;
}
);
unicode = 0070;
},
{
glyphname = thorn;
lastChange = "2016-08-24 09:53:51 +0000";
layers = (
{
layerId = UUID0;
paths = (
{
closed = 1;
nodes = (
"36 183 LINE",
"36 194 LINE",
"36 247 LINE",
"37 312 LINE",
"40 382 LINE",
"45 443 LINE",
"52 489 LINE",
"57 497 LINE",
"104 509 LINE",
"77 312 LINE",
"109 334 LINE",
"195 364 LINE",
"289 373 LINE",
"381 360 LINE",
"453 316 LINE",
"499 240 LINE",
"500 183 LINE",
"500 144 LINE",
"470 93 LINE",
"420 64 LINE",
"358 54 LINE",
"326 54 LINE",
"304 54 LINE",
"241 54 LINE",
"177 59 LINE",
"115 71 LINE",
"94 84 LINE",
"92 42 LINE",
"91 -22 LINE",
"90 -82 LINE",
"92 -143 LINE",
"93 -181 LINE",
"92 -184 LINE",
"92 -186 LINE",
"91 -188 LINE",
"77 -187 LINE",
"61 -184 LINE",
"45 -182 LINE",
"40 -184 LINE",
"30 -131 LINE",
"26 -19 LINE",
"29 81 LINE",
"36 162 LINE"
);
},
{
closed = 1;
nodes = (
"104 224 LINE",
"101 204 LINE",
"98 164 LINE",
"96 143 LINE",
"119 139 LINE",
"176 128 LINE",
"230 118 LINE",
"279 111 LINE",
"297 111 LINE",
"313 111 LINE",
"364 117 LINE",
"410 134 LINE",
"443 162 LINE",
"443 186 LINE",
"443 218 LINE",
"414 268 LINE",
"367 300 LINE",
"309 317 LINE",
"279 317 LINE",
"274 317 LINE",
"245 313 LINE",
"206 305 LINE",
"163 291 LINE",
"127 273 LINE",
"104 250 LINE",
"104 235 LINE"
);
}
);
width = 521;
}
);
unicode = 00FE;
},
{
glyphname = q;
lastChange = "2016-08-24 09:53:51 +0000";
layers = (
{
layerId = UUID0;
paths = (
{
closed = 1;
nodes = (
"253 28 LINE",
"251 27 LINE",
"234 24 LINE",
"215 21 LINE",
"199 19 LINE",
"197 19 LINE",
"149 19 LINE",
"82 56 LINE",
"39 116 LINE",
"19 194 LINE",
"19 235 LINE",
"19 284 LINE",
"49 379 LINE",
"106 452 LINE",
"190 498 LINE",
"242 498 LINE",
"262 498 LINE",
"309 484 LINE",
"348 459 LINE",
"375 420 LINE",
"375 394 LINE",
"346 57 LINE",
"346 14 LINE",
"353 -71 LINE",
"360 -156 LINE",
"367 -242 LINE",
"367 -284 LINE",
"367 -299 LINE",
"364 -319 LINE",
"347 -319 LINE",
"331 -319 LINE",
"313 -289 LINE",
"303 -240 LINE",
"300 -178 LINE",
"299 -113 LINE",
"297 -51 LINE",
"291 -2 LINE",
"276 28 LINE",
"263 28 LINE"
);
},
{
closed = 1;
nodes = (
"64 232 LINE",
"64 204 LINE",
"82 150 LINE",
"115 109 LINE",
"163 83 LINE",
"194 83 LINE",
"217 83 LINE",
"262 91 LINE",
"281 104 LINE",
"286 133 LINE",
"289 203 LINE",
"294 275 LINE",
"306 348 LINE",
"319 382 LINE",
"319 398 LINE",
"301 424 LINE",
"273 440 LINE",
"240 449 LINE",
"225 449 LINE",
"188 449 LINE",
"129 404 LINE",
"87 338 LINE",
"64 263 LINE"
);
}
);
width = 412;
}
);
unicode = 0071;
},
{
glyphname = r;
lastChange = "2016-08-24 09:53:51 +0000";
layers = (
{
layerId = UUID0;
paths = (
{
closed = 1;
nodes = (
"106 0 LINE",
"86 39 LINE",
"55 131 LINE",
"33 225 LINE",
"21 313 LINE",
"19 350 LINE",
"19 355 LINE",
"17 373 LINE",
"18 391 LINE",
"22 406 LINE",
"28 412 LINE",
"30 412 LINE",
"30 412 LINE",
"31 413 LINE",
"32 413 LINE",
"33 413 LINE",
"33 412 LINE",
"35 412 LINE",
"37 412 LINE",
"39 411 LINE",
"54 405 LINE",
"57 403 LINE",
"74 409 LINE",
"111 426 LINE",
"149 440 LINE",
"188 450 LINE",
"207 450 LINE",
"221 450 LINE",
"241 448 LINE",
"262 443 LINE",
"285 437 LINE",
"300 432 LINE",
"308 426 LINE",
"321 415 LINE",
"332 401 LINE",
"338 382 LINE",
"338 366 LINE",
"321 364 LINE",
"280 373 LINE",
"234 387 LINE",
"186 396 LINE",
"141 394 LINE",
"101 372 LINE",
"85 347 LINE",
"78 318 LINE",
"80 265 LINE",
"92 212 LINE",
"110 161 LINE",
"127 109 LINE",
"141 59 LINE",
"142 32 LINE",
"142 21 LINE",
"120 0 LINE"
);
}
);
width = 347;
}
);
unicode = 0072;
},
{
glyphname = s;
lastChange = "2016-08-24 09:53:51 +0000";
layers = (
{
layerId = UUID0;
paths = (
{
closed = 1;
nodes = (
"17 118 LINE",
"24 124 LINE",
"36 127 LINE",
"45 127 LINE",
"54 127 LINE",
"71 118 LINE",
"86 105 LINE",
"102 93 LINE",
"110 89 LINE",
"136 78 LINE",
"165 65 LINE",
"191 58 LINE",
"224 56 LINE",
"251 56 LINE",
"271 56 LINE",
"329 55 LINE",
"382 65 LINE",
"420 94 LINE",
"420 123 LINE",
"420 151 LINE",
"388 184 LINE",
"334 200 LINE",
"265 208 LINE",
"193 216 LINE",
"124 230 LINE",
"69 262 LINE",
"36 315 LINE",
"35 358 LINE",
"41 390 LINE",
"91 433 LINE",
"160 455 LINE",
"238 456 LINE",
"304 435 LINE",
"348 391 LINE",
"349 357 LINE",
"351 338 LINE",
"341 312 LINE",
"324 300 LINE",
"307 300 LINE",
"297 313 LINE",
"298 338 LINE",
"309 356 LINE",
"305 375 LINE",
"268 396 LINE",
"218 405 LINE",
"163 400 LINE",
"117 385 LINE",
"89 359 LINE",
"91 343 LINE",
"91 313 LINE",
"124 281 LINE",
"180 264 LINE",
"251 256 LINE",
"326 249 LINE",
"396 235 LINE",
"452 207 LINE",
"486 157 LINE",
"486 117 LINE",
"486 87 LINE",
"455 43 LINE",
"407 14 LINE",
"351 0 LINE",
"325 0 LINE",
"300 0 LINE",
"242 1 LINE",
"183 7 LINE",
"122 20 LINE",
"70 46 LINE",
"29 87 LINE"
);
}
);
width = 515;
}
);
unicode = 0073;
},
{
glyphname = scedilla;
lastChange = "2016-08-24 09:53:51 +0000";
layers = (
{
layerId = UUID0;
paths = (
{
closed = 1;
nodes = (
"127 -211 LINE",
"133 -206 LINE",
"144 -204 LINE",
"150 -204 LINE",
"167 -204 LINE",
"196 -222 LINE",
"224 -243 LINE",
"250 -262 LINE",
"265 -262 LINE",
"280 -262 LINE",
"308 -263 LINE",
"326 -255 LINE",
"336 -233 LINE",
"336 -210 LINE",
"337 -187 LINE",
"320 -161 LINE",
"294 -147 LINE",
"259 -142 LINE",
"223 -134 LINE",
"188 -122 LINE",
"159 -97 LINE",
"143 -55 LINE",
"142 -21 LINE",
"144 3 LINE",
"147 14 LINE",
"120 21 LINE",
"96 33 LINE",
"70 46 LINE",
"29 87 LINE",
"17 118 LINE",
"24 124 LINE",
"36 127 LINE",
"45 127 LINE",
"54 127 LINE",
"71 118 LINE",
"78 111 LINE",
"94 99 LINE",
"102 93 LINE",
"110 89 LINE",
"136 78 LINE",
"165 65 LINE",
"191 58 LINE",
"224 56 LINE",
"251 56 LINE",
"271 56 LINE",
"329 55 LINE",
"382 65 LINE",
"420 94 LINE",
"420 123 LINE",
"420 151 LINE",
"388 184 LINE",
"334 200 LINE",
"265 208 LINE",
"193 216 LINE",
"124 230 LINE",
"69 262 LINE",
"36 315 LINE",
"35 358 LINE",
"41 390 LINE",
"91 433 LINE",
"160 455 LINE",
"238 456 LINE",
"304 435 LINE",
"348 391 LINE",
"349 357 LINE",
"351 338 LINE",
"341 312 LINE",
"324 300 LINE",
"307 300 LINE",
"297 313 LINE",
"298 338 LINE",
"309 356 LINE",
"305 375 LINE",
"268 396 LINE",
"218 405 LINE",
"163 400 LINE",
"117 385 LINE",
"89 359 LINE",
"91 343 LINE",
"91 313 LINE",
"124 281 LINE",
"180 264 LINE",
"251 256 LINE",
"326 249 LINE",
"396 235 LINE",
"452 207 LINE",
"486 157 LINE",
"486 117 LINE",
"486 87 LINE",
"455 43 LINE",
"407 14 LINE",
"351 0 LINE",
"325 0 LINE",
"300 0 LINE",
"242 1 LINE",
"212 4 LINE",
"196 5 LINE",
"181 7 LINE",
"185 0 LINE",
"188 -10 LINE",
"191 -29 LINE",
"187 -34 LINE",
"187 -64 LINE",
"217 -91 LINE",
"262 -103 LINE",
"314 -108 LINE",
"358 -129 LINE",
"389 -172 LINE",
"389 -214 LINE",
"389 -237 LINE",
"364 -272 LINE",
"326 -295 LINE",
"281 -307 LINE",
"262 -307 LINE",
"232 -307 LINE",
"195 -290 LINE",
"168 -264 LINE",
"143 -229 LINE"
);
}
);
width = 515;
}
);
unicode = 015F;
},
{
glyphname = germandbls;
lastChange = "2016-08-24 09:53:51 +0000";
layers = (
{
layerId = UUID0;
paths = (
{
closed = 1;
nodes = (
"150 -134 LINE",
"148 -134 LINE",
"119 -129 LINE",
"86 -122 LINE",
"61 -108 LINE",
"63 -99 LINE",
"79 -55 LINE",
"90 47 LINE",
"87 155 LINE",
"73 267 LINE",
"56 375 LINE",
"39 476 LINE",
"30 563 LINE",
"33 634 LINE",
"55 681 LINE",
"100 701 LINE",
"137 693 LINE",
"155 693 LINE",
"204 686 LINE",
"257 669 LINE",
"309 646 LINE",
"350 614 LINE",
"376 575 LINE",
"376 552 LINE",
"376 526 LINE",
"354 484 LINE",
"329 450 LINE",
"308 423 LINE",
"308 412 LINE",
"308 411 LINE",
"347 392 LINE",
"405 358 LINE",
"474 310 LINE",
"533 250 LINE",
"572 181 LINE",
"572 142 LINE",
"572 114 LINE",
"537 76 LINE",
"479 50 LINE",
"408 35 LINE",
"337 27 LINE",
"272 24 LINE",
"250 24 LINE",
"242 24 LINE",
"229 27 LINE",
"221 37 LINE",
"220 60 LINE",
"225 81 LINE",
"244 81 LINE",
"302 80 LINE",
"364 80 LINE",
"426 87 LINE",
"476 104 LINE",
"506 132 LINE",
"506 154 LINE",
"506 202 LINE",
"456 266 LINE",
"381 311 LINE",
"293 341 LINE",
"218 367 LINE",
"168 396 LINE",
"168 417 LINE",
"168 428 LINE",
"190 440 LINE",
"225 450 LINE",
"265 461 LINE",
"299 481 LINE",
"321 513 LINE",
"321 539 LINE",
"321 561 LINE",
"298 594 LINE",
"262 616 LINE",
"220 629 LINE",
"201 629 LINE",
"174 629 LINE",
"115 616 LINE",
"94 600 LINE"
);
}
);
width = 591;
}
);
unicode = 00DF;
},
{
glyphname = t;
lastChange = "2016-08-24 09:53:51 +0000";
layers = (
{
layerId = UUID0;
paths = (
{
closed = 1;
nodes = (
"133 335 LINE",
"125 335 LINE",
"86 336 LINE",
"44 343 LINE",
"10 358 LINE",
"10 373 LINE",
"10 377 LINE",
"13 392 LINE",
"21 392 LINE",
"121 399 LINE",
"126 436 LINE",
"129 481 LINE",
"127 522 LINE",
"124 566 LINE",
"123 602 LINE",
"123 607 LINE",
"129 616 LINE",
"138 620 LINE",
"147 622 LINE",
"151 622 LINE",
"157 622 LINE",
"170 614 LINE",
"180 603 LINE",
"186 590 LINE",
"186 584 LINE",
"193 401 LINE",
"276 397 LINE",
"294 399 LINE",
"322 382 LINE",
"323 360 LINE",
"312 348 LINE",
"278 343 LINE",
"241 344 LINE",
"206 343 LINE",
"193 334 LINE",
"193 328 LINE",
"194 275 LINE",
"197 203 LINE",
"200 121 LINE",
"202 52 LINE",
"203 3 LINE",
"203 0 LINE",
"181 -14 LINE",
"153 19 LINE",
"136 82 LINE",
"130 167 LINE",
"129 250 LINE",
"131 319 LINE"
);
}
);
width = 329;
}
);
unicode = 0074;
},
{
glyphname = u;
lastChange = "2016-08-24 09:53:51 +0000";
layers = (
{
layerId = UUID0;
paths = (
{
closed = 1;
nodes = (
"375 142 LINE",
"353 129 LINE",
"320 93 LINE",
"287 60 LINE",
"247 36 LINE",
"216 36 LINE",
"181 36 LINE",
"124 67 LINE",
"80 118 LINE",
"48 185 LINE",
"27 254 LINE",
"17 321 LINE",
"17 349 LINE",
"9 401 LINE",
"30 461 LINE",
"60 478 LINE",
"82 453 LINE",
"74 423 LINE",
"73 419 LINE",
"70 402 LINE",
"68 385 LINE",
"65 369 LINE",
"65 366 LINE",
"65 346 LINE",
"74 290 LINE",
"91 229 LINE",
"116 170 LINE",
"151 123 LINE",
"197 94 LINE",
"225 94 LINE",
"242 94 LINE",
"287 128 LINE",
"327 176 LINE",
"355 227 LINE",
"355 244 LINE",
"355 253 LINE",
"356 299 LINE",
"356 350 LINE",
"355 395 LINE",
"355 403 LINE",
"361 414 LINE",
"375 424 LINE",
"385 424 LINE",
"396 424 LINE",
"412 393 LINE",
"422 344 LINE",
"426 287 LINE",
"428 234 LINE",
"429 194 LINE",
"432 188 LINE",
"437 168 LINE",
"455 119 LINE",
"473 73 LINE",
"486 35 LINE",
"486 25 LINE",
"486 11 LINE",
"470 5 LINE",
"457 5 LINE",
"441 5 LINE",
"427 21 LINE",
"420 45 LINE",
"416 74 LINE",
"407 105 LINE",
"391 133 LINE"
);
}
);
width = 502;
}
);
unicode = 0075;
},
{
glyphname = uogonek;
lastChange = "2016-08-24 09:53:51 +0000";
layers = (
{
layerId = UUID0;
paths = (
{
closed = 1;
nodes = (
"505 -129 LINE",
"455 -130 LINE",
"376 -122 LINE",
"328 -96 LINE",
"317 -44 LINE",
"335 0 LINE",
"344 14 LINE",
"364 31 LINE",
"391 44 LINE",
"405 49 LINE",
"411 51 LINE",
"418 54 LINE",
"417 60 LINE",
"416 74 LINE",
"407 105 LINE",
"391 133 LINE",
"375 142 LINE",
"353 129 LINE",
"320 93 LINE",
"287 60 LINE",
"247 36 LINE",
"216 36 LINE",
"181 36 LINE",
"124 67 LINE",
"80 118 LINE",
"48 185 LINE",
"27 254 LINE",
"17 321 LINE",
"17 349 LINE",
"9 401 LINE",
"30 461 LINE",
"60 478 LINE",
"82 453 LINE",
"74 423 LINE",
"73 419 LINE",
"70 402 LINE",
"68 385 LINE",
"65 369 LINE",
"65 366 LINE",
"65 346 LINE",
"74 290 LINE",
"91 229 LINE",
"116 170 LINE",
"151 123 LINE",
"197 94 LINE",
"225 94 LINE",
"242 94 LINE",
"287 128 LINE",
"327 176 LINE",
"355 227 LINE",
"355 244 LINE",
"355 253 LINE",
"356 299 LINE",
"356 350 LINE",
"355 395 LINE",
"355 403 LINE",
"361 414 LINE",
"375 424 LINE",
"385 424 LINE",
"396 424 LINE",
"412 393 LINE",
"422 344 LINE",
"426 287 LINE",
"428 234 LINE",
"429 194 LINE",
"432 188 LINE",
"437 168 LINE",
"455 119 LINE",
"473 73 LINE",
"486 35 LINE",
"486 25 LINE",
"486 11 LINE",
"470 5 LINE",
"457 5 LINE",
"441 5 LINE",
"435 13 LINE",
"433 14 LINE",
"399 -2 LINE",
"385 -18 LINE",
"364 -41 LINE",
"385 -78 LINE",
"462 -100 LINE",
"520 -96 LINE"
);
}
);
width = 502;
}
);
unicode = 0173;
},
{
glyphname = v;
lastChange = "2016-08-24 09:53:51 +0000";
layers = (
{
layerId = UUID0;
paths = (
{
closed = 1;
nodes = (
"10 347 LINE",
"10 350 LINE",
"15 359 LINE",
"21 369 LINE",
"28 376 LINE",
"33 376 LINE",
"33 376 LINE",
"34 375 LINE",
"36 375 LINE",
"38 375 LINE",
"61 364 LINE",
"90 323 LINE",
"112 273 LINE",
"132 216 LINE",
"156 159 LINE",
"188 107 LINE",
"215 87 LINE",
"224 116 LINE",
"241 172 LINE",
"264 229 LINE",
"294 289 LINE",
"313 323 LINE",
"337 334 LINE",
"365 338 LINE",
"376 327 LINE",
"369 306 LINE",
"356 291 LINE",
"350 284 LINE",
"328 235 LINE",
"305 169 LINE",
"278 97 LINE",
"251 36 LINE",
"224 -2 LINE",
"212 -1 LINE",
"198 -1 LINE",
"164 41 LINE",
"125 106 LINE",
"86 187 LINE",
"50 265 LINE",
"19 329 LINE"
);
}
);
width = 390;
}
);
unicode = 0076;
},
{
glyphname = w;
lastChange = "2016-08-24 09:53:51 +0000";
layers = (
{
layerId = UUID0;
paths = (
{
closed = 1;
nodes = (
"338 94 LINE",
"298 41 LINE",
"220 -1 LINE",
"147 4 LINE",
"85 51 LINE",
"39 121 LINE",
"11 210 LINE",
"9 302 LINE",
"35 389 LINE",
"65 423 LINE",
"81 417 LINE",
"86 397 LINE",
"86 385 LINE",
"86 368 LINE",
"79 338 LINE",
"71 306 LINE",
"64 273 LINE",
"64 256 LINE",
"64 243 LINE",
"70 205 LINE",
"81 162 LINE",
"99 120 LINE",
"123 86 LINE",
"152 63 LINE",
"171 63 LINE",
"188 63 LINE",
"233 83 LINE",
"275 115 LINE",
"304 153 LINE",
"304 174 LINE",
"310 300 LINE",
"310 303 LINE",
"317 310 LINE",
"326 314 LINE",
"336 318 LINE",
"338 318 LINE",
"352 318 LINE",
"361 282 LINE",
"367 228 LINE",
"375 165 LINE",
"396 109 LINE",
"437 74 LINE",
"473 74 LINE",
"509 74 LINE",
"552 104 LINE",
"571 150 LINE",
"570 208 LINE",
"556 266 LINE",
"531 318 LINE",
"517 338 LINE",
"515 345 LINE",
"519 353 LINE",
"525 355 LINE",
"534 356 LINE",
"538 356 LINE",
"555 353 LINE",
"590 309 LINE",
"617 247 LINE",
"632 174 LINE",
"625 102 LINE",
"590 39 LINE",
"554 19 LINE",
"511 16 LINE",
"456 16 LINE",
"420 21 LINE",
"398 32 LINE",
"379 51 LINE",
"355 76 LINE"
);
}
);
width = 656;
}
);
unicode = 0077;
},
{
glyphname = x;
lastChange = "2016-08-24 09:53:51 +0000";
layers = (
{
layerId = UUID0;
paths = (
{
closed = 1;
nodes = (
"384 -52 LINE",
"357 -28 LINE",
"312 22 LINE",
"266 74 LINE",
"217 120 LINE",
"187 137 LINE",
"174 137 LINE",
"150 118 LINE",
"129 88 LINE",
"110 52 LINE",
"94 21 LINE",
"80 -3 LINE",
"74 -5 LINE",
"56 -5 LINE",
"56 13 LINE",
"56 41 LINE",
"85 91 LINE",
"121 135 LINE",
"150 173 LINE",
"150 188 LINE",
"150 188 LINE",
"149 191 LINE",
"149 192 LINE",
"133 208 LINE",
"89 249 LINE",
"46 294 LINE",
"10 341 LINE",
"-1 361 LINE",
"-2 369 LINE",
"2 377 LINE",
"10 382 LINE",
"19 382 LINE",
"22 382 LINE",
"47 373 LINE",
"91 335 LINE",
"132 292 LINE",
"171 251 LINE",
"191 240 LINE",
"211 243 LINE",
"260 276 LINE",
"312 320 LINE",
"363 364 LINE",
"405 389 LINE",
"436 387 LINE",
"440 362 LINE",
"440 357 LINE",
"415 335 LINE",
"376 304 LINE",
"327 269 LINE",
"281 235 LINE",
"243 203 LINE",
"233 192 LINE",
"254 174 LINE",
"310 122 LINE",
"364 64 LINE",
"410 4 LINE",
"421 -22 LINE",
"417 -33 LINE",
"405 -52 LINE",
"394 -52 LINE",
"392 -52 LINE",
"385 -52 LINE"
);
}
);
width = 448;
}
);
unicode = 0078;
},
{
glyphname = y;
lastChange = "2016-08-24 09:53:51 +0000";
layers = (
{
layerId = UUID0;
paths = (
{
closed = 1;
nodes = (
"45 -305 LINE",
"45 -298 LINE",
"45 -286 LINE",
"49 -276 LINE",
"58 -271 LINE",
"65 -271 LINE",
"80 -288 LINE",
"127 -340 LINE",
"186 -389 LINE",
"250 -426 LINE",
"282 -427 LINE",
"311 -426 LINE",
"350 -398 LINE",
"377 -355 LINE",
"394 -301 LINE",
"405 -245 LINE",
"410 -192 LINE",
"413 -172 LINE",
"414 -162 LINE",
"420 -116 LINE",
"425 -61 LINE",
"428 0 LINE",
"424 50 LINE",
"412 82 LINE",
"400 82 LINE",
"384 82 LINE",
"347 63 LINE",
"307 38 LINE",
"266 19 LINE",
"246 19 LINE",
"209 19 LINE",
"147 48 LINE",
"97 98 LINE",
"58 163 LINE",
"31 233 LINE",
"19 304 LINE",
"19 335 LINE",
"19 341 LINE",
"16 373 LINE",
"20 406 LINE",
"33 432 LINE",
"48 432 LINE",
"51 432 LINE",
"57 400 LINE",
"63 351 LINE",
"74 286 LINE",
"92 220 LINE",
"117 155 LINE",
"154 105 LINE",
"206 74 LINE",
"239 74 LINE",
"262 74 LINE",
"308 93 LINE",
"350 122 LINE",
"384 159 LINE",
"394 179 LINE",
"394 183 LINE",
"393 212 LINE",
"391 250 LINE",
"388 295 LINE",
"387 335 LINE",
"386 364 LINE",
"386 368 LINE",
"388 428 LINE",
"401 454 LINE",
"421 411 LINE",
"442 310 LINE",
"461 174 LINE",
"472 13 LINE",
"470 -147 LINE",
"451 -298 LINE",
"410 -415 LINE",
"344 -486 LINE",
"294 -488 LINE",
"274 -488 LINE",
"222 -474 LINE",
"167 -448 LINE",
"113 -413 LINE",
"71 -372 LINE",
"45 -327 LINE"
);
}
);
width = 487;
}
);
unicode = 0079;
},
{
glyphname = z;
lastChange = "2016-08-24 09:53:51 +0000";
layers = (
{
layerId = UUID0;
paths = (
{
closed = 1;
nodes = (
"83 65 LINE",
"83 83 LINE",
"104 124 LINE",
"135 164 LINE",
"166 200 LINE",
"177 212 LINE",
"48 216 LINE",
"43 216 LINE",
"39 222 LINE",
"36 229 LINE",
"36 238 LINE",
"36 239 LINE",
"36 248 LINE",
"39 257 LINE",
"47 261 LINE",
"58 262 LINE",
"65 262 LINE",
"75 263 LINE",
"123 269 LINE",
"177 274 LINE",
"226 279 LINE",
"235 281 LINE",
"248 301 LINE",
"267 329 LINE",
"277 353 LINE",
"282 379 LINE",
"282 396 LINE",
"282 404 LINE",
"279 426 LINE",
"271 446 LINE",
"256 460 LINE",
"244 460 LINE",
"122 460 LINE",
"111 460 LINE",
"93 444 LINE",
"77 427 LINE",
"63 411 LINE",
"57 411 LINE",
"40 411 LINE",
"19 429 LINE",
"19 446 LINE",
"19 461 LINE",
"41 483 LINE",
"77 499 LINE",
"121 509 LINE",
"164 515 LINE",
"200 517 LINE",
"210 517 LINE",
"237 517 LINE",
"285 502 LINE",
"318 472 LINE",
"338 429 LINE",
"338 400 LINE",
"338 383 LINE",
"330 353 LINE",
"320 324 LINE",
"312 294 LINE",
"312 278 LINE",
"313 278 LINE",
"336 281 LINE",
"363 282 LINE",
"385 276 LINE",
"385 269 LINE",
"385 268 LINE",
"385 266 LINE",
"385 265 LINE",
"385 262 LINE",
"382 257 LINE",
"367 239 LINE",
"366 239 LINE",
"262 229 LINE",
"255 216 LINE",
"225 183 LINE",
"194 149 LINE",
"171 116 LINE",
"168 89 LINE",
"191 68 LINE",
"225 64 LINE",
"246 64 LINE",
"296 72 LINE",
"347 86 LINE",
"394 104 LINE",
"412 112 LINE",
"420 106 LINE",
"432 89 LINE",
"432 80 LINE",
"432 65 LINE",
"404 42 LINE",
"361 24 LINE",
"309 12 LINE",
"257 4 LINE",
"213 0 LINE",
"200 0 LINE",
"187 0 LINE",
"147 7 LINE",
"109 22 LINE",
"83 48 LINE"
);
}
);
width = 460;
}
);
unicode = 007A;
},
{
glyphname = u.end;
lastChange = "2016-08-24 09:53:51 +0000";
layers = (
{
layerId = UUID0;
paths = (
{
closed = 1;
nodes = (
"375 142 LINE",
"353 129 LINE",
"320 93 LINE",
"287 60 LINE",
"247 36 LINE",
"216 36 LINE",
"181 36 LINE",
"124 67 LINE",
"80 118 LINE",
"48 185 LINE",
"27 254 LINE",
"17 321 LINE",
"17 349 LINE",
"9 401 LINE",
"30 461 LINE",
"60 478 LINE",
"82 453 LINE",
"74 423 LINE",
"73 419 LINE",
"70 402 LINE",
"68 385 LINE",
"65 369 LINE",
"65 366 LINE",
"65 346 LINE",
"74 290 LINE",
"91 229 LINE",
"116 170 LINE",
"151 123 LINE",
"197 94 LINE",
"225 94 LINE",
"242 94 LINE",
"287 128 LINE",
"327 176 LINE",
"355 227 LINE",
"355 244 LINE",
"355 253 LINE",
"356 299 LINE",
"356 350 LINE",
"355 395 LINE",
"355 403 LINE",
"361 414 LINE",
"375 424 LINE",
"385 424 LINE",
"396 424 LINE",
"412 393 LINE",
"422 344 LINE",
"426 287 LINE",
"428 234 LINE",
"429 194 LINE",
"432 188 LINE",
"437 168 LINE",
"455 119 LINE",
"473 73 LINE",
"486 35 LINE",
"486 25 LINE",
"486 11 LINE",
"470 5 LINE",
"457 5 LINE",
"441 5 LINE",
"427 21 LINE",
"420 45 LINE",
"416 74 LINE",
"407 105 LINE",
"391 133 LINE"
);
}
);
width = 502;
}
);
},
{
glyphname = fi;
lastChange = "2016-08-24 09:53:51 +0000";
layers = (
{
layerId = UUID0;
paths = (
{
closed = 1;
nodes = (
"332 311 LINE",
"332 332 LINE",
"332 344 LINE",
"333 367 LINE",
"333 377 LINE",
"333 393 LINE",
"329 423 LINE",
"352 423 LINE",
"361 423 LINE",
"375 413 LINE",
"381 402 LINE",
"378 352 LINE",
"392 257 LINE",
"411 165 LINE",
"428 71 LINE",
"428 21 LINE",
"428 7 LINE",
"411 -21 LINE",
"394 -21 LINE",
"382 -21 LINE",
"362 23 LINE",
"350 91 LINE",
"340 173 LINE",
"337 210 LINE",
"335 238 LINE",
"334 262 LINE",
"326 259 LINE",
"316 257 LINE",
"295 253 LINE",
"230 254 LINE",
"192 262 LINE",
"192 225 LINE",
"227 160 LINE",
"268 102 LINE",
"303 47 LINE",
"303 19 LINE",
"303 7 LINE",
"288 -1 LINE",
"276 -1 LINE",
"267 -1 LINE",
"245 14 LINE",
"227 35 LINE",
"212 58 LINE",
"208 65 LINE",
"204 73 LINE",
"188 104 LINE",
"170 142 LINE",
"150 185 LINE",
"132 224 LINE",
"117 255 LINE",
"114 262 LINE",
"104 272 LINE",
"99 271 LINE",
"72 266 LINE",
"42 259 LINE",
"16 254 LINE",
"10 253 LINE",
"5 253 LINE",
"-3 253 LINE",
"-9 265 LINE",
"-9 272 LINE",
"-9 289 LINE",
"15 307 LINE",
"48 314 LINE",
"83 317 LINE",
"95 318 LINE",
"93 348 LINE",
"92 428 LINE",
"101 514 LINE",
"124 597 LINE",
"165 663 LINE",
"230 704 LINE",
"277 704 LINE",
"304 704 LINE",
"366 678 LINE",
"420 634 LINE",
"455 581 LINE",
"455 554 LINE",
"433 554 LINE",
"414 554 LINE",
"382 583 LINE",
"350 619 LINE",
"313 648 LINE",
"288 648 LINE",
"256 648 LINE",
"201 619 LINE",
"162 570 LINE",
"142 510 LINE",
"142 479 LINE",
"142 469 LINE",
"160 329 LINE",
"162 327 LINE",
"180 324 LINE",
"218 319 LINE",
"281 313 LINE",
"329 311 LINE"
);
},
{
closed = 1;
nodes = (
"282 563 LINE",
"282 575 LINE",
"296 582 LINE",
"307 582 LINE",
"313 583 LINE",
"336 564 LINE",
"352 541 LINE",
"353 520 LINE",
"338 518 LINE",
"332 518 LINE",
"317 518 LINE",
"299 521 LINE",
"288 530 LINE",
"282 548 LINE"
);
}
);
width = 552;
}
);
unicode = FB01;
},
{
glyphname = fl;
lastChange = "2016-08-24 09:53:51 +0000";
layers = (
{
layerId = UUID0;
paths = (
{
closed = 1;
nodes = (
"330 -2 LINE",
"320 68 LINE",
"317 137 LINE",
"314 197 LINE",
"314 257 LINE",
"294 253 LINE",
"263 253 LINE",
"230 254 LINE",
"192 262 LINE",
"192 225 LINE",
"227 160 LINE",
"268 102 LINE",
"303 47 LINE",
"303 19 LINE",
"303 7 LINE",
"288 -1 LINE",
"276 -1 LINE",
"267 -1 LINE",
"245 14 LINE",
"227 35 LINE",
"212 58 LINE",
"208 65 LINE",
"204 73 LINE",
"188 104 LINE",
"170 142 LINE",
"150 185 LINE",
"132 224 LINE",
"117 255 LINE",
"114 262 LINE",
"104 272 LINE",
"99 271 LINE",
"72 266 LINE",
"42 259 LINE",
"16 254 LINE",
"10 253 LINE",
"5 253 LINE",
"-3 253 LINE",
"-9 265 LINE",
"-9 272 LINE",
"-9 289 LINE",
"15 307 LINE",
"48 314 LINE",
"83 317 LINE",
"95 318 LINE",
"93 348 LINE",
"92 428 LINE",
"101 514 LINE",
"124 597 LINE",
"165 663 LINE",
"230 704 LINE",
"277 704 LINE",
"304 704 LINE",
"366 678 LINE",
"420 634 LINE",
"455 581 LINE",
"455 554 LINE",
"433 554 LINE",
"414 554 LINE",
"382 583 LINE",
"350 619 LINE",
"313 648 LINE",
"288 648 LINE",
"256 648 LINE",
"201 619 LINE",
"162 570 LINE",
"142 510 LINE",
"142 479 LINE",
"142 469 LINE",
"160 329 LINE",
"162 327 LINE",
"180 324 LINE",
"218 319 LINE",
"249 316 LINE",
"276 313 LINE",
"314 312 LINE",
"315 361 LINE",
"317 412 LINE",
"319 481 LINE",
"318 550 LINE",
"318 558 LINE",
"330 563 LINE",
"338 563 LINE",
"347 563 LINE",
"360 551 LINE",
"370 532 LINE",
"375 514 LINE",
"375 508 LINE",
"381 367 LINE",
"385 182 LINE",
"381 67 LINE",
"372 13 LINE",
"358 -8 LINE",
"341 -4 LINE"
);
}
);
width = 725;
}
);
unicode = FB02;
},
{
glyphname = zero;
lastChange = "2016-08-24 09:53:51 +0000";
layers = (
{
layerId = UUID0;
paths = (
{
closed = 1;
nodes = (
"19 218 LINE",
"19 251 LINE",
"54 326 LINE",
"112 390 LINE",
"185 432 LINE",
"221 432 LINE",
"243 432 LINE",
"287 411 LINE",
"328 377 LINE",
"363 333 LINE",
"390 285 LINE",
"404 237 LINE",
"404 217 LINE",
"404 180 LINE",
"383 104 LINE",
"340 40 LINE",
"275 -1 LINE",
"232 -1 LINE",
"187 -1 LINE",
"109 33 LINE",
"51 93 LINE",
"19 172 LINE"
);
},
{
closed = 1;
nodes = (
"65 225 LINE",
"62 190 LINE",
"82 130 LINE",
"124 83 LINE",
"183 56 LINE",
"217 56 LINE",
"229 56 LINE",
"248 59 LINE",
"267 65 LINE",
"287 77 LINE",
"300 85 LINE",
"302 98 LINE",
"317 118 LINE",
"334 143 LINE",
"348 174 LINE",
"348 198 LINE",
"348 230 LINE",
"327 291 LINE",
"288 338 LINE",
"231 366 LINE",
"195 366 LINE",
"170 366 LINE",
"124 340 LINE",
"91 298 LINE",
"68 248 LINE"
);
}
);
width = 432;
}
);
unicode = 0030;
},
{
glyphname = one;
lastChange = "2016-08-24 09:53:51 +0000";
layers = (
{
layerId = UUID0;
paths = (
{
closed = 1;
nodes = (
"179 19 LINE",
"179 21 LINE",
"179 30 LINE",
"178 41 LINE",
"178 51 LINE",
"178 52 LINE",
"178 62 LINE",
"180 99 LINE",
"184 145 LINE",
"188 194 LINE",
"191 241 LINE",
"193 277 LINE",
"193 288 LINE",
"193 294 LINE",
"193 306 LINE",
"190 315 LINE",
"183 324 LINE",
"174 326 LINE",
"170 323 LINE",
"150 300 LINE",
"127 271 LINE",
"98 238 LINE",
"71 212 LINE",
"46 194 LINE",
"37 194 LINE",
"14 194 LINE",
"14 219 LINE",
"14 224 LINE",
"16 227 LINE",
"21 234 LINE",
"26 243 LINE",
"31 250 LINE",
"33 252 LINE",
"212 439 LINE",
"220 447 LINE",
"229 477 LINE",
"235 511 LINE",
"242 545 LINE",
"251 572 LINE",
"265 590 LINE",
"276 590 LINE",
"282 590 LINE",
"292 588 LINE",
"295 581 LINE",
"295 578 LINE",
"295 569 LINE",
"296 559 LINE",
"296 549 LINE",
"296 548 LINE",
"296 543 LINE",
"291 492 LINE",
"282 414 LINE",
"271 315 LINE",
"256 215 LINE",
"241 119 LINE",
"227 45 LINE",
"213 -1 LINE",
"207 -1 LINE",
"197 -1 LINE",
"185 7 LINE"
);
}
);
width = 318;
}
);
unicode = 0031;
},
{
glyphname = two;
lastChange = "2016-08-24 09:53:51 +0000";
layers = (
{
layerId = UUID0;
paths = (
{
closed = 1;
nodes = (
"273 29 LINE",
"238 29 LINE",
"173 19 LINE",
"137 19 LINE",
"118 19 LINE",
"75 27 LINE",
"39 48 LINE",
"13 80 LINE",
"10 104 LINE",
"7 118 LINE",
"21 137 LINE",
"41 147 LINE",
"65 150 LINE",
"75 150 LINE",
"98 150 LINE",
"142 136 LINE",
"184 118 LINE",
"227 104 LINE",
"250 104 LINE",
"271 104 LINE",
"306 131 LINE",
"334 175 LINE",
"355 229 LINE",
"369 282 LINE",
"376 329 LINE",
"376 342 LINE",
"376 355 LINE",
"369 408 LINE",
"352 459 LINE",
"323 497 LINE",
"301 497 LINE",
"280 497 LINE",
"260 468 LINE",
"248 432 LINE",
"237 398 LINE",
"226 394 LINE",
"211 404 LINE",
"206 435 LINE",
"206 449 LINE",
"206 469 LINE",
"221 503 LINE",
"248 528 LINE",
"285 543 LINE",
"306 543 LINE",
"340 543 LINE",
"388 502 LINE",
"419 441 LINE",
"434 373 LINE",
"434 347 LINE",
"434 322 LINE",
"431 283 LINE",
"422 246 LINE",
"406 206 LINE",
"395 179 LINE",
"388 174 LINE",
"368 151 LINE",
"351 126 LINE",
"338 101 LINE",
"338 94 LINE",
"338 83 LINE",
"358 73 LINE",
"388 67 LINE",
"421 63 LINE",
"450 57 LINE",
"470 42 LINE",
"470 28 LINE",
"470 19 LINE",
"452 0 LINE",
"440 0 LINE",
"419 0 LINE",
"378 9 LINE",
"336 20 LINE",
"295 29 LINE"
);
}
);
width = 497;
}
);
unicode = 0032;
},
{
glyphname = three;
lastChange = "2016-08-24 09:53:51 +0000";
layers = (
{
layerId = UUID0;
paths = (
{
closed = 1;
nodes = (
"19 122 LINE",
"19 124 LINE",
"19 125 LINE",
"19 130 LINE",
"19 147 LINE",
"36 169 LINE",
"54 169 LINE",
"60 169 LINE",
"89 134 LINE",
"136 91 LINE",
"204 56 LINE",
"250 56 LINE",
"268 56 LINE",
"303 61 LINE",
"330 74 LINE",
"348 98 LINE",
"348 116 LINE",
"348 157 LINE",
"306 210 LINE",
"243 244 LINE",
"169 262 LINE",
"106 276 LINE",
"64 291 LINE",
"64 305 LINE",
"64 306 LINE",
"65 308 LINE",
"65 309 LINE",
"65 310 LINE",
"67 313 LINE",
"82 326 LINE",
"85 329 LINE",
"95 331 LINE",
"134 338 LINE",
"180 349 LINE",
"227 364 LINE",
"266 385 LINE",
"291 413 LINE",
"291 432 LINE",
"291 446 LINE",
"268 465 LINE",
"237 476 LINE",
"205 479 LINE",
"195 479 LINE",
"186 479 LINE",
"148 478 LINE",
"112 473 LINE",
"85 466 LINE",
"85 460 LINE",
"85 438 LINE",
"63 438 LINE",
"36 460 LINE",
"36 482 LINE",
"36 492 LINE",
"48 508 LINE",
"65 520 LINE",
"85 525 LINE",
"94 525 LINE",
"235 525 LINE",
"258 525 LINE",
"296 505 LINE",
"323 473 LINE",
"338 432 LINE",
"338 411 LINE",
"338 391 LINE",
"312 363 LINE",
"279 341 LINE",
"252 320 LINE",
"252 305 LINE",
"252 304 LINE",
"253 301 LINE",
"253 300 LINE",
"283 289 LINE",
"338 253 LINE",
"380 204 LINE",
"404 146 LINE",
"404 112 LINE",
"404 83 LINE",
"378 39 LINE",
"336 13 LINE",
"284 -1 LINE",
"259 -1 LINE",
"234 1 LINE",
"190 6 LINE",
"138 28 LINE",
"68 77 LINE"
);
}
);
width = 432;
}
);
unicode = 0033;
},
{
glyphname = four;
lastChange = "2016-08-24 09:53:51 +0000";
layers = (
{
layerId = UUID0;
paths = (
{
closed = 1;
nodes = (
"296 217 LINE",
"282 209 LINE",
"248 187 LINE",
"211 167 LINE",
"173 156 LINE",
"154 159 LINE",
"116 159 LINE",
"64 202 LINE",
"32 265 LINE",
"19 336 LINE",
"19 364 LINE",
"19 396 LINE",
"24 448 LINE",
"36 497 LINE",
"54 549 LINE",
"65 581 LINE",
"67 592 LINE",
"86 602 LINE",
"107 603 LINE",
"124 595 LINE",
"123 586 LINE",
"123 561 LINE",
"104 508 LINE",
"83 454 LINE",
"64 398 LINE",
"64 370 LINE",
"64 350 LINE",
"75 301 LINE",
"98 260 LINE",
"133 232 LINE",
"157 232 LINE",
"190 232 LINE",
"244 265 LINE",
"288 313 LINE",
"320 369 LINE",
"343 417 LINE",
"354 449 LINE",
"355 449 LINE",
"379 449 LINE",
"394 435 LINE",
"394 420 LINE",
"394 400 LINE",
"385 352 LINE",
"373 300 LINE",
"364 251 LINE",
"364 230 LINE",
"364 207 LINE",
"371 160 LINE",
"379 113 LINE",
"385 67 LINE",
"385 45 LINE",
"385 25 LINE",
"361 -2 LINE",
"341 -2 LINE",
"329 -2 LINE",
"317 30 LINE",
"313 79 LINE",
"313 136 LINE",
"312 185 LINE",
"305 217 LINE"
);
}
);
width = 412;
}
);
unicode = 0034;
},
{
glyphname = five;
lastChange = "2016-08-24 09:53:51 +0000";
layers = (
{
layerId = UUID0;
paths = (
{
closed = 1;
nodes = (
"19 142 LINE",
"17 168 LINE",
"32 205 LINE",
"51 208 LINE",
"63 169 LINE",
"61 122 LINE",
"61 112 LINE",
"86 96 LINE",
"125 83 LINE",
"171 74 LINE",
"213 67 LINE",
"244 64 LINE",
"248 64 LINE",
"280 64 LINE",
"347 76 LINE",
"399 106 LINE",
"434 156 LINE",
"434 193 LINE",
"434 234 LINE",
"404 291 LINE",
"355 328 LINE",
"293 350 LINE",
"226 362 LINE",
"159 370 LINE",
"131 375 LINE",
"125 383 LINE",
"121 396 LINE",
"121 403 LINE",
"121 405 LINE",
"122 411 LINE",
"122 412 LINE",
"127 420 LINE",
"147 460 LINE",
"172 505 LINE",
"193 546 LINE",
"197 554 LINE",
"197 555 LINE",
"200 562 LINE",
"203 570 LINE",
"206 579 LINE",
"206 581 LINE",
"206 583 LINE",
"206 590 LINE",
"206 591 LINE",
"184 591 LINE",
"184 610 LINE",
"205 635 LINE",
"238 649 LINE",
"281 656 LINE",
"323 657 LINE",
"361 657 LINE",
"375 657 LINE",
"395 657 LINE",
"441 659 LINE",
"488 654 LINE",
"529 637 LINE",
"543 619 LINE",
"543 618 LINE",
"544 615 LINE",
"544 614 LINE",
"544 610 LINE",
"537 602 LINE",
"528 596 LINE",
"520 591 LINE",
"517 591 LINE",
"514 591 LINE",
"497 594 LINE",
"479 597 LINE",
"462 600 LINE",
"460 600 LINE",
"458 600 LINE",
"432 601 LINE",
"400 602 LINE",
"369 602 LINE",
"360 602 LINE",
"354 602 LINE",
"332 602 LINE",
"310 601 LINE",
"292 600 LINE",
"291 600 LINE",
"262 591 LINE",
"259 574 LINE",
"241 534 LINE",
"221 493 LINE",
"206 455 LINE",
"206 440 LINE",
"206 439 LINE",
"206 432 LINE",
"206 432 LINE",
"260 423 LINE",
"361 386 LINE",
"440 325 LINE",
"488 235 LINE",
"488 174 LINE",
"493 137 LINE",
"458 75 LINE",
"399 29 LINE",
"328 2 LINE",
"296 0 LINE",
"273 0 LINE",
"214 2 LINE",
"152 12 LINE",
"93 30 LINE",
"47 62 LINE",
"19 107 LINE"
);
}
);
width = 572;
}
);
unicode = 0035;
},
{
glyphname = six;
lastChange = "2016-08-24 09:53:51 +0000";
layers = (
{
layerId = UUID0;
paths = (
{
closed = 1;
nodes = (
"19 207 LINE",
"19 245 LINE",
"42 332 LINE",
"86 416 LINE",
"146 494 LINE",
"218 556 LINE",
"297 596 LINE",
"338 600 LINE",
"347 601 LINE",
"373 596 LINE",
"396 584 LINE",
"413 566 LINE",
"413 554 LINE",
"413 548 LINE",
"410 534 LINE",
"404 522 LINE",
"396 514 LINE",
"389 514 LINE",
"387 514 LINE",
"373 522 LINE",
"356 533 LINE",
"342 542 LINE",
"338 543 LINE",
"333 543 LINE",
"314 543 LINE",
"265 522 LINE",
"214 486 LINE",
"165 440 LINE",
"127 391 LINE",
"104 343 LINE",
"104 323 LINE",
"104 318 LINE",
"124 326 LINE",
"155 334 LINE",
"186 338 LINE",
"216 338 LINE",
"235 338 LINE",
"273 338 LINE",
"339 313 LINE",
"386 267 LINE",
"413 203 LINE",
"413 164 LINE",
"413 118 LINE",
"372 56 LINE",
"307 17 LINE",
"227 -1 LINE",
"187 -1 LINE",
"142 -1 LINE",
"77 35 LINE",
"37 94 LINE",
"19 168 LINE"
);
},
{
closed = 1;
nodes = (
"65 188 LINE",
"78 127 LINE",
"147 68 LINE",
"201 64 LINE",
"229 64 LINE",
"283 74 LINE",
"328 100 LINE",
"356 143 LINE",
"356 176 LINE",
"356 193 LINE",
"334 234 LINE",
"300 270 LINE",
"261 292 LINE",
"243 292 LINE",
"208 292 LINE",
"142 279 LINE",
"91 253 LINE",
"63 214 LINE"
);
}
);
width = 440;
}
);
unicode = 0036;
},
{
glyphname = seven;
lastChange = "2016-08-24 09:53:51 +0000";
layers = (
{
layerId = UUID0;
paths = (
{
closed = 1;
nodes = (
"179 28 LINE",
"192 82 LINE",
"214 177 LINE",
"214 231 LINE",
"182 231 LINE",
"111 237 LINE",
"82 237 LINE",
"71 256 LINE",
"77 277 LINE",
"101 287 LINE",
"137 288 LINE",
"177 287 LINE",
"212 287 LINE",
"225 291 LINE",
"225 291 LINE",
"228 297 LINE",
"230 306 LINE",
"233 315 LINE",
"235 318 LINE",
"240 338 LINE",
"246 373 LINE",
"247 411 LINE",
"245 452 LINE",
"244 479 LINE",
"226 479 LINE",
"174 479 LINE",
"119 477 LINE",
"68 479 LINE",
"34 490 LINE",
"23 514 LINE",
"36 534 LINE",
"55 532 LINE",
"119 527 LINE",
"193 524 LINE",
"270 522 LINE",
"300 525 LINE",
"300 521 LINE",
"300 501 LINE",
"301 479 LINE",
"301 458 LINE",
"301 455 LINE",
"301 412 LINE",
"291 330 LINE",
"291 288 LINE",
"303 288 LINE",
"338 289 LINE",
"371 282 LINE",
"395 264 LINE",
"395 244 LINE",
"395 234 LINE",
"388 215 LINE",
"376 215 LINE",
"365 215 LINE",
"346 221 LINE",
"326 229 LINE",
"307 236 LINE",
"296 236 LINE",
"292 236 LINE",
"281 235 LINE",
"281 235 LINE",
"235 19 LINE",
"231 7 LINE",
"215 -1 LINE",
"206 -1 LINE",
"194 -1 LINE",
"183 18 LINE"
);
}
);
width = 412;
}
);
unicode = 0037;
},
{
glyphname = eight;
lastChange = "2016-08-24 09:53:51 +0000";
layers = (
{
layerId = UUID0;
paths = (
{
closed = 1;
nodes = (
"48 216 LINE",
"58 236 LINE",
"92 276 LINE",
"112 300 LINE",
"112 303 LINE",
"112 303 LINE",
"113 304 LINE",
"113 305 LINE",
"113 306 LINE",
"112 309 LINE",
"112 310 LINE",
"100 321 LINE",
"65 345 LINE",
"36 372 LINE",
"17 403 LINE",
"19 423 LINE",
"13 435 LINE",
"21 467 LINE",
"45 502 LINE",
"78 535 LINE",
"115 561 LINE",
"152 575 LINE",
"168 572 LINE",
"186 572 LINE",
"229 560 LINE",
"267 535 LINE",
"291 501 LINE",
"291 479 LINE",
"291 453 LINE",
"265 411 LINE",
"232 373 LINE",
"206 335 LINE",
"206 314 LINE",
"206 303 LINE",
"228 279 LINE",
"259 253 LINE",
"296 222 LINE",
"326 185 LINE",
"348 140 LINE",
"348 112 LINE",
"348 60 LINE",
"288 -1 LINE",
"235 -1 LINE",
"197 -1 LINE",
"118 34 LINE",
"62 94 LINE",
"35 172 LINE"
);
},
{
closed = 1;
nodes = (
"102 173 LINE",
"102 147 LINE",
"122 101 LINE",
"157 65 LINE",
"203 45 LINE",
"229 45 LINE",
"239 45 LINE",
"265 53 LINE",
"285 65 LINE",
"300 86 LINE",
"300 98 LINE",
"300 127 LINE",
"276 180 LINE",
"238 224 LINE",
"191 260 LINE",
"168 272 LINE",
"168 272 LINE",
"161 273 LINE",
"159 273 LINE",
"149 273 LINE",
"128 249 LINE",
"112 215 LINE",
"102 182 LINE"
);
},
{
closed = 1;
nodes = (
"65 432 LINE",
"63 417 LINE",
"83 391 LINE",
"112 367 LINE",
"144 351 LINE",
"150 347 LINE",
"154 351 LINE",
"176 371 LINE",
"199 396 LINE",
"217 420 LINE",
"217 427 LINE",
"227 436 LINE",
"235 464 LINE",
"227 490 LINE",
"196 511 LINE",
"168 512 LINE",
"148 512 LINE",
"116 496 LINE",
"91 472 LINE",
"71 443 LINE"
);
}
);
width = 375;
}
);
unicode = 0038;
},
{
glyphname = nine;
lastChange = "2016-08-24 09:53:51 +0000";
layers = (
{
layerId = UUID0;
paths = (
{
closed = 1;
nodes = (
"10 440 LINE",
"10 473 LINE",
"29 531 LINE",
"66 575 LINE",
"119 601 LINE",
"152 601 LINE",
"180 601 LINE",
"229 580 LINE",
"268 545 LINE",
"291 496 LINE",
"291 469 LINE",
"282 429 LINE",
"271 335 LINE",
"263 242 LINE",
"259 153 LINE",
"259 82 LINE",
"262 33 LINE",
"265 25 LINE",
"265 14 LINE",
"244 7 LINE",
"227 7 LINE",
"216 7 LINE",
"208 48 LINE",
"206 110 LINE",
"209 184 LINE",
"209 247 LINE",
"204 289 LINE",
"197 291 LINE",
"162 297 LINE",
"95 309 LINE",
"42 338 LINE",
"10 393 LINE"
);
},
{
closed = 1;
nodes = (
"65 448 LINE",
"65 431 LINE",
"76 394 LINE",
"98 364 LINE",
"129 346 LINE",
"149 346 LINE",
"159 346 LINE",
"180 348 LINE",
"188 355 LINE",
"188 367 LINE",
"201 413 LINE",
"215 462 LINE",
"227 502 LINE",
"227 506 LINE",
"227 516 LINE",
"212 533 LINE",
"191 546 LINE",
"168 555 LINE",
"160 555 LINE",
"112 555 LINE",
"65 495 LINE"
);
}
);
width = 301;
}
);
unicode = 0039;
},
{
glyphname = fraction;
lastChange = "2016-08-24 09:53:51 +0000";
layers = (
{
layerId = UUID0;
paths = (
{
closed = 1;
nodes = (
"10 33 LINE",
"10 46 LINE",
"22 87 LINE",
"41 130 LINE",
"60 168 LINE",
"65 179 LINE",
"226 619 LINE",
"229 633 LINE",
"234 674 LINE",
"244 713 LINE",
"260 745 LINE",
"272 750 LINE",
"281 748 LINE",
"289 738 LINE",
"292 725 LINE",
"291 711 LINE",
"291 705 LINE",
"291 690 LINE",
"273 613 LINE",
"243 509 LINE",
"203 385 LINE",
"159 260 LINE",
"115 144 LINE",
"77 54 LINE",
"46 0 LINE",
"38 0 LINE",
"25 0 LINE",
"10 22 LINE"
);
}
);
width = 310;
}
);
unicode = 2044;
},
{
glyphname = asterisk;
lastChange = "2016-08-24 09:53:51 +0000";
layers = (
{
layerId = UUID0;
paths = (
{
closed = 1;
nodes = (
"179 394 LINE",
"178 394 LINE",
"173 390 LINE",
"167 384 LINE",
"161 377 LINE",
"159 375 LINE",
"156 370 LINE",
"140 347 LINE",
"122 320 LINE",
"106 296 LINE",
"104 291 LINE",
"102 289 LINE",
"94 286 LINE",
"85 283 LINE",
"77 281 LINE",
"74 281 LINE",
"70 281 LINE",
"65 287 LINE",
"64 295 LINE",
"64 303 LINE",
"64 305 LINE",
"64 317 LINE",
"72 341 LINE",
"81 363 LINE",
"89 387 LINE",
"89 399 LINE",
"80 399 LINE",
"68 397 LINE",
"60 396 LINE",
"50 394 LINE",
"41 394 LINE",
"37 394 LINE",
"27 394 LINE",
"21 397 LINE",
"17 405 LINE",
"19 412 LINE",
"21 421 LINE",
"38 435 LINE",
"60 445 LINE",
"82 450 LINE",
"90 450 LINE",
"98 450 LINE",
"104 444 LINE",
"107 437 LINE",
"111 431 LINE",
"117 431 LINE",
"120 431 LINE",
"121 431 LINE",
"122 432 LINE",
"124 433 LINE",
"131 439 LINE",
"131 440 LINE",
"131 458 LINE",
"103 489 LINE",
"69 517 LINE",
"44 541 LINE",
"48 554 LINE",
"48 555 LINE",
"63 569 LINE",
"65 572 LINE",
"68 572 LINE",
"68 572 LINE",
"69 572 LINE",
"70 572 LINE",
"70 572 LINE",
"71 572 LINE",
"72 572 LINE",
"74 572 LINE",
"168 517 LINE",
"167 521 LINE",
"167 538 LINE",
"171 554 LINE",
"180 564 LINE",
"188 564 LINE",
"189 564 LINE",
"197 563 LINE",
"197 563 LINE",
"225 517 LINE",
"238 525 LINE",
"273 555 LINE",
"312 584 LINE",
"354 607 LINE",
"375 610 LINE",
"381 602 LINE",
"385 590 LINE",
"385 581 LINE",
"385 572 LINE",
"355 546 LINE",
"316 520 LINE",
"279 496 LINE",
"272 487 LINE",
"279 488 LINE",
"308 490 LINE",
"335 486 LINE",
"355 478 LINE",
"355 469 LINE",
"355 455 LINE",
"338 444 LINE",
"317 437 LINE",
"300 426 LINE",
"300 413 LINE",
"300 398 LINE",
"313 370 LINE",
"332 341 LINE",
"351 314 LINE",
"355 300 LINE",
"354 288 LINE",
"335 272 LINE",
"323 272 LINE",
"318 272 LINE",
"316 273 LINE",
"306 281 LINE",
"294 290 LINE",
"283 298 LINE",
"281 300 LINE",
"282 278 LINE",
"265 235 LINE",
"244 225 LINE",
"238 231 LINE",
"230 262 LINE",
"224 302 LINE",
"215 344 LINE",
"203 377 LINE",
"188 396 LINE"
);
}
);
width = 412;
}
);
unicode = 002A;
},
{
glyphname = backslash;
lastChange = "2016-08-24 09:53:51 +0000";
layers = (
{
layerId = UUID0;
paths = (
{
closed = 1;
nodes = (
"329 85 LINE",
"319 96 LINE",
"280 145 LINE",
"232 205 LINE",
"180 272 LINE",
"132 334 LINE",
"94 382 LINE",
"85 394 LINE",
"80 399 LINE",
"56 432 LINE",
"29 473 LINE",
"10 515 LINE",
"10 529 LINE",
"10 537 LINE",
"22 544 LINE",
"28 544 LINE",
"30 544 LINE",
"64 508 LINE",
"118 449 LINE",
"188 370 LINE",
"259 285 LINE",
"328 199 LINE",
"382 122 LINE",
"414 63 LINE",
"414 45 LINE",
"414 39 LINE",
"408 22 LINE",
"397 8 LINE",
"384 -2 LINE",
"376 0 LINE",
"358 4 LINE",
"345 22 LINE",
"341 48 LINE",
"337 74 LINE"
);
}
);
width = 432;
}
);
unicode = 005C;
},
{
glyphname = periodcentered;
lastChange = "2016-08-24 09:53:51 +0000";
layers = (
{
layerId = UUID0;
paths = (
{
closed = 1;
nodes = (
"48 232 LINE",
"48 237 LINE",
"60 257 LINE",
"76 276 LINE",
"93 291 LINE",
"99 291 LINE",
"117 291 LINE",
"145 278 LINE",
"162 259 LINE",
"171 236 LINE",
"171 227 LINE",
"171 220 LINE",
"159 202 LINE",
"140 187 LINE",
"115 176 LINE",
"104 176 LINE",
"91 176 LINE",
"70 188 LINE",
"56 206 LINE",
"48 226 LINE"
);
}
);
width = 213;
}
);
unicode = 00B7;
},
{
glyphname = bullet;
lastChange = "2016-08-24 09:53:51 +0000";
layers = (
{
layerId = UUID0;
paths = (
{
closed = 1;
nodes = (
"104 258 LINE",
"104 267 LINE",
"121 298 LINE",
"145 330 LINE",
"169 354 LINE",
"177 354 LINE",
"203 354 LINE",
"241 333 LINE",
"267 301 LINE",
"279 264 LINE",
"279 247 LINE",
"279 235 LINE",
"262 206 LINE",
"234 181 LINE",
"200 163 LINE",
"185 163 LINE",
"165 163 LINE",
"136 185 LINE",
"115 215 LINE",
"104 247 LINE"
);
}
);
width = 342;
}
);
unicode = 2022;
},
{
glyphname = colon;
lastChange = "2016-08-24 09:53:51 +0000";
layers = (
{
layerId = UUID0;
paths = (
{
closed = 1;
nodes = (
"19 98 LINE",
"19 109 LINE",
"37 123 LINE",
"48 123 LINE",
"60 123 LINE",
"66 109 LINE",
"66 98 LINE",
"66 84 LINE",
"56 74 LINE",
"41 74 LINE",
"19 74 LINE"
);
},
{
closed = 1;
nodes = (
"19 314 LINE",
"19 322 LINE",
"22 338 LINE",
"33 338 LINE",
"42 338 LINE",
"59 326 LINE",
"70 310 LINE",
"77 290 LINE",
"74 281 LINE",
"74 279 LINE",
"61 266 LINE",
"57 262 LINE",
"55 262 LINE",
"54 262 LINE",
"52 262 LINE",
"44 262 LINE",
"31 273 LINE",
"22 290 LINE",
"19 308 LINE"
);
}
);
width = 85;
}
);
unicode = 003A;
},
{
glyphname = comma;
lastChange = "2016-08-24 09:53:51 +0000";
layers = (
{
layerId = UUID0;
paths = (
{
closed = 1;
nodes = (
"9 -154 LINE",
"9 -131 LINE",
"19 -84 LINE",
"29 -35 LINE",
"39 13 LINE",
"39 37 LINE",
"39 39 LINE",
"39 51 LINE",
"38 63 LINE",
"38 72 LINE",
"38 74 LINE",
"24 74 LINE",
"19 85 LINE",
"19 93 LINE",
"19 112 LINE",
"32 142 LINE",
"54 142 LINE",
"72 142 LINE",
"90 115 LINE",
"97 78 LINE",
"95 40 LINE",
"95 28 LINE",
"95 21 LINE",
"91 -18 LINE",
"83 -66 LINE",
"71 -119 LINE",
"57 -162 LINE",
"39 -189 LINE",
"28 -189 LINE",
"21 -189 LINE",
"14 -183 LINE",
"10 -172 LINE",
"9 -160 LINE"
);
}
);
width = 131;
}
);
unicode = 002C;
},
{
glyphname = ellipsis;
lastChange = "2016-08-24 09:53:51 +0000";
layers = (
{
layerId = UUID0;
paths = (
{
closed = 1;
nodes = (
"44 94 LINE",
"44 102 LINE",
"57 133 LINE",
"74 165 LINE",
"93 188 LINE",
"100 188 LINE",
"119 188 LINE",
"148 168 LINE",
"167 137 LINE",
"177 100 LINE",
"177 83 LINE",
"177 71 LINE",
"163 43 LINE",
"143 18 LINE",
"117 0 LINE",
"104 0 LINE",
"90 0 LINE",
"68 21 LINE",
"52 51 LINE",
"44 83 LINE"
);
},
{
closed = 1;
nodes = (
"248 94 LINE",
"248 102 LINE",
"261 133 LINE",
"278 165 LINE",
"297 188 LINE",
"304 188 LINE",
"323 188 LINE",
"353 168 LINE",
"370 137 LINE",
"380 100 LINE",
"380 83 LINE",
"380 71 LINE",
"367 43 LINE",
"347 18 LINE",
"321 0 LINE",
"309 0 LINE",
"294 0 LINE",
"272 21 LINE",
"256 51 LINE",
"248 83 LINE"
);
},
{
closed = 1;
nodes = (
"452 94 LINE",
"452 102 LINE",
"464 133 LINE",
"481 165 LINE",
"501 188 LINE",
"508 188 LINE",
"527 188 LINE",
"557 168 LINE",
"575 137 LINE",
"584 100 LINE",
"584 83 LINE",
"584 71 LINE",
"571 43 LINE",
"551 18 LINE",
"525 0 LINE",
"513 0 LINE",
"498 0 LINE",
"476 21 LINE",
"460 51 LINE",
"452 83 LINE"
);
}
);
width = 612;
}
);
unicode = 2026;
},
{
glyphname = exclam;
lastChange = "2016-08-24 09:53:51 +0000";
layers = (
{
layerId = UUID0;
paths = (
{
closed = 1;
nodes = (
"16 48 LINE",
"16 77 LINE",
"60 104 LINE",
"89 104 LINE",
"100 104 LINE",
"115 92 LINE",
"127 75 LINE",
"132 57 LINE",
"132 48 LINE",
"132 36 LINE",
"116 19 LINE",
"95 6 LINE",
"69 -1 LINE",
"61 -1 LINE",
"36 -1 LINE",
"16 24 LINE"
);
},
{
closed = 1;
nodes = (
"46 268 LINE",
"42 293 LINE",
"39 380 LINE",
"38 484 LINE",
"39 599 LINE",
"39 703 LINE",
"39 790 LINE",
"37 815 LINE",
"85 824 LINE",
"85 824 LINE",
"86 789 LINE",
"87 732 LINE",
"88 658 LINE",
"89 578 LINE",
"90 497 LINE",
"92 427 LINE",
"93 373 LINE",
"94 361 LINE",
"94 359 LINE",
"94 349 LINE",
"95 334 LINE",
"95 320 LINE",
"95 316 LINE",
"95 309 LINE",
"96 288 LINE",
"93 269 LINE",
"83 256 LINE",
"71 256 LINE",
"64 256 LINE",
"49 257 LINE"
);
}
);
width = 150;
}
);
unicode = 0021;
},
{
glyphname = numbersign;
lastChange = "2016-08-24 09:53:51 +0000";
layers = (
{
layerId = UUID0;
paths = (
{
closed = 1;
nodes = (
"385 150 LINE",
"385 65 LINE",
"385 64 LINE",
"377 58 LINE",
"376 57 LINE",
"373 54 LINE",
"358 48 LINE",
"356 48 LINE",
"345 48 LINE",
"335 62 LINE",
"330 83 LINE",
"330 106 LINE",
"327 128 LINE",
"320 142 LINE",
"311 142 LINE",
"309 142 LINE",
"302 142 LINE",
"301 142 LINE",
"297 141 LINE",
"268 136 LINE",
"229 130 LINE",
"186 124 LINE",
"146 118 LINE",
"118 113 LINE",
"113 112 LINE",
"106 112 LINE",
"97 112 LINE",
"84 131 LINE",
"84 142 LINE",
"84 143 LINE",
"85 149 LINE",
"85 150 LINE",
"133 161 LINE",
"225 180 LINE",
"272 188 LINE",
"276 188 LINE",
"289 191 LINE",
"301 194 LINE",
"310 196 LINE",
"310 197 LINE",
"310 262 LINE",
"301 272 LINE",
"300 272 LINE",
"293 273 LINE",
"284 273 LINE",
"275 273 LINE",
"273 273 LINE",
"241 273 LINE",
"177 256 LINE",
"115 232 LINE",
"58 215 LINE",
"33 215 LINE",
"21 215 LINE",
"9 223 LINE",
"9 235 LINE",
"9 254 LINE",
"52 280 LINE",
"117 300 LINE",
"192 313 LINE",
"258 323 LINE",
"301 332 LINE",
"301 338 LINE",
"301 469 LINE",
"301 473 LINE",
"309 481 LINE",
"319 487 LINE",
"332 492 LINE",
"336 492 LINE",
"336 477 LINE",
"340 441 LINE",
"346 405 LINE",
"353 370 LINE",
"356 355 LINE",
"373 350 LINE",
"394 346 LINE",
"409 346 LINE",
"414 346 LINE",
"429 350 LINE",
"441 358 LINE",
"451 368 LINE",
"451 374 LINE",
"451 384 LINE",
"445 402 LINE",
"438 422 LINE",
"432 440 LINE",
"432 449 LINE",
"432 463 LINE",
"445 488 LINE",
"460 488 LINE",
"461 488 LINE",
"468 487 LINE",
"470 487 LINE",
"470 480 LINE",
"479 440 LINE",
"490 398 LINE",
"502 366 LINE",
"507 366 LINE",
"666 366 LINE",
"666 366 LINE",
"676 357 LINE",
"688 346 LINE",
"700 333 LINE",
"704 329 LINE",
"704 326 LINE",
"704 325 LINE",
"704 323 LINE",
"704 323 LINE",
"704 319 LINE",
"698 312 LINE",
"688 305 LINE",
"679 300 LINE",
"676 300 LINE",
"675 300 LINE",
"669 303 LINE",
"663 306 LINE",
"657 309 LINE",
"657 310 LINE",
"655 310 LINE",
"644 313 LINE",
"628 315 LINE",
"613 317 LINE",
"610 318 LINE",
"604 318 LINE",
"601 318 LINE",
"590 317 LINE",
"562 314 LINE",
"549 313 LINE",
"533 311 LINE",
"517 310 LINE",
"517 244 LINE",
"525 235 LINE",
"546 238 LINE",
"575 241 LINE",
"603 244 LINE",
"631 244 LINE",
"648 244 LINE",
"664 244 LINE",
"698 245 LINE",
"725 237 LINE",
"742 217 LINE",
"742 195 LINE",
"742 179 LINE",
"723 179 LINE",
"713 179 LINE",
"710 179 LINE",
"685 182 LINE",
"656 185 LINE",
"631 188 LINE",
"628 188 LINE",
"624 188 LINE",
"616 188 LINE",
"586 182 LINE",
"554 174 LINE",
"528 168 LINE",
"525 168 LINE",
"525 167 LINE",
"525 157 LINE",
"525 147 LINE",
"524 138 LINE",
"524 136 LINE",
"524 112 LINE",
"535 68 LINE",
"535 45 LINE",
"535 44 LINE",
"534 42 LINE",
"534 40 LINE",
"534 37 LINE",
"533 36 LINE",
"523 25 LINE",
"512 13 LINE",
"500 2 LINE",
"497 0 LINE",
"496 -1 LINE",
"495 -1 LINE",
"493 -1 LINE",
"487 -1 LINE",
"480 21 LINE",
"475 56 LINE",
"470 95 LINE",
"467 131 LINE",
"463 156 LINE",
"460 159 LINE",
"450 168 LINE"
);
},
{
closed = 1;
nodes = (
"366 262 LINE",
"366 259 LINE",
"368 243 LINE",
"371 226 LINE",
"374 209 LINE",
"376 206 LINE",
"460 225 LINE",
"460 229 LINE",
"461 232 LINE",
"461 235 LINE",
"462 241 LINE",
"462 244 LINE",
"462 246 LINE",
"461 256 LINE",
"461 265 LINE",
"460 271 LINE",
"460 272 LINE",
"459 276 LINE",
"452 291 LINE",
"450 291 LINE",
"385 291 LINE",
"384 291 LINE",
"377 283 LINE",
"376 281 LINE",
"373 278 LINE",
"366 264 LINE"
);
}
);
width = 769;
}
);
unicode = 0023;
},
{
glyphname = period;
lastChange = "2016-08-24 09:53:51 +0000";
layers = (
{
layerId = UUID0;
paths = (
{
closed = 1;
nodes = (
"44 94 LINE",
"44 102 LINE",
"57 133 LINE",
"74 165 LINE",
"93 188 LINE",
"100 188 LINE",
"119 188 LINE",
"148 168 LINE",
"167 137 LINE",
"177 100 LINE",
"177 83 LINE",
"177 71 LINE",
"163 43 LINE",
"143 18 LINE",
"117 0 LINE",
"104 0 LINE",
"90 0 LINE",
"68 21 LINE",
"52 51 LINE",
"44 83 LINE"
);
}
);
width = 204;
}
);
unicode = 002E;
},
{
glyphname = question;
lastChange = "2016-08-24 09:53:51 +0000";
layers = (
{
layerId = UUID0;
paths = (
{
closed = 1;
nodes = (
"178 37 LINE",
"178 55 LINE",
"199 75 LINE",
"216 75 LINE",
"232 75 LINE",
"245 47 LINE",
"245 33 LINE",
"245 21 LINE",
"230 0 LINE",
"216 0 LINE",
"197 0 LINE",
"178 21 LINE"
);
},
{
closed = 1;
nodes = (
"75 375 LINE",
"75 404 LINE",
"94 459 LINE",
"121 512 LINE",
"152 563 LINE",
"180 618 LINE",
"197 675 LINE",
"197 706 LINE",
"197 757 LINE",
"142 807 LINE",
"93 807 LINE",
"74 807 LINE",
"30 786 LINE",
"20 769 LINE",
"14 770 LINE",
"9 780 LINE",
"7 792 LINE",
"9 802 LINE",
"9 804 LINE",
"9 818 LINE",
"28 842 LINE",
"58 855 LINE",
"90 862 LINE",
"104 862 LINE",
"140 862 LINE",
"196 833 LINE",
"234 783 LINE",
"254 722 LINE",
"254 689 LINE",
"254 651 LINE",
"229 572 LINE",
"191 495 LINE",
"149 423 LINE",
"132 394 LINE",
"133 390 LINE",
"140 381 LINE",
"159 373 LINE",
"194 364 LINE",
"226 361 LINE",
"230 361 LINE",
"238 354 LINE",
"243 343 LINE",
"245 331 LINE",
"245 326 LINE",
"245 317 LINE",
"232 311 LINE",
"213 308 LINE",
"194 309 LINE",
"188 309 LINE",
"174 309 LINE",
"135 313 LINE",
"100 328 LINE",
"75 354 LINE"
);
}
);
width = 272;
}
);
unicode = 003F;
},
{
glyphname = quotedbl;
lastChange = "2016-08-24 09:53:51 +0000";
layers = (
{
layerId = UUID0;
paths = (
{
closed = 1;
nodes = (
"150 534 LINE",
"148 568 LINE",
"145 623 LINE",
"143 673 LINE",
"142 722 LINE",
"142 750 LINE",
"142 787 LINE",
"142 789 LINE",
"149 796 LINE",
"150 798 LINE",
"153 798 LINE",
"153 798 LINE",
"154 798 LINE",
"155 798 LINE",
"168 798 LINE",
"186 762 LINE",
"197 707 LINE",
"203 642 LINE",
"206 584 LINE",
"207 543 LINE",
"207 539 LINE",
"207 506 LINE",
"206 503 LINE",
"191 489 LINE",
"188 487 LINE",
"187 487 LINE",
"186 487 LINE",
"183 487 LINE",
"177 487 LINE",
"165 501 LINE",
"156 519 LINE",
"150 533 LINE"
);
},
{
closed = 1;
nodes = (
"10 760 LINE",
"13 768 LINE",
"23 770 LINE",
"29 770 LINE",
"39 770 LINE",
"55 741 LINE",
"68 695 LINE",
"81 640 LINE",
"94 586 LINE",
"106 539 LINE",
"113 525 LINE",
"107 514 LINE",
"95 505 LINE",
"85 505 LINE",
"71 505 LINE",
"50 537 LINE",
"33 586 LINE",
"21 646 LINE",
"14 702 LINE",
"10 748 LINE"
);
}
);
width = 235;
}
);
unicode = 0022;
},
{
glyphname = quotesingle;
lastChange = "2016-08-24 09:53:51 +0000";
layers = (
{
layerId = UUID0;
paths = (
{
closed = 1;
nodes = (
"19 695 LINE",
"19 701 LINE",
"20 710 LINE",
"23 717 LINE",
"30 725 LINE",
"37 730 LINE",
"48 725 LINE",
"64 695 LINE",
"75 657 LINE",
"81 610 LINE",
"85 567 LINE",
"86 530 LINE",
"86 519 LINE",
"86 505 LINE",
"81 487 LINE",
"65 487 LINE",
"54 487 LINE",
"36 517 LINE",
"26 561 LINE",
"21 613 LINE",
"19 660 LINE",
"19 692 LINE"
);
}
);
width = 104;
}
);
unicode = 0027;
},
{
glyphname = semicolon;
lastChange = "2016-08-24 09:53:51 +0000";
layers = (
{
layerId = UUID0;
paths = (
{
closed = 1;
nodes = (
"-15 -154 LINE",
"-15 -122 LINE",
"1 -80 LINE",
"21 -43 LINE",
"42 -2 LINE",
"48 28 LINE",
"49 38 LINE",
"49 68 LINE",
"53 102 LINE",
"63 133 LINE",
"74 142 LINE",
"95 129 LINE",
"104 87 LINE",
"104 66 LINE",
"104 51 LINE",
"98 0 LINE",
"86 -56 LINE",
"67 -111 LINE",
"45 -156 LINE",
"16 -184 LINE",
"0 -184 LINE",
"-7 -184 LINE",
"-14 -178 LINE",
"-16 -169 LINE",
"-15 -158 LINE"
);
},
{
closed = 1;
nodes = (
"19 375 LINE",
"19 387 LINE",
"39 392 LINE",
"62 387 LINE",
"78 377 LINE",
"74 375 LINE",
"83 355 LINE",
"85 329 LINE",
"78 313 LINE",
"66 303 LINE",
"61 300 LINE",
"48 300 LINE",
"29 314 LINE",
"20 335 LINE",
"17 361 LINE"
);
}
);
width = 130;
}
);
unicode = 003B;
},
{
glyphname = slash;
lastChange = "2016-08-24 09:53:51 +0000";
layers = (
{
layerId = UUID0;
paths = (
{
closed = 1;
nodes = (
"10 33 LINE",
"10 46 LINE",
"22 87 LINE",
"41 130 LINE",
"60 168 LINE",
"65 179 LINE",
"226 619 LINE",
"229 633 LINE",
"234 674 LINE",
"244 713 LINE",
"260 745 LINE",
"272 750 LINE",
"281 748 LINE",
"289 738 LINE",
"292 725 LINE",
"291 711 LINE",
"291 705 LINE",
"291 690 LINE",
"273 613 LINE",
"243 509 LINE",
"203 385 LINE",
"159 260 LINE",
"115 144 LINE",
"77 54 LINE",
"46 0 LINE",
"38 0 LINE",
"25 0 LINE",
"10 22 LINE"
);
}
);
width = 310;
}
);
unicode = 002F;
},
{
glyphname = underscore;
lastChange = "2016-08-24 09:53:51 +0000";
layers = (
{
layerId = UUID0;
paths = (
{
closed = 1;
nodes = (
"27 85 LINE",
"27 101 LINE",
"51 104 LINE",
"65 104 LINE",
"101 104 LINE",
"172 89 LINE",
"207 85 LINE",
"216 85 LINE",
"221 85 LINE",
"250 83 LINE",
"288 80 LINE",
"332 78 LINE",
"370 76 LINE",
"398 74 LINE",
"403 74 LINE",
"408 74 LINE",
"435 74 LINE",
"472 74 LINE",
"514 74 LINE",
"550 74 LINE",
"578 74 LINE",
"582 74 LINE",
"593 74 LINE",
"613 68 LINE",
"629 58 LINE",
"639 40 LINE",
"639 28 LINE",
"639 19 LINE",
"626 0 LINE",
"616 0 LINE",
"591 0 LINE",
"514 4 LINE",
"422 10 LINE",
"320 19 LINE",
"223 30 LINE",
"135 44 LINE",
"67 60 LINE",
"27 76 LINE"
);
}
);
width = 656;
}
);
unicode = 005F;
},
{
glyphname = braceleft;
lastChange = "2016-08-24 09:53:51 +0000";
layers = (
{
layerId = UUID0;
paths = (
{
closed = 1;
nodes = (
"64 70 LINE",
"64 106 LINE",
"95 158 LINE",
"142 200 LINE",
"195 237 LINE",
"242 276 LINE",
"273 324 LINE",
"273 355 LINE",
"273 358 LINE",
"273 366 LINE",
"272 375 LINE",
"272 383 LINE",
"272 385 LINE",
"271 386 LINE",
"255 394 LINE",
"253 394 LINE",
"248 394 LINE",
"229 394 LINE",
"177 376 LINE",
"124 351 LINE",
"77 325 LINE",
"65 318 LINE",
"64 318 LINE",
"58 317 LINE",
"57 317 LINE",
"44 317 LINE",
"36 330 LINE",
"36 342 LINE",
"36 344 LINE",
"37 354 LINE",
"37 355 LINE",
"51 362 LINE",
"96 383 LINE",
"139 409 LINE",
"174 441 LINE",
"179 460 LINE",
"140 467 LINE",
"80 511 LINE",
"39 571 LINE",
"19 643 LINE",
"19 678 LINE",
"19 722 LINE",
"68 800 LINE",
"146 858 LINE",
"236 892 LINE",
"276 892 LINE",
"291 892 LINE",
"323 885 LINE",
"350 868 LINE",
"367 842 LINE",
"367 824 LINE",
"367 816 LINE",
"361 795 LINE",
"352 795 LINE",
"346 795 LINE",
"331 811 LINE",
"313 829 LINE",
"291 845 LINE",
"277 845 LINE",
"235 841 LINE",
"166 811 LINE",
"112 761 LINE",
"74 695 LINE",
"64 656 LINE",
"64 626 LINE",
"88 581 LINE",
"127 548 LINE",
"177 522 LINE",
"229 501 LINE",
"279 480 LINE",
"300 469 LINE",
"294 450 LINE",
"306 421 LINE",
"322 394 LINE",
"338 365 LINE",
"338 348 LINE",
"338 313 LINE",
"305 262 LINE",
"255 220 LINE",
"196 183 LINE",
"146 140 LINE",
"112 90 LINE",
"112 57 LINE",
"112 48 LINE",
"124 27 LINE",
"150 -8 LINE",
"184 -32 LINE",
"224 -46 LINE",
"248 -46 LINE",
"253 -46 LINE",
"289 -40 LINE",
"359 -28 LINE",
"396 -28 LINE",
"396 -45 LINE",
"374 -67 LINE",
"339 -82 LINE",
"296 -90 LINE",
"254 -94 LINE",
"220 -95 LINE",
"211 -95 LINE",
"176 -102 LINE",
"121 -73 LINE",
"84 -22 LINE",
"64 42 LINE"
);
}
);
width = 394;
}
);
unicode = 007B;
},
{
glyphname = braceright;
lastChange = "2016-08-24 09:53:51 +0000";
layers = (
{
layerId = UUID0;
paths = (
{
closed = 1;
nodes = (
"206 -226 LINE",
"178 -229 LINE",
"112 -222 LINE",
"52 -196 LINE",
"7 -149 LINE",
"0 -113 LINE",
"0 -110 LINE",
"4 -100 LINE",
"11 -90 LINE",
"20 -84 LINE",
"23 -84 LINE",
"33 -84 LINE",
"44 -96 LINE",
"51 -112 LINE",
"60 -128 LINE",
"65 -131 LINE",
"74 -137 LINE",
"105 -151 LINE",
"136 -167 LINE",
"158 -178 LINE",
"159 -178 LINE",
"197 -187 LINE",
"272 -167 LINE",
"330 -123 LINE",
"366 -58 LINE",
"366 -19 LINE",
"366 -2 LINE",
"354 42 LINE",
"333 91 LINE",
"307 140 LINE",
"279 186 LINE",
"253 223 LINE",
"244 235 LINE",
"227 256 LINE",
"183 289 LINE",
"146 323 LINE",
"121 367 LINE",
"121 398 LINE",
"121 417 LINE",
"131 440 LINE",
"131 455 LINE",
"131 464 LINE",
"125 482 LINE",
"118 500 LINE",
"112 520 LINE",
"112 529 LINE",
"112 548 LINE",
"117 576 LINE",
"131 591 LINE",
"291 750 LINE",
"295 754 LINE",
"300 769 LINE",
"301 786 LINE",
"301 801 LINE",
"301 807 LINE",
"301 836 LINE",
"271 870 LINE",
"227 888 LINE",
"174 892 LINE",
"149 892 LINE",
"137 892 LINE",
"114 888 LINE",
"92 883 LINE",
"68 880 LINE",
"57 881 LINE",
"62 868 LINE",
"80 863 LINE",
"100 862 LINE",
"113 856 LINE",
"113 844 LINE",
"113 829 LINE",
"97 824 LINE",
"85 824 LINE",
"49 824 LINE",
"8 862 LINE",
"8 896 LINE",
"8 912 LINE",
"27 930 LINE",
"60 938 LINE",
"97 941 LINE",
"133 940 LINE",
"162 938 LINE",
"168 938 LINE",
"174 938 LINE",
"197 938 LINE",
"225 938 LINE",
"249 938 LINE",
"253 938 LINE",
"277 929 LINE",
"318 900 LINE",
"349 865 LINE",
"366 818 LINE",
"366 792 LINE",
"366 760 LINE",
"337 710 LINE",
"293 667 LINE",
"241 629 LINE",
"197 592 LINE",
"168 552 LINE",
"168 529 LINE",
"168 518 LINE",
"177 505 LINE",
"192 499 LINE",
"214 498 LINE",
"225 497 LINE",
"231 496 LINE",
"264 496 LINE",
"300 496 LINE",
"331 496 LINE",
"338 497 LINE",
"352 491 LINE",
"356 476 LINE",
"356 465 LINE",
"356 459 LINE",
"355 442 LINE",
"347 440 LINE",
"339 440 LINE",
"303 438 LINE",
"261 435 LINE",
"224 432 LINE",
"216 432 LINE",
"199 429 LINE",
"172 412 LINE",
"168 394 LINE",
"168 391 LINE",
"186 368 LINE",
"212 336 LINE",
"247 300 LINE",
"278 265 LINE",
"304 233 LINE",
"310 225 LINE",
"328 194 LINE",
"365 136 LINE",
"396 73 LINE",
"414 7 LINE",
"414 -29 LINE",
"414 -78 LINE",
"383 -151 LINE",
"326 -201 LINE",
"250 -226 LINE"
);
}
);
width = 440;
}
);
unicode = 007D;
},
{
glyphname = bracketleft;
lastChange = "2016-08-24 09:53:51 +0000";
layers = (
{
layerId = UUID0;
paths = (
{
closed = 1;
nodes = (
"19 563 LINE",
"19 566 LINE",
"19 577 LINE",
"29 595 LINE",
"37 600 LINE",
"80 616 LINE",
"183 653 LINE",
"291 684 LINE",
"399 704 LINE",
"446 704 LINE",
"449 704 LINE",
"451 702 LINE",
"458 688 LINE",
"460 685 LINE",
"460 680 LINE",
"460 675 LINE",
"458 674 LINE",
"451 666 LINE",
"449 666 LINE",
"408 657 LINE",
"317 635 LINE",
"225 609 LINE",
"134 579 LINE",
"94 563 LINE",
"86 563 LINE",
"86 554 LINE",
"92 517 LINE",
"103 478 LINE",
"115 440 LINE",
"122 432 LINE",
"142 303 LINE",
"162 130 LINE",
"176 25 LINE",
"188 -20 LINE",
"200 -20 LINE",
"258 -20 LINE",
"370 -8 LINE",
"427 -8 LINE",
"432 -8 LINE",
"457 -8 LINE",
"485 -9 LINE",
"511 -9 LINE",
"517 -9 LINE",
"525 -17 LINE",
"544 -40 LINE",
"544 -53 LINE",
"544 -54 LINE",
"543 -55 LINE",
"543 -55 LINE",
"543 -57 LINE",
"542 -58 LINE",
"528 -64 LINE",
"525 -65 LINE",
"496 -64 LINE",
"414 -63 LINE",
"326 -64 LINE",
"244 -69 LINE",
"216 -75 LINE",
"214 -75 LINE",
"203 -78 LINE",
"191 -81 LINE",
"181 -84 LINE",
"179 -84 LINE",
"177 -85 LINE",
"169 -88 LINE",
"159 -92 LINE",
"150 -94 LINE",
"150 -94 LINE",
"149 -94 LINE",
"143 -87 LINE",
"142 -84 LINE",
"139 -81 LINE",
"131 -60 LINE",
"131 -57 LINE",
"130 -53 LINE",
"130 -28 LINE",
"127 5 LINE",
"126 42 LINE",
"124 74 LINE",
"122 99 LINE",
"122 104 LINE",
"121 108 LINE",
"116 139 LINE",
"109 181 LINE",
"102 229 LINE",
"94 276 LINE",
"87 316 LINE",
"85 329 LINE",
"84 329 LINE",
"81 338 LINE",
"77 347 LINE",
"74 354 LINE",
"74 355 LINE",
"74 366 LINE"
);
}
);
width = 479;
}
);
unicode = 005B;
},
{
glyphname = bracketright;
lastChange = "2016-08-24 09:53:51 +0000";
layers = (
{
layerId = UUID0;
paths = (
{
closed = 1;
nodes = (
"64 -46 LINE",
"64 -43 LINE",
"65 -29 LINE",
"65 -28 LINE",
"85 -20 LINE",
"338 -20 LINE",
"346 -20 LINE",
"347 -6 LINE",
"347 -2 LINE",
"347 47 LINE",
"350 170 LINE",
"349 305 LINE",
"344 444 LINE",
"329 575 LINE",
"303 689 LINE",
"282 730 LINE",
"269 738 LINE",
"218 750 LINE",
"157 760 LINE",
"94 770 LINE",
"42 783 LINE",
"9 799 LINE",
"9 811 LINE",
"13 821 LINE",
"51 830 LINE",
"103 829 LINE",
"162 821 LINE",
"216 813 LINE",
"256 807 LINE",
"263 807 LINE",
"297 800 LINE",
"337 766 LINE",
"358 717 LINE",
"369 659 LINE",
"376 628 LINE",
"376 609 LINE",
"380 540 LINE",
"385 449 LINE",
"391 345 LINE",
"396 237 LINE",
"402 133 LINE",
"408 42 LINE",
"411 -27 LINE",
"413 -46 LINE",
"413 -63 LINE",
"413 -71 LINE",
"402 -82 LINE",
"389 -90 LINE",
"373 -94 LINE",
"366 -94 LINE",
"104 -94 LINE",
"77 -94 LINE",
"64 -67 LINE"
);
}
);
width = 432;
}
);
unicode = 005D;
},
{
glyphname = parenleft;
lastChange = "2016-08-24 09:53:51 +0000";
layers = (
{
layerId = UUID0;
paths = (
{
closed = 1;
nodes = (
"19 191 LINE",
"19 224 LINE",
"49 306 LINE",
"100 394 LINE",
"165 477 LINE",
"238 542 LINE",
"313 582 LINE",
"347 582 LINE",
"355 582 LINE",
"376 574 LINE",
"393 561 LINE",
"404 544 LINE",
"404 535 LINE",
"404 528 LINE",
"398 505 LINE",
"389 505 LINE",
"382 505 LINE",
"372 512 LINE",
"361 520 LINE",
"351 525 LINE",
"344 525 LINE",
"310 525 LINE",
"244 490 LINE",
"184 432 LINE",
"133 356 LINE",
"95 277 LINE",
"74 202 LINE",
"74 173 LINE",
"74 126 LINE",
"106 66 LINE",
"161 31 LINE",
"232 15 LINE",
"272 10 LINE",
"279 7 LINE",
"282 -3 LINE",
"282 -9 LINE",
"282 -22 LINE",
"262 -35 LINE",
"235 -40 LINE",
"209 -38 LINE",
"202 -38 LINE",
"156 -38 LINE",
"87 3 LINE",
"42 68 LINE",
"19 150 LINE"
);
}
);
width = 423;
}
);
unicode = 0028;
},
{
glyphname = parenright;
lastChange = "2016-08-24 09:53:51 +0000";
layers = (
{
layerId = UUID0;
paths = (
{
closed = 1;
nodes = (
"9 -20 LINE",
"9 -12 LINE",
"39 20 LINE",
"86 65 LINE",
"140 122 LINE",
"186 188 LINE",
"217 262 LINE",
"217 300 LINE",
"217 337 LINE",
"195 404 LINE",
"159 466 LINE",
"111 520 LINE",
"85 543 LINE",
"78 540 LINE",
"64 543 LINE",
"54 552 LINE",
"46 565 LINE",
"46 572 LINE",
"46 587 LINE",
"63 592 LINE",
"76 592 LINE",
"105 592 LINE",
"157 563 LINE",
"201 517 LINE",
"236 456 LINE",
"261 394 LINE",
"273 333 LINE",
"273 310 LINE",
"273 286 LINE",
"252 214 LINE",
"215 133 LINE",
"167 50 LINE",
"113 -17 LINE",
"58 -58 LINE",
"33 -58 LINE",
"27 -58 LINE",
"19 -49 LINE",
"12 -37 LINE",
"9 -23 LINE"
);
}
);
width = 291;
}
);
unicode = 0029;
},
{
glyphname = emdash;
lastChange = "2016-08-24 09:53:51 +0000";
layers = (
{
layerId = UUID0;
paths = (
{
closed = 1;
nodes = (
"389 317 LINE",
"402 317 LINE",
"435 315 LINE",
"462 307 LINE",
"479 288 LINE",
"479 271 LINE",
"479 250 LINE",
"461 250 LINE",
"440 250 LINE",
"403 261 LINE",
"381 261 LINE",
"361 261 LINE",
"304 258 LINE",
"235 253 LINE",
"161 248 LINE",
"92 244 LINE",
"33 241 LINE",
"15 241 LINE",
"15 264 LINE",
"57 292 LINE",
"124 307 LINE",
"205 313 LINE",
"283 314 LINE",
"350 314 LINE",
"367 316 LINE",
"367 316 LINE",
"385 317 LINE"
);
}
);
width = 513;
}
);
unicode = 2014;
},
{
glyphname = endash;
lastChange = "2016-08-24 09:53:51 +0000";
layers = (
{
layerId = UUID0;
paths = (
{
closed = 1;
nodes = (
"183 317 LINE",
"197 317 LINE",
"229 316 LINE",
"256 308 LINE",
"273 288 LINE",
"273 271 LINE",
"273 250 LINE",
"255 250 LINE",
"233 250 LINE",
"197 262 LINE",
"175 262 LINE",
"146 262 LINE",
"110 255 LINE",
"79 247 LINE",
"43 241 LINE",
"15 241 LINE",
"15 275 LINE",
"40 306 LINE",
"82 314 LINE",
"134 313 LINE",
"160 317 LINE",
"163 317 LINE",
"166 317 LINE",
"174 317 LINE",
"177 317 LINE"
);
}
);
width = 288;
}
);
unicode = 2013;
},
{
glyphname = hyphen;
lastChange = "2016-08-24 09:53:51 +0000";
layers = (
{
layerId = UUID0;
paths = (
{
closed = 1;
nodes = (
"247 319 LINE",
"262 319 LINE",
"293 317 LINE",
"320 309 LINE",
"338 290 LINE",
"338 272 LINE",
"338 252 LINE",
"319 252 LINE",
"298 252 LINE",
"262 263 LINE",
"239 263 LINE",
"211 263 LINE",
"155 256 LINE",
"99 247 LINE",
"43 241 LINE",
"15 241 LINE",
"15 265 LINE",
"36 292 LINE",
"71 309 LINE",
"115 314 LINE",
"162 315 LINE",
"207 316 LINE",
"225 318 LINE",
"225 318 LINE",
"230 318 LINE",
"238 319 LINE",
"245 319 LINE"
);
}
);
width = 375;
}
);
unicode = 002D;
},
{
glyphname = hyphen_;
lastChange = "2016-08-24 09:53:51 +0000";
layers = (
{
layerId = UUID0;
paths = (
{
closed = 1;
nodes = (
"247 319 LINE",
"262 319 LINE",
"293 317 LINE",
"320 309 LINE",
"338 290 LINE",
"338 272 LINE",
"338 252 LINE",
"319 252 LINE",
"298 252 LINE",
"262 263 LINE",
"239 263 LINE",
"211 263 LINE",
"155 256 LINE",
"99 247 LINE",
"43 241 LINE",
"15 241 LINE",
"15 265 LINE",
"36 292 LINE",
"71 309 LINE",
"115 314 LINE",
"162 315 LINE",
"207 316 LINE",
"225 318 LINE",
"228 318 LINE",
"230 318 LINE",
"238 319 LINE",
"241 319 LINE"
);
}
);
width = 375;
}
);
unicode = 00AD;
},
{
glyphname = guillemotleft;
lastChange = "2016-08-24 09:53:51 +0000";
layers = (
{
layerId = UUID0;
paths = (
{
closed = 1;
nodes = (
"75 179 LINE",
"77 180 LINE",
"104 200 LINE",
"149 230 LINE",
"204 270 LINE",
"260 309 LINE",
"311 344 LINE",
"329 355 LINE",
"339 363 LINE",
"365 379 LINE",
"393 394 LINE",
"420 407 LINE",
"432 412 LINE",
"435 411 LINE",
"442 403 LINE",
"451 395 LINE",
"458 387 LINE",
"460 385 LINE",
"460 384 LINE",
"437 366 LINE",
"399 341 LINE",
"355 312 LINE",
"315 285 LINE",
"285 265 LINE",
"282 262 LINE",
"261 247 LINE",
"213 219 LINE",
"165 187 LINE",
"121 151 LINE",
"104 131 LINE",
"105 127 LINE",
"130 118 LINE",
"165 110 LINE",
"206 104 LINE",
"242 98 LINE",
"269 94 LINE",
"272 94 LINE",
"285 92 LINE",
"335 84 LINE",
"387 68 LINE",
"425 43 LINE",
"425 23 LINE",
"425 0 LINE",
"399 0 LINE",
"389 0 LINE",
"369 7 LINE",
"349 17 LINE",
"329 26 LINE",
"319 28 LINE",
"312 30 LINE",
"292 32 LINE",
"246 37 LINE",
"220 40 LINE",
"158 48 LINE",
"98 57 LINE",
"45 69 LINE",
"11 84 LINE",
"-2 102 LINE",
"10 112 LINE"
);
},
{
closed = 1;
nodes = (
"314 242 LINE",
"314 243 LINE",
"344 264 LINE",
"388 294 LINE",
"442 333 LINE",
"498 372 LINE",
"549 407 LINE",
"566 420 LINE",
"588 435 LINE",
"646 466 LINE",
"670 476 LINE",
"672 475 LINE",
"681 467 LINE",
"689 458 LINE",
"696 450 LINE",
"698 448 LINE",
"698 447 LINE",
"675 430 LINE",
"637 405 LINE",
"593 375 LINE",
"554 349 LINE",
"524 329 LINE",
"521 326 LINE",
"499 312 LINE",
"452 282 LINE",
"404 250 LINE",
"359 215 LINE",
"342 194 LINE",
"344 190 LINE",
"368 183 LINE",
"403 174 LINE",
"444 167 LINE",
"480 161 LINE",
"507 157 LINE",
"511 157 LINE",
"522 155 LINE",
"573 147 LINE",
"625 132 LINE",
"663 106 LINE",
"663 87 LINE",
"663 63 LINE",
"637 63 LINE",
"628 63 LINE",
"607 71 LINE",
"597 75 LINE",
"577 85 LINE",
"567 90 LINE",
"558 92 LINE",
"551 94 LINE",
"531 96 LINE",
"484 101 LINE",
"458 104 LINE",
"396 111 LINE",
"337 121 LINE",
"284 133 LINE",
"250 147 LINE",
"237 165 LINE",
"248 177 LINE"
);
}
);
width = 756;
}
);
unicode = 00AB;
},
{
glyphname = guillemotright;
lastChange = "2016-08-24 09:53:51 +0000";
layers = (
{
layerId = UUID0;
paths = (
{
closed = 1;
nodes = (
"27 33 LINE",
"30 42 LINE",
"63 71 LINE",
"113 108 LINE",
"175 150 LINE",
"233 191 LINE",
"285 232 LINE",
"314 268 LINE",
"318 294 LINE",
"301 300 LINE",
"283 301 LINE",
"231 313 LINE",
"174 333 LINE",
"115 358 LINE",
"66 388 LINE",
"33 417 LINE",
"28 432 LINE",
"28 432 LINE",
"27 439 LINE",
"27 440 LINE",
"27 453 LINE",
"46 461 LINE",
"57 461 LINE",
"72 461 LINE",
"95 446 LINE",
"114 429 LINE",
"136 408 LINE",
"150 403 LINE",
"202 385 LINE",
"319 346 LINE",
"376 338 LINE",
"391 332 LINE",
"396 314 LINE",
"396 303 LINE",
"399 285 LINE",
"388 256 LINE",
"366 231 LINE",
"340 209 LINE",
"329 197 LINE",
"323 192 LINE",
"279 159 LINE",
"220 115 LINE",
"152 67 LINE",
"95 26 LINE",
"54 -1 LINE",
"51 -1 LINE",
"34 -1 LINE",
"27 21 LINE"
);
},
{
closed = 1;
nodes = (
"250 58 LINE",
"253 69 LINE",
"309 112 LINE",
"386 166 LINE",
"468 224 LINE",
"527 275 LINE",
"547 314 LINE",
"523 323 LINE",
"506 324 LINE",
"454 337 LINE",
"396 356 LINE",
"338 383 LINE",
"290 411 LINE",
"256 441 LINE",
"251 455 LINE",
"251 456 LINE",
"250 464 LINE",
"250 465 LINE",
"250 477 LINE",
"269 484 LINE",
"279 484 LINE",
"295 484 LINE",
"317 471 LINE",
"337 452 LINE",
"358 433 LINE",
"373 428 LINE",
"425 408 LINE",
"542 370 LINE",
"599 361 LINE",
"613 355 LINE",
"618 338 LINE",
"618 326 LINE",
"622 309 LINE",
"610 280 LINE",
"589 256 LINE",
"563 232 LINE",
"552 221 LINE",
"546 217 LINE",
"502 184 LINE",
"442 140 LINE",
"375 92 LINE",
"317 51 LINE",
"276 23 LINE",
"273 23 LINE",
"257 23 LINE",
"250 44 LINE"
);
}
);
width = 660;
}
);
unicode = 00BB;
},
{
glyphname = guilsinglleft;
lastChange = "2016-08-24 09:53:51 +0000";
layers = (
{
layerId = UUID0;
paths = (
{
closed = 1;
nodes = (
"75 179 LINE",
"77 180 LINE",
"104 200 LINE",
"149 230 LINE",
"204 270 LINE",
"260 309 LINE",
"311 344 LINE",
"329 355 LINE",
"339 363 LINE",
"365 379 LINE",
"393 394 LINE",
"420 407 LINE",
"432 412 LINE",
"435 411 LINE",
"442 403 LINE",
"451 395 LINE",
"458 387 LINE",
"460 385 LINE",
"460 384 LINE",
"437 366 LINE",
"399 341 LINE",
"355 312 LINE",
"315 285 LINE",
"285 265 LINE",
"282 262 LINE",
"261 247 LINE",
"213 219 LINE",
"165 187 LINE",
"121 151 LINE",
"104 131 LINE",
"105 127 LINE",
"130 118 LINE",
"165 110 LINE",
"206 104 LINE",
"242 98 LINE",
"269 94 LINE",
"272 94 LINE",
"285 92 LINE",
"335 84 LINE",
"387 68 LINE",
"425 43 LINE",
"425 23 LINE",
"425 0 LINE",
"399 0 LINE",
"389 0 LINE",
"369 7 LINE",
"349 17 LINE",
"329 26 LINE",
"319 28 LINE",
"312 30 LINE",
"292 32 LINE",
"246 37 LINE",
"220 40 LINE",
"158 48 LINE",
"98 57 LINE",
"45 69 LINE",
"11 84 LINE",
"-2 102 LINE",
"10 112 LINE"
);
}
);
width = 487;
}
);
unicode = 2039;
},
{
glyphname = guilsinglright;
lastChange = "2016-08-24 09:53:51 +0000";
layers = (
{
layerId = UUID0;
paths = (
{
closed = 1;
nodes = (
"27 33 LINE",
"30 42 LINE",
"63 71 LINE",
"113 108 LINE",
"175 150 LINE",
"233 191 LINE",
"285 232 LINE",
"314 268 LINE",
"318 294 LINE",
"301 300 LINE",
"283 301 LINE",
"231 313 LINE",
"174 333 LINE",
"115 358 LINE",
"66 388 LINE",
"33 417 LINE",
"28 432 LINE",
"28 432 LINE",
"27 439 LINE",
"27 440 LINE",
"27 453 LINE",
"46 461 LINE",
"57 461 LINE",
"72 461 LINE",
"95 446 LINE",
"114 429 LINE",
"136 408 LINE",
"150 403 LINE",
"202 385 LINE",
"319 346 LINE",
"376 338 LINE",
"391 332 LINE",
"396 314 LINE",
"396 303 LINE",
"399 285 LINE",
"388 256 LINE",
"366 231 LINE",
"340 209 LINE",
"329 197 LINE",
"323 192 LINE",
"279 159 LINE",
"220 115 LINE",
"152 67 LINE",
"95 26 LINE",
"54 -1 LINE",
"51 -1 LINE",
"34 -1 LINE",
"27 21 LINE"
);
}
);
width = 403;
}
);
unicode = 203A;
},
{
glyphname = quotedblbase;
lastChange = "2016-08-24 09:53:51 +0000";
layers = (
{
layerId = UUID0;
paths = (
{
closed = 1;
nodes = (
"214 -79 LINE",
"212 -46 LINE",
"208 10 LINE",
"206 60 LINE",
"204 107 LINE",
"204 136 LINE",
"204 174 LINE",
"205 176 LINE",
"212 183 LINE",
"214 184 LINE",
"216 184 LINE",
"218 185 LINE",
"230 185 LINE",
"248 147 LINE",
"260 93 LINE",
"267 27 LINE",
"270 -29 LINE",
"271 -70 LINE",
"271 -74 LINE",
"271 -107 LINE",
"269 -110 LINE",
"254 -125 LINE",
"251 -126 LINE",
"250 -127 LINE",
"249 -127 LINE",
"246 -127 LINE",
"239 -127 LINE",
"229 -113 LINE",
"220 -96 LINE",
"214 -81 LINE"
);
},
{
closed = 1;
nodes = (
"72 146 LINE",
"75 153 LINE",
"86 156 LINE",
"92 156 LINE",
"103 156 LINE",
"118 127 LINE",
"132 82 LINE",
"145 26 LINE",
"156 -28 LINE",
"169 -75 LINE",
"177 -89 LINE",
"171 -100 LINE",
"158 -107 LINE",
"147 -107 LINE",
"135 -107 LINE",
"112 -76 LINE",
"97 -27 LINE",
"85 33 LINE",
"77 89 LINE",
"73 136 LINE"
);
}
);
width = 342;
}
);
unicode = 201E;
},
{
glyphname = quotedblleft;
lastChange = "2016-08-24 09:53:51 +0000";
layers = (
{
layerId = UUID0;
paths = (
{
closed = 1;
nodes = (
"150 534 LINE",
"148 568 LINE",
"145 623 LINE",
"143 673 LINE",
"142 722 LINE",
"142 750 LINE",
"142 787 LINE",
"142 789 LINE",
"146 792 LINE",
"150 798 LINE",
"153 798 LINE",
"155 798 LINE",
"168 798 LINE",
"186 762 LINE",
"197 707 LINE",
"203 642 LINE",
"206 584 LINE",
"207 543 LINE",
"207 539 LINE",
"207 506 LINE",
"206 503 LINE",
"191 489 LINE",
"188 487 LINE",
"187 487 LINE",
"186 487 LINE",
"183 487 LINE",
"177 487 LINE",
"165 501 LINE",
"156 519 LINE",
"150 533 LINE"
);
},
{
closed = 1;
nodes = (
"10 760 LINE",
"13 768 LINE",
"23 770 LINE",
"29 770 LINE",
"39 770 LINE",
"55 741 LINE",
"68 695 LINE",
"81 640 LINE",
"94 586 LINE",
"106 539 LINE",
"113 525 LINE",
"107 514 LINE",
"95 505 LINE",
"85 505 LINE",
"71 505 LINE",
"50 537 LINE",
"33 586 LINE",
"21 646 LINE",
"14 702 LINE",
"10 748 LINE"
);
}
);
width = 235;
}
);
unicode = 201C;
},
{
glyphname = quotedblright;
lastChange = "2016-08-24 09:53:51 +0000";
layers = (
{
layerId = UUID0;
paths = (
{
closed = 1;
nodes = (
"150 534 LINE",
"148 568 LINE",
"145 623 LINE",
"143 673 LINE",
"142 722 LINE",
"142 750 LINE",
"142 787 LINE",
"142 789 LINE",
"146 792 LINE",
"150 798 LINE",
"153 798 LINE",
"155 798 LINE",
"168 798 LINE",
"186 762 LINE",
"197 707 LINE",
"203 642 LINE",
"206 584 LINE",
"207 543 LINE",
"207 539 LINE",
"207 506 LINE",
"206 503 LINE",
"191 489 LINE",
"188 487 LINE",
"187 487 LINE",
"186 487 LINE",
"183 487 LINE",
"177 487 LINE",
"165 501 LINE",
"156 519 LINE",
"150 533 LINE"
);
},
{
closed = 1;
nodes = (
"10 760 LINE",
"13 768 LINE",
"23 770 LINE",
"29 770 LINE",
"39 770 LINE",
"55 741 LINE",
"68 695 LINE",
"81 640 LINE",
"94 586 LINE",
"106 539 LINE",
"113 525 LINE",
"107 514 LINE",
"95 505 LINE",
"85 505 LINE",
"71 505 LINE",
"50 537 LINE",
"33 586 LINE",
"21 646 LINE",
"14 702 LINE",
"10 748 LINE"
);
}
);
width = 235;
}
);
unicode = 201D;
},
{
glyphname = quoteleft;
lastChange = "2016-08-24 09:53:51 +0000";
layers = (
{
layerId = UUID0;
paths = (
{
closed = 1;
nodes = (
"19 695 LINE",
"19 701 LINE",
"20 710 LINE",
"23 717 LINE",
"30 725 LINE",
"37 730 LINE",
"48 725 LINE",
"64 695 LINE",
"75 657 LINE",
"81 610 LINE",
"85 567 LINE",
"86 530 LINE",
"86 519 LINE",
"86 505 LINE",
"81 487 LINE",
"65 487 LINE",
"54 487 LINE",
"36 517 LINE",
"26 561 LINE",
"21 613 LINE",
"19 660 LINE",
"19 676 LINE"
);
}
);
width = 104;
}
);
unicode = 2018;
},
{
glyphname = quoteright;
lastChange = "2016-08-24 09:53:51 +0000";
layers = (
{
layerId = UUID0;
paths = (
{
closed = 1;
nodes = (
"19 695 LINE",
"19 701 LINE",
"20 710 LINE",
"23 717 LINE",
"30 725 LINE",
"37 730 LINE",
"48 725 LINE",
"64 695 LINE",
"75 657 LINE",
"81 610 LINE",
"85 567 LINE",
"86 530 LINE",
"86 519 LINE",
"86 505 LINE",
"81 487 LINE",
"65 487 LINE",
"54 487 LINE",
"36 517 LINE",
"26 561 LINE",
"21 613 LINE",
"19 660 LINE",
"19 676 LINE"
);
}
);
width = 104;
}
);
unicode = 2019;
},
{
glyphname = quotesinglbase;
lastChange = "2016-08-24 09:53:51 +0000";
layers = (
{
layerId = UUID0;
paths = (
{
closed = 1;
nodes = (
"23 178 LINE",
"23 184 LINE",
"24 191 LINE",
"27 198 LINE",
"35 206 LINE",
"42 213 LINE",
"53 207 LINE",
"68 178 LINE",
"80 139 LINE",
"86 92 LINE",
"89 49 LINE",
"90 12 LINE",
"90 0 LINE",
"90 -14 LINE",
"86 -31 LINE",
"70 -31 LINE",
"58 -31 LINE",
"41 -2 LINE",
"30 42 LINE",
"25 95 LINE",
"23 142 LINE",
"23 158 LINE"
);
}
);
width = 104;
}
);
unicode = 201A;
},
{
glyphname = Euro;
lastChange = "2016-08-24 09:53:51 +0000";
layers = (
{
layerId = UUID0;
paths = (
{
closed = 1;
nodes = (
"160 253 LINE",
"123 253 LINE",
"49 241 LINE",
"10 241 LINE",
"10 281 LINE",
"10 281 LINE",
"21 284 LINE",
"35 287 LINE",
"51 290 LINE",
"57 291 LINE",
"65 291 LINE",
"75 291 LINE",
"106 294 LINE",
"136 297 LINE",
"158 300 LINE",
"159 300 LINE",
"165 301 LINE",
"187 309 LINE",
"188 310 LINE",
"235 440 LINE",
"235 442 LINE",
"221 449 LINE",
"216 449 LINE",
"216 449 LINE",
"208 449 LINE",
"197 450 LINE",
"186 450 LINE",
"183 450 LINE",
"159 450 LINE",
"114 443 LINE",
"68 437 LINE",
"22 430 LINE",
"-1 430 LINE",
"-1 459 LINE",
"33 490 LINE",
"89 503 LINE",
"157 505 LINE",
"224 506 LINE",
"282 513 LINE",
"301 525 LINE",
"334 548 LINE",
"396 606 LINE",
"464 659 LINE",
"539 695 LINE",
"584 695 LINE",
"609 695 LINE",
"648 668 LINE",
"648 640 LINE",
"648 629 LINE",
"646 608 LINE",
"638 600 LINE",
"631 605 LINE",
"621 622 LINE",
"610 637 LINE",
"597 648 LINE",
"587 648 LINE",
"586 648 LINE",
"558 639 LINE",
"517 623 LINE",
"470 604 LINE",
"430 583 LINE",
"403 562 LINE",
"403 554 LINE",
"403 543 LINE",
"416 542 LINE",
"466 532 LINE",
"517 517 LINE",
"555 493 LINE",
"555 479 LINE",
"555 468 LINE",
"540 460 LINE",
"530 460 LINE",
"525 460 LINE",
"524 460 LINE",
"514 463 LINE",
"501 466 LINE",
"490 469 LINE",
"488 469 LINE",
"482 469 LINE",
"479 469 LINE",
"477 469 LINE",
"469 466 LINE",
"459 463 LINE",
"451 460 LINE",
"450 460 LINE",
"445 460 LINE",
"436 460 LINE",
"420 463 LINE",
"405 467 LINE",
"388 470 LINE",
"376 470 LINE",
"350 470 LINE",
"306 451 LINE",
"272 418 LINE",
"253 373 LINE",
"253 346 LINE",
"253 335 LINE",
"265 326 LINE",
"276 326 LINE",
"300 326 LINE",
"348 333 LINE",
"396 341 LINE",
"444 348 LINE",
"470 348 LINE",
"479 348 LINE",
"499 349 LINE",
"520 347 LINE",
"537 338 LINE",
"544 329 LINE",
"536 314 LINE",
"515 303 LINE",
"490 300 LINE",
"464 302 LINE",
"450 300 LINE",
"443 299 LINE",
"411 295 LINE",
"373 289 LINE",
"330 283 LINE",
"291 277 LINE",
"261 273 LINE",
"253 272 LINE",
"236 271 LINE",
"226 245 LINE",
"226 230 LINE",
"226 193 LINE",
"239 130 LINE",
"272 83 LINE",
"326 56 LINE",
"366 56 LINE",
"405 56 LINE",
"486 70 LINE",
"566 89 LINE",
"646 104 LINE",
"685 104 LINE",
"704 104 LINE",
"715 94 LINE",
"715 81 LINE",
"715 70 LINE",
"674 49 LINE",
"609 30 LINE",
"530 16 LINE",
"455 5 LINE",
"392 -1 LINE",
"376 -1 LINE",
"317 -1 LINE",
"247 36 LINE",
"206 94 LINE",
"188 159 LINE",
"180 216 LINE",
"171 253 LINE"
);
}
);
width = 741;
}
);
unicode = 20AC;
},
{
glyphname = cent;
lastChange = "2016-08-24 09:53:51 +0000";
layers = (
{
layerId = UUID0;
paths = (
{
closed = 1;
nodes = (
"221 -50 LINE",
"221 -45 LINE",
"221 -21 LINE",
"220 -5 LINE",
"119 1 LINE",
"19 108 LINE",
"19 218 LINE",
"19 257 LINE",
"47 332 LINE",
"97 394 LINE",
"163 434 LINE",
"202 439 LINE",
"199 454 LINE",
"197 461 LINE",
"197 469 LINE",
"193 505 LINE",
"199 536 LINE",
"212 537 LINE",
"229 517 LINE",
"242 485 LINE",
"250 452 LINE",
"247 440 LINE",
"265 438 LINE",
"304 428 LINE",
"336 408 LINE",
"356 378 LINE",
"356 356 LINE",
"356 353 LINE",
"352 329 LINE",
"344 306 LINE",
"333 287 LINE",
"329 287 LINE",
"329 326 LINE",
"294 382 LINE",
"259 391 LINE",
"266 353 LINE",
"273 279 LINE",
"275 202 LINE",
"273 116 LINE",
"272 65 LINE",
"273 64 LINE",
"275 59 LINE",
"276 55 LINE",
"309 54 LINE",
"373 55 LINE",
"403 57 LINE",
"406 57 LINE",
"420 49 LINE",
"423 48 LINE",
"423 45 LINE",
"423 44 LINE",
"423 42 LINE",
"423 42 LINE",
"427 29 LINE",
"398 16 LINE",
"353 7 LINE",
"297 3 LINE",
"274 0 LINE",
"271 -11 LINE",
"264 -32 LINE",
"253 -49 LINE",
"241 -60 LINE",
"235 -60 LINE",
"230 -60 LINE",
"229 -59 LINE",
"222 -52 LINE"
);
},
{
closed = 1;
nodes = (
"74 216 LINE",
"74 177 LINE",
"97 123 LINE",
"136 86 LINE",
"188 65 LINE",
"218 60 LINE",
"217 91 LINE",
"216 142 LINE",
"216 150 LINE",
"215 186 LINE",
"215 216 LINE",
"215 275 LINE",
"215 305 LINE",
"212 362 LINE",
"209 394 LINE",
"177 389 LINE",
"127 355 LINE",
"92 306 LINE",
"74 247 LINE"
);
}
);
width = 449;
}
);
unicode = 00A2;
},
{
glyphname = currency;
lastChange = "2016-08-24 09:53:51 +0000";
layers = (
{
layerId = UUID0;
paths = (
{
closed = 1;
nodes = (
"485 25 LINE",
"467 41 LINE",
"429 81 LINE",
"410 104 LINE",
"361 83 LINE",
"308 83 LINE",
"233 83 LINE",
"181 119 LINE",
"168 101 LINE",
"143 65 LINE",
"121 39 LINE",
"103 23 LINE",
"97 24 LINE",
"77 24 LINE",
"77 42 LINE",
"77 65 LINE",
"113 128 LINE",
"138 159 LINE",
"120 184 LINE",
"100 246 LINE",
"100 283 LINE",
"100 314 LINE",
"117 369 LINE",
"132 392 LINE",
"115 408 LINE",
"84 440 LINE",
"57 471 LINE",
"36 499 LINE",
"31 510 LINE",
"30 517 LINE",
"34 525 LINE",
"42 530 LINE",
"51 531 LINE",
"55 531 LINE",
"66 526 LINE",
"95 508 LINE",
"127 483 LINE",
"160 455 LINE",
"178 439 LINE",
"217 469 LINE",
"315 499 LINE",
"366 499 LINE",
"394 499 LINE",
"443 475 LINE",
"464 455 LINE",
"484 473 LINE",
"521 501 LINE",
"550 514 LINE",
"569 507 LINE",
"573 489 LINE",
"552 471 LINE",
"516 434 LINE",
"499 414 LINE",
"519 385 LINE",
"540 320 LINE",
"540 293 LINE",
"540 238 LINE",
"493 156 LINE",
"456 129 LINE",
"479 91 LINE",
"522 54 LINE",
"520 43 LINE",
"506 24 LINE",
"494 24 LINE",
"493 24 LINE",
"486 25 LINE"
);
},
{
closed = 1;
nodes = (
"146 279 LINE",
"146 250 LINE",
"169 194 LINE",
"209 153 LINE",
"264 129 LINE",
"294 129 LINE",
"335 125 LINE",
"414 160 LINE",
"473 219 LINE",
"503 292 LINE",
"487 361 LINE",
"415 418 LINE",
"343 431 LINE",
"311 431 LINE",
"241 411 LINE",
"184 374 LINE",
"146 317 LINE"
);
}
);
width = 618;
}
);
unicode = 00A4;
},
{
glyphname = dollar;
lastChange = "2016-08-24 09:53:51 +0000";
layers = (
{
layerId = UUID0;
paths = (
{
closed = 1;
nodes = (
"285 106 LINE",
"284 103 LINE",
"279 70 LINE",
"271 36 LINE",
"261 8 LINE",
"254 8 LINE",
"233 8 LINE",
"220 38 LINE",
"218 77 LINE",
"220 115 LINE",
"216 122 LINE",
"210 133 LINE",
"174 158 LINE",
"125 187 LINE",
"73 217 LINE",
"30 247 LINE",
"6 277 LINE",
"10 291 LINE",
"13 303 LINE",
"28 311 LINE",
"38 311 LINE",
"59 311 LINE",
"96 275 LINE",
"135 232 LINE",
"174 197 LINE",
"197 197 LINE",
"210 197 LINE",
"229 231 LINE",
"241 284 LINE",
"249 350 LINE",
"253 410 LINE",
"254 461 LINE",
"254 473 LINE",
"254 476 LINE",
"254 484 LINE",
"253 495 LINE",
"253 505 LINE",
"253 506 LINE",
"239 523 LINE",
"203 552 LINE",
"171 581 LINE",
"149 616 LINE",
"149 643 LINE",
"149 646 LINE",
"150 663 LINE",
"150 666 LINE",
"174 700 LINE",
"242 747 LINE",
"282 760 LINE",
"283 778 LINE",
"285 830 LINE",
"294 879 LINE",
"316 920 LINE",
"338 929 LINE",
"338 913 LINE",
"345 888 LINE",
"347 872 LINE",
"347 871 LINE",
"344 865 LINE",
"341 859 LINE",
"338 854 LINE",
"338 854 LINE",
"338 853 LINE",
"338 845 LINE",
"338 834 LINE",
"337 823 LINE",
"337 820 LINE",
"337 818 LINE",
"338 810 LINE",
"338 798 LINE",
"338 789 LINE",
"338 787 LINE",
"351 780 LINE",
"367 777 LINE",
"380 777 LINE",
"382 777 LINE",
"394 778 LINE",
"395 778 LINE",
"395 792 LINE",
"394 833 LINE",
"399 870 LINE",
"419 897 LINE",
"440 897 LINE",
"440 750 LINE",
"443 743 LINE",
"459 735 LINE",
"475 728 LINE",
"487 719 LINE",
"487 713 LINE",
"487 709 LINE",
"476 698 LINE",
"458 689 LINE",
"439 684 LINE",
"432 685 LINE",
"428 646 LINE",
"411 577 LINE",
"411 539 LINE",
"411 537 LINE",
"412 524 LINE",
"412 511 LINE",
"413 499 LINE",
"413 497 LINE",
"434 473 LINE",
"485 429 LINE",
"531 381 LINE",
"563 323 LINE",
"563 285 LINE",
"563 183 LINE",
"455 72 LINE",
"356 65 LINE",
"358 56 LINE",
"358 33 LINE",
"352 13 LINE",
"336 -1 LINE",
"323 -1 LINE",
"322 -1 LINE",
"312 0 LINE",
"310 0 LINE",
"307 27 LINE",
"304 51 LINE",
"300 69 LINE",
"291 104 LINE"
);
},
{
closed = 1;
nodes = (
"366 131 LINE",
"368 130 LINE",
"382 123 LINE",
"385 122 LINE",
"389 122 LINE",
"420 122 LINE",
"465 150 LINE",
"493 194 LINE",
"508 248 LINE",
"508 273 LINE",
"508 328 LINE",
"457 400 LINE",
"413 432 LINE",
"400 425 LINE",
"384 391 LINE",
"373 344 LINE",
"367 291 LINE",
"365 240 LINE",
"365 196 LINE",
"365 183 LINE",
"365 180 LINE",
"365 165 LINE",
"366 148 LINE",
"366 134 LINE"
);
},
{
closed = 1;
nodes = (
"342 466 LINE",
"344 469 LINE",
"337 473 LINE",
"327 473 LINE",
"318 471 LINE",
"319 469 LINE",
"315 446 LINE",
"300 382 LINE",
"283 313 LINE",
"271 247 LINE",
"270 195 LINE",
"282 167 LINE",
"301 171 LINE",
"301 172 LINE",
"308 215 LINE",
"316 277 LINE",
"326 350 LINE",
"336 412 LINE",
"342 455 LINE",
"342 457 LINE"
);
},
{
closed = 1;
nodes = (
"317 569 LINE",
"317 563 LINE",
"317 541 LINE",
"320 520 LINE",
"329 502 LINE",
"338 497 LINE",
"353 507 LINE",
"370 540 LINE",
"381 580 LINE",
"385 625 LINE",
"386 667 LINE",
"385 704 LINE",
"385 716 LINE",
"383 716 LINE",
"370 716 LINE",
"354 714 LINE",
"341 713 LINE",
"338 713 LINE",
"336 713 LINE",
"329 705 LINE",
"329 704 LINE",
"325 683 LINE",
"321 649 LINE",
"318 619 LINE",
"317 588 LINE"
);
},
{
closed = 1;
nodes = (
"206 626 LINE",
"206 618 LINE",
"207 604 LINE",
"213 595 LINE",
"225 586 LINE",
"235 581 LINE",
"235 581 LINE",
"240 577 LINE",
"247 572 LINE",
"253 569 LINE",
"255 571 LINE",
"262 576 LINE",
"270 596 LINE",
"272 620 LINE",
"272 644 LINE",
"272 651 LINE",
"272 655 LINE",
"269 667 LINE",
"262 678 LINE",
"253 685 LINE",
"249 685 LINE",
"237 685 LINE",
"221 674 LINE",
"211 656 LINE",
"206 636 LINE"
);
}
);
width = 581;
}
);
unicode = 0024;
},
{
glyphname = florin;
lastChange = "2016-08-24 09:53:51 +0000";
layers = (
{
layerId = UUID0;
paths = (
{
closed = 1;
nodes = (
"329 311 LINE",
"350 311 LINE",
"348 291 LINE",
"356 279 LINE",
"332 265 LINE",
"282 260 LINE",
"212 265 LINE",
"174 273 LINE",
"175 194 LINE",
"169 37 LINE",
"161 -97 LINE",
"155 -193 LINE",
"156 -210 LINE",
"157 -242 LINE",
"129 -264 LINE",
"82 -257 LINE",
"24 -226 LINE",
"-31 -185 LINE",
"-75 -140 LINE",
"-96 -101 LINE",
"-85 -75 LINE",
"-58 -75 LINE",
"-58 -75 LINE",
"-35 -104 LINE",
"0 -143 LINE",
"40 -181 LINE",
"76 -198 LINE",
"101 -187 LINE",
"102 -156 LINE",
"101 -145 LINE",
"104 -77 LINE",
"109 11 LINE",
"114 108 LINE",
"117 193 LINE",
"117 255 LINE",
"114 262 LINE",
"104 272 LINE",
"99 271 LINE",
"72 266 LINE",
"42 259 LINE",
"16 254 LINE",
"10 253 LINE",
"5 253 LINE",
"-3 253 LINE",
"-9 265 LINE",
"-9 272 LINE",
"-9 289 LINE",
"15 307 LINE",
"48 314 LINE",
"83 317 LINE",
"95 318 LINE",
"93 348 LINE",
"92 428 LINE",
"101 514 LINE",
"124 597 LINE",
"165 663 LINE",
"230 704 LINE",
"277 704 LINE",
"304 704 LINE",
"366 678 LINE",
"420 634 LINE",
"455 581 LINE",
"455 554 LINE",
"433 554 LINE",
"414 554 LINE",
"382 583 LINE",
"350 619 LINE",
"313 648 LINE",
"288 648 LINE",
"256 648 LINE",
"206 617 LINE",
"173 567 LINE",
"156 505 LINE",
"156 474 LINE",
"156 464 LINE",
"160 329 LINE",
"162 327 LINE",
"180 324 LINE",
"218 319 LINE",
"281 313 LINE"
);
}
);
width = 377;
}
);
unicode = 0192;
},
{
glyphname = sterling;
lastChange = "2016-08-24 09:53:51 +0000";
layers = (
{
layerId = UUID0;
paths = (
{
closed = 1;
nodes = (
"10 85 LINE",
"10 103 LINE",
"27 121 LINE",
"54 130 LINE",
"83 132 LINE",
"97 132 LINE",
"115 132 LINE",
"147 131 LINE",
"180 129 LINE",
"213 125 LINE",
"235 122 LINE",
"253 134 LINE",
"286 188 LINE",
"313 255 LINE",
"329 320 LINE",
"329 344 LINE",
"329 353 LINE",
"319 362 LINE",
"306 367 LINE",
"297 367 LINE",
"283 367 LINE",
"266 367 LINE",
"231 361 LINE",
"197 353 LINE",
"162 347 LINE",
"145 347 LINE",
"142 347 LINE",
"140 349 LINE",
"133 363 LINE",
"132 366 LINE",
"132 375 LINE",
"133 378 LINE",
"147 393 LINE",
"150 394 LINE",
"157 396 LINE",
"191 403 LINE",
"229 413 LINE",
"265 421 LINE",
"272 423 LINE",
"282 423 LINE",
"308 427 LINE",
"342 457 LINE",
"366 501 LINE",
"385 555 LINE",
"405 608 LINE",
"434 659 LINE",
"476 698 LINE",
"537 723 LINE",
"581 723 LINE",
"609 723 LINE",
"663 704 LINE",
"706 668 LINE",
"731 617 LINE",
"731 586 LINE",
"731 574 LINE",
"726 552 LINE",
"713 552 LINE",
"706 552 LINE",
"695 568 LINE",
"684 594 LINE",
"669 624 LINE",
"645 649 LINE",
"608 666 LINE",
"583 666 LINE",
"543 666 LINE",
"488 643 LINE",
"449 602 LINE",
"424 542 LINE",
"413 506 LINE",
"411 502 LINE",
"408 486 LINE",
"405 471 LINE",
"404 465 LINE",
"403 460 LINE",
"413 449 LINE",
"582 449 LINE",
"589 449 LINE",
"597 443 LINE",
"601 434 LINE",
"602 423 LINE",
"602 418 LINE",
"602 405 LINE",
"594 383 LINE",
"578 383 LINE",
"568 383 LINE",
"553 386 LINE",
"544 394 LINE",
"534 394 LINE",
"526 394 LINE",
"511 395 LINE",
"503 395 LINE",
"493 395 LINE",
"454 395 LINE",
"405 372 LINE",
"375 333 LINE",
"358 282 LINE",
"344 224 LINE",
"326 161 LINE",
"310 131 LINE",
"329 122 LINE",
"355 121 LINE",
"415 122 LINE",
"472 114 LINE",
"520 92 LINE",
"534 65 LINE",
"513 51 LINE",
"462 45 LINE",
"438 45 LINE",
"402 45 LINE",
"335 57 LINE",
"300 57 LINE",
"273 57 LINE",
"231 39 LINE",
"191 16 LINE",
"149 -2 LINE",
"123 -2 LINE",
"104 -2 LINE",
"63 8 LINE",
"30 28 LINE",
"10 62 LINE"
);
}
);
width = 760;
}
);
unicode = 00A3;
},
{
glyphname = yen;
lastChange = "2016-08-24 09:53:51 +0000";
layers = (
{
layerId = UUID0;
paths = (
{
closed = 1;
nodes = (
"34 201 LINE",
"34 204 LINE",
"42 212 LINE",
"44 212 LINE",
"71 214 LINE",
"96 216 LINE",
"101 217 LINE",
"104 218 LINE",
"173 218 LINE",
"180 285 LINE",
"51 297 LINE",
"39 297 LINE",
"16 306 LINE",
"16 321 LINE",
"5 323 LINE",
"27 329 LINE",
"78 332 LINE",
"147 334 LINE",
"185 333 LINE",
"188 373 LINE",
"38 719 LINE",
"39 722 LINE",
"43 731 LINE",
"50 741 LINE",
"57 748 LINE",
"62 748 LINE",
"63 747 LINE",
"63 747 LINE",
"64 747 LINE",
"66 747 LINE",
"89 736 LINE",
"115 694 LINE",
"132 643 LINE",
"145 584 LINE",
"163 526 LINE",
"193 473 LINE",
"219 452 LINE",
"228 481 LINE",
"253 540 LINE",
"285 599 LINE",
"322 661 LINE",
"342 695 LINE",
"389 716 LINE",
"410 692 LINE",
"385 663 LINE",
"243 378 LINE",
"240 330 LINE",
"262 328 LINE",
"300 322 LINE",
"329 313 LINE",
"346 302 LINE",
"346 294 LINE",
"346 293 LINE",
"331 279 LINE",
"326 276 LINE",
"325 275 LINE",
"324 275 LINE",
"323 274 LINE",
"321 274 LINE",
"237 281 LINE",
"232 221 LINE",
"250 221 LINE",
"282 217 LINE",
"310 208 LINE",
"331 191 LINE",
"335 180 LINE",
"298 160 LINE",
"229 161 LINE",
"219 -3 LINE",
"150 -6 LINE",
"167 162 LINE",
"91 164 LINE",
"78 164 LINE",
"57 165 LINE",
"42 173 LINE",
"34 188 LINE"
);
}
);
width = 390;
}
);
unicode = 00A5;
},
